%
M48
M72
T01C0.0320
T02C0.0354
T03C0.0394
T04C0.0433
%
T01
X16635Y18700
X17635Y18700
X12135Y20200
X12135Y24200
X12135Y25003
X16635Y27200
X17635Y27200
X12135Y29003
X35757Y29003
X40257Y27200
X41257Y27200
X35757Y25003
X35757Y24200
X35757Y20200
X40257Y18700
X41257Y18700
T02
X3305Y7613
X3305Y8401
X3305Y9188
X3305Y9976
X3305Y10763
X3305Y11550
X3305Y12338
X3305Y13125
X3305Y13913
X3305Y14700
X11966Y14700
X11966Y13913
X11966Y13125
X11966Y12338
X11966Y11550
X11966Y10763
X11966Y9976
X11966Y9188
X11966Y8401
X11966Y7613
X26927Y7613
X26927Y8401
X26927Y9188
X26927Y9976
X26927Y10763
X26927Y11550
X26927Y12338
X26927Y13125
X26927Y13913
X26927Y14700
X35588Y14700
X35588Y13913
X35588Y13125
X35588Y12338
X35588Y11550
X35588Y10763
X35588Y9976
X35588Y9188
X35588Y8401
X35588Y7613
T03
X39667Y8003
X40667Y8003
X40667Y7003
X39667Y7003
X39667Y6003
X40667Y6003
X41667Y6003
X42667Y6003
X43667Y6003
X43667Y7003
X42667Y7003
X41667Y7003
X41667Y8003
X42667Y8003
X43667Y8003
X43667Y9003
X42667Y9003
X41667Y9003
X40667Y9003
X39667Y9003
X39667Y10003
X40667Y10003
X41667Y10003
X42667Y10003
X43667Y10003
X43667Y11003
X42667Y11003
X41667Y11003
X40667Y11003
X39667Y11003
X39667Y12003
X40667Y12003
X41667Y12003
X42667Y12003
X43667Y12003
X43667Y13003
X42667Y13003
X41667Y13003
X40667Y13003
X39667Y13003
X43757Y15700
X43757Y16700
X43757Y17700
X43757Y18700
X43757Y19700
X43757Y20700
X40757Y21200
X40757Y22200
X40757Y23200
X40757Y24200
X43757Y23700
X43757Y22700
X43757Y24700
X43757Y25700
X43757Y26700
X43757Y27700
X24757Y27700
X24757Y26700
X24757Y25700
X24757Y24700
X24757Y23700
X24757Y22700
X24757Y21700
X24757Y20700
X24757Y19100
X24757Y18100
X24757Y17100
X24757Y16100
X24757Y15100
X24757Y14100
X24757Y13100
X24757Y12100
X20045Y12003
X19045Y12003
X18045Y12003
X17045Y12003
X16045Y12003
X16045Y13003
X17045Y13003
X18045Y13003
X19045Y13003
X20045Y13003
X20045Y11003
X19045Y11003
X19045Y10003
X20045Y10003
X20045Y9003
X19045Y9003
X18045Y9003
X17045Y9003
X16045Y9003
X16045Y10003
X17045Y10003
X18045Y10003
X18045Y11003
X17045Y11003
X16045Y11003
X16045Y8003
X17045Y8003
X18045Y8003
X18045Y7003
X17045Y7003
X16045Y7003
X16045Y6003
X17045Y6003
X18045Y6003
X19045Y6003
X20045Y6003
X20045Y7003
X19045Y7003
X19045Y8003
X20045Y8003
X20045Y5003
X19045Y5003
X19045Y4003
X20045Y4003
X18045Y4003
X17045Y4003
X16045Y4003
X16045Y5003
X17045Y5003
X18045Y5003
X20135Y15700
X20135Y16700
X20135Y17700
X20135Y18700
X20135Y19700
X20135Y20700
X20135Y22700
X20135Y23700
X20135Y24700
X20135Y25700
X20135Y26700
X20135Y27700
X17135Y24200
X17135Y23200
X17135Y22200
X17135Y21200
X1135Y20700
X1135Y21700
X1135Y22700
X1135Y23700
X1135Y24700
X1135Y25700
X1135Y26700
X1135Y27700
X1135Y19100
X1135Y18100
X1135Y17100
X1135Y16100
X1135Y15100
X1135Y14100
X1135Y13100
X1135Y12100
X39667Y5003
X40667Y5003
X40667Y4003
X39667Y4003
X41667Y4003
X42667Y4003
X43667Y4003
X43667Y5003
X42667Y5003
X41667Y5003
T04
X37757Y17700
X37757Y18700
X37757Y19700
X37757Y20700
X37757Y21700
X37757Y22700
X37757Y23700
X37757Y24700
X37757Y25700
X37757Y26700
X37757Y27700
X37757Y28700
X34301Y25062
X30757Y27424
X27214Y25062
X27214Y20338
X30757Y17976
X34301Y20338
X14135Y20700
X14135Y21700
X14135Y22700
X14135Y23700
X14135Y24700
X14135Y25700
X14135Y26700
X14135Y27700
X14135Y28700
X10679Y25062
X7135Y27424
X3592Y25062
X3592Y20338
X7135Y17976
X10679Y20338
X14135Y19700
X14135Y18700
X14135Y17700
M30
