G75*
%MOIN*%
%OFA0B0*%
%FSLAX24Y24*%
%IPPOS*%
%LPD*%
%AMOC8*
5,1,8,0,0,1.08239X$1,22.5*
%
%ADD10C,0.0000*%
D10*
X001436Y004822D02*
X017184Y004822D01*
X017184Y043010D01*
X001436Y043010D01*
X001436Y004822D01*
X001928Y005806D02*
X001930Y005850D01*
X001936Y005894D01*
X001946Y005937D01*
X001959Y005979D01*
X001977Y006019D01*
X001998Y006058D01*
X002022Y006095D01*
X002049Y006130D01*
X002080Y006162D01*
X002113Y006191D01*
X002149Y006217D01*
X002187Y006239D01*
X002227Y006258D01*
X002268Y006274D01*
X002311Y006286D01*
X002354Y006294D01*
X002398Y006298D01*
X002442Y006298D01*
X002486Y006294D01*
X002529Y006286D01*
X002572Y006274D01*
X002613Y006258D01*
X002653Y006239D01*
X002691Y006217D01*
X002727Y006191D01*
X002760Y006162D01*
X002791Y006130D01*
X002818Y006095D01*
X002842Y006058D01*
X002863Y006019D01*
X002881Y005979D01*
X002894Y005937D01*
X002904Y005894D01*
X002910Y005850D01*
X002912Y005806D01*
X002910Y005762D01*
X002904Y005718D01*
X002894Y005675D01*
X002881Y005633D01*
X002863Y005593D01*
X002842Y005554D01*
X002818Y005517D01*
X002791Y005482D01*
X002760Y005450D01*
X002727Y005421D01*
X002691Y005395D01*
X002653Y005373D01*
X002613Y005354D01*
X002572Y005338D01*
X002529Y005326D01*
X002486Y005318D01*
X002442Y005314D01*
X002398Y005314D01*
X002354Y005318D01*
X002311Y005326D01*
X002268Y005338D01*
X002227Y005354D01*
X002187Y005373D01*
X002149Y005395D01*
X002113Y005421D01*
X002080Y005450D01*
X002049Y005482D01*
X002022Y005517D01*
X001998Y005554D01*
X001977Y005593D01*
X001959Y005633D01*
X001946Y005675D01*
X001936Y005718D01*
X001930Y005762D01*
X001928Y005806D01*
X015707Y005806D02*
X015709Y005850D01*
X015715Y005894D01*
X015725Y005937D01*
X015738Y005979D01*
X015756Y006019D01*
X015777Y006058D01*
X015801Y006095D01*
X015828Y006130D01*
X015859Y006162D01*
X015892Y006191D01*
X015928Y006217D01*
X015966Y006239D01*
X016006Y006258D01*
X016047Y006274D01*
X016090Y006286D01*
X016133Y006294D01*
X016177Y006298D01*
X016221Y006298D01*
X016265Y006294D01*
X016308Y006286D01*
X016351Y006274D01*
X016392Y006258D01*
X016432Y006239D01*
X016470Y006217D01*
X016506Y006191D01*
X016539Y006162D01*
X016570Y006130D01*
X016597Y006095D01*
X016621Y006058D01*
X016642Y006019D01*
X016660Y005979D01*
X016673Y005937D01*
X016683Y005894D01*
X016689Y005850D01*
X016691Y005806D01*
X016689Y005762D01*
X016683Y005718D01*
X016673Y005675D01*
X016660Y005633D01*
X016642Y005593D01*
X016621Y005554D01*
X016597Y005517D01*
X016570Y005482D01*
X016539Y005450D01*
X016506Y005421D01*
X016470Y005395D01*
X016432Y005373D01*
X016392Y005354D01*
X016351Y005338D01*
X016308Y005326D01*
X016265Y005318D01*
X016221Y005314D01*
X016177Y005314D01*
X016133Y005318D01*
X016090Y005326D01*
X016047Y005338D01*
X016006Y005354D01*
X015966Y005373D01*
X015928Y005395D01*
X015892Y005421D01*
X015859Y005450D01*
X015828Y005482D01*
X015801Y005517D01*
X015777Y005554D01*
X015756Y005593D01*
X015738Y005633D01*
X015725Y005675D01*
X015715Y005718D01*
X015709Y005762D01*
X015707Y005806D01*
X015707Y042026D02*
X015709Y042070D01*
X015715Y042114D01*
X015725Y042157D01*
X015738Y042199D01*
X015756Y042239D01*
X015777Y042278D01*
X015801Y042315D01*
X015828Y042350D01*
X015859Y042382D01*
X015892Y042411D01*
X015928Y042437D01*
X015966Y042459D01*
X016006Y042478D01*
X016047Y042494D01*
X016090Y042506D01*
X016133Y042514D01*
X016177Y042518D01*
X016221Y042518D01*
X016265Y042514D01*
X016308Y042506D01*
X016351Y042494D01*
X016392Y042478D01*
X016432Y042459D01*
X016470Y042437D01*
X016506Y042411D01*
X016539Y042382D01*
X016570Y042350D01*
X016597Y042315D01*
X016621Y042278D01*
X016642Y042239D01*
X016660Y042199D01*
X016673Y042157D01*
X016683Y042114D01*
X016689Y042070D01*
X016691Y042026D01*
X016689Y041982D01*
X016683Y041938D01*
X016673Y041895D01*
X016660Y041853D01*
X016642Y041813D01*
X016621Y041774D01*
X016597Y041737D01*
X016570Y041702D01*
X016539Y041670D01*
X016506Y041641D01*
X016470Y041615D01*
X016432Y041593D01*
X016392Y041574D01*
X016351Y041558D01*
X016308Y041546D01*
X016265Y041538D01*
X016221Y041534D01*
X016177Y041534D01*
X016133Y041538D01*
X016090Y041546D01*
X016047Y041558D01*
X016006Y041574D01*
X015966Y041593D01*
X015928Y041615D01*
X015892Y041641D01*
X015859Y041670D01*
X015828Y041702D01*
X015801Y041737D01*
X015777Y041774D01*
X015756Y041813D01*
X015738Y041853D01*
X015725Y041895D01*
X015715Y041938D01*
X015709Y041982D01*
X015707Y042026D01*
X001928Y042026D02*
X001930Y042070D01*
X001936Y042114D01*
X001946Y042157D01*
X001959Y042199D01*
X001977Y042239D01*
X001998Y042278D01*
X002022Y042315D01*
X002049Y042350D01*
X002080Y042382D01*
X002113Y042411D01*
X002149Y042437D01*
X002187Y042459D01*
X002227Y042478D01*
X002268Y042494D01*
X002311Y042506D01*
X002354Y042514D01*
X002398Y042518D01*
X002442Y042518D01*
X002486Y042514D01*
X002529Y042506D01*
X002572Y042494D01*
X002613Y042478D01*
X002653Y042459D01*
X002691Y042437D01*
X002727Y042411D01*
X002760Y042382D01*
X002791Y042350D01*
X002818Y042315D01*
X002842Y042278D01*
X002863Y042239D01*
X002881Y042199D01*
X002894Y042157D01*
X002904Y042114D01*
X002910Y042070D01*
X002912Y042026D01*
X002910Y041982D01*
X002904Y041938D01*
X002894Y041895D01*
X002881Y041853D01*
X002863Y041813D01*
X002842Y041774D01*
X002818Y041737D01*
X002791Y041702D01*
X002760Y041670D01*
X002727Y041641D01*
X002691Y041615D01*
X002653Y041593D01*
X002613Y041574D01*
X002572Y041558D01*
X002529Y041546D01*
X002486Y041538D01*
X002442Y041534D01*
X002398Y041534D01*
X002354Y041538D01*
X002311Y041546D01*
X002268Y041558D01*
X002227Y041574D01*
X002187Y041593D01*
X002149Y041615D01*
X002113Y041641D01*
X002080Y041670D01*
X002049Y041702D01*
X002022Y041737D01*
X001998Y041774D01*
X001977Y041813D01*
X001959Y041853D01*
X001946Y041895D01*
X001936Y041938D01*
X001930Y041982D01*
X001928Y042026D01*
M02*
