G75*
%MOIN*%
%OFA0B0*%
%FSLAX24Y24*%
%IPPOS*%
%LPD*%
%AMOC8*
5,1,8,0,0,1.08239X$1,22.5*
%
%ADD10C,0.0079*%
%ADD11C,0.0080*%
%ADD12C,0.0050*%
%ADD13C,0.0040*%
%ADD14C,0.0060*%
%ADD15C,0.0100*%
%ADD16C,0.0070*%
%ADD17R,0.0236X0.0394*%
D10*
X004510Y031967D02*
X014109Y031967D01*
X014109Y042365D01*
X011121Y044936D01*
X007499Y044936D01*
X004510Y042365D01*
X004510Y031967D01*
X004507Y034298D02*
X004507Y042408D01*
X005451Y042408D01*
X005451Y034298D01*
X004507Y034298D01*
X013168Y034298D02*
X013168Y042408D01*
X014113Y042408D01*
X014113Y034298D01*
X013168Y034298D01*
D11*
X013130Y032770D02*
X013130Y032420D01*
X013060Y032350D01*
X012920Y032350D01*
X012850Y032420D01*
X012850Y032770D01*
X013310Y032630D02*
X013450Y032770D01*
X013450Y032350D01*
X013310Y032350D02*
X013590Y032350D01*
X011792Y030573D02*
X011292Y030573D01*
X011292Y026573D02*
X011792Y026573D01*
X004203Y026780D02*
X004203Y026280D01*
X003953Y026030D01*
X002453Y026030D01*
X002203Y026280D01*
X002203Y026780D01*
X002453Y027030D01*
X003953Y027030D01*
X004203Y026780D01*
X003953Y026030D02*
X004203Y025780D01*
X004203Y025280D01*
X003953Y025030D01*
X002453Y025030D01*
X002203Y025280D01*
X002203Y025780D01*
X002453Y026030D01*
X002453Y025030D02*
X002203Y024780D01*
X002203Y024280D01*
X002453Y024030D01*
X003953Y024030D01*
X004203Y024280D01*
X004203Y024780D01*
X003953Y025030D01*
X004335Y024780D02*
X004335Y024280D01*
X003342Y028061D02*
X003342Y028481D01*
X003062Y028481D02*
X003342Y028061D01*
X003062Y028061D02*
X003062Y028481D01*
X002882Y028411D02*
X002882Y028271D01*
X002812Y028201D01*
X002602Y028201D01*
X002742Y028201D02*
X002882Y028061D01*
X002602Y028061D02*
X002602Y028481D01*
X002812Y028481D01*
X002882Y028411D01*
X002422Y028411D02*
X002352Y028481D01*
X002211Y028481D01*
X002141Y028411D01*
X002141Y028131D01*
X002211Y028061D01*
X002352Y028061D01*
X002422Y028131D01*
X002422Y028271D01*
X002281Y028271D01*
X002352Y034761D02*
X002141Y034761D01*
X002141Y035181D01*
X002352Y035181D01*
X002422Y035111D01*
X002422Y035041D01*
X002352Y034971D01*
X002141Y034971D01*
X002352Y034971D02*
X002422Y034901D01*
X002422Y034831D01*
X002352Y034761D01*
X002602Y034761D02*
X002882Y034761D01*
X003062Y034761D02*
X003062Y035181D01*
X003132Y034971D02*
X003342Y034761D01*
X003062Y034901D02*
X003342Y035181D01*
X002602Y035181D02*
X002602Y034761D01*
X013473Y015900D02*
X013973Y015900D01*
X014223Y015650D01*
X014223Y015150D01*
X013973Y014900D01*
X014223Y014650D01*
X014223Y014150D01*
X013973Y013900D01*
X014223Y013650D01*
X014223Y013150D01*
X013973Y012900D01*
X014223Y012650D01*
X014223Y012150D01*
X013973Y011900D01*
X013473Y011900D01*
X013223Y012150D01*
X013223Y012650D01*
X013473Y012900D01*
X013223Y013150D01*
X013223Y013650D01*
X013473Y013900D01*
X013223Y014150D01*
X013223Y014650D01*
X013473Y014900D01*
X013223Y015150D01*
X013223Y015650D01*
X013473Y015900D01*
D12*
X006022Y009117D02*
X006022Y002869D01*
X012597Y002869D01*
X012597Y009117D01*
X006022Y009117D01*
X004310Y010928D02*
X004310Y004428D01*
X014310Y004428D01*
X014310Y010928D01*
X004310Y010928D01*
X004211Y011814D02*
X004211Y014144D01*
X005983Y014144D01*
X005983Y011814D01*
X004211Y011814D01*
X004292Y012983D02*
X004367Y013058D01*
X004367Y013208D01*
X004292Y013283D01*
X004292Y013444D02*
X004367Y013519D01*
X004367Y013669D01*
X004292Y013744D01*
X004217Y013744D01*
X004142Y013669D01*
X004142Y013594D01*
X004142Y013669D02*
X004067Y013744D01*
X003992Y013744D01*
X003917Y013669D01*
X003917Y013519D01*
X003992Y013444D01*
X003992Y013283D02*
X003917Y013208D01*
X003917Y013058D01*
X003992Y012983D01*
X004292Y012983D01*
X008338Y013058D02*
X008413Y012983D01*
X008714Y012983D01*
X008789Y013058D01*
X008789Y013208D01*
X008714Y013283D01*
X008789Y013444D02*
X008488Y013744D01*
X008413Y013744D01*
X008338Y013669D01*
X008338Y013519D01*
X008413Y013444D01*
X008413Y013283D02*
X008338Y013208D01*
X008338Y013058D01*
X008789Y013444D02*
X008789Y013744D01*
X008699Y012365D02*
X008699Y015908D01*
X009881Y016105D01*
X010668Y015908D01*
X010668Y012365D01*
X009881Y012168D01*
X008699Y012365D01*
X012528Y012356D02*
X012528Y012581D01*
X012603Y012656D01*
X012753Y012656D01*
X012828Y012581D01*
X012828Y012356D01*
X012978Y012356D02*
X012528Y012356D01*
X012528Y012196D02*
X012528Y012045D01*
X012528Y012120D02*
X012903Y012120D01*
X012978Y012045D01*
X012978Y011970D01*
X012903Y011895D01*
X012903Y012816D02*
X012978Y012891D01*
X012978Y013041D01*
X012903Y013116D01*
X012828Y013116D01*
X012753Y013041D01*
X012753Y012966D01*
X012753Y013041D02*
X012678Y013116D01*
X012603Y013116D01*
X012528Y013041D01*
X012528Y012891D01*
X012603Y012816D01*
X012829Y017298D02*
X010514Y017298D01*
X010514Y019613D01*
X012829Y019613D01*
X012829Y017298D01*
X012414Y017589D02*
X012416Y017611D01*
X012421Y017631D01*
X012431Y017651D01*
X012443Y017669D01*
X012458Y017684D01*
X012476Y017696D01*
X012496Y017706D01*
X012516Y017711D01*
X012538Y017713D01*
X012560Y017711D01*
X012580Y017706D01*
X012600Y017696D01*
X012618Y017684D01*
X012633Y017669D01*
X012645Y017651D01*
X012655Y017631D01*
X012660Y017611D01*
X012662Y017589D01*
X012660Y017567D01*
X012655Y017547D01*
X012645Y017527D01*
X012633Y017509D01*
X012618Y017494D01*
X012600Y017482D01*
X012580Y017472D01*
X012560Y017467D01*
X012538Y017465D01*
X012516Y017467D01*
X012496Y017472D01*
X012476Y017482D01*
X012458Y017494D01*
X012443Y017509D01*
X012431Y017527D01*
X012421Y017547D01*
X012416Y017567D01*
X012414Y017589D01*
X011003Y018455D02*
X011005Y018506D01*
X011011Y018557D01*
X011021Y018607D01*
X011034Y018657D01*
X011052Y018705D01*
X011072Y018752D01*
X011097Y018797D01*
X011125Y018840D01*
X011156Y018881D01*
X011190Y018919D01*
X011227Y018954D01*
X011266Y018987D01*
X011308Y019017D01*
X011352Y019043D01*
X011398Y019065D01*
X011446Y019085D01*
X011495Y019100D01*
X011545Y019112D01*
X011595Y019120D01*
X011646Y019124D01*
X011698Y019124D01*
X011749Y019120D01*
X011799Y019112D01*
X011849Y019100D01*
X011898Y019085D01*
X011946Y019065D01*
X011992Y019043D01*
X012036Y019017D01*
X012078Y018987D01*
X012117Y018954D01*
X012154Y018919D01*
X012188Y018881D01*
X012219Y018840D01*
X012247Y018797D01*
X012272Y018752D01*
X012292Y018705D01*
X012310Y018657D01*
X012323Y018607D01*
X012333Y018557D01*
X012339Y018506D01*
X012341Y018455D01*
X012339Y018404D01*
X012333Y018353D01*
X012323Y018303D01*
X012310Y018253D01*
X012292Y018205D01*
X012272Y018158D01*
X012247Y018113D01*
X012219Y018070D01*
X012188Y018029D01*
X012154Y017991D01*
X012117Y017956D01*
X012078Y017923D01*
X012036Y017893D01*
X011992Y017867D01*
X011946Y017845D01*
X011898Y017825D01*
X011849Y017810D01*
X011799Y017798D01*
X011749Y017790D01*
X011698Y017786D01*
X011646Y017786D01*
X011595Y017790D01*
X011545Y017798D01*
X011495Y017810D01*
X011446Y017825D01*
X011398Y017845D01*
X011352Y017867D01*
X011308Y017893D01*
X011266Y017923D01*
X011227Y017956D01*
X011190Y017991D01*
X011156Y018029D01*
X011125Y018070D01*
X011097Y018113D01*
X011072Y018158D01*
X011052Y018205D01*
X011034Y018253D01*
X011021Y018303D01*
X011011Y018353D01*
X011005Y018404D01*
X011003Y018455D01*
X010682Y017589D02*
X010684Y017611D01*
X010689Y017631D01*
X010699Y017651D01*
X010711Y017669D01*
X010726Y017684D01*
X010744Y017696D01*
X010764Y017706D01*
X010784Y017711D01*
X010806Y017713D01*
X010828Y017711D01*
X010848Y017706D01*
X010868Y017696D01*
X010886Y017684D01*
X010901Y017669D01*
X010913Y017651D01*
X010923Y017631D01*
X010928Y017611D01*
X010930Y017589D01*
X010928Y017567D01*
X010923Y017547D01*
X010913Y017527D01*
X010901Y017509D01*
X010886Y017494D01*
X010868Y017482D01*
X010848Y017472D01*
X010828Y017467D01*
X010806Y017465D01*
X010784Y017467D01*
X010764Y017472D01*
X010744Y017482D01*
X010726Y017494D01*
X010711Y017509D01*
X010699Y017527D01*
X010689Y017547D01*
X010684Y017567D01*
X010682Y017589D01*
X010682Y019322D02*
X010684Y019344D01*
X010689Y019364D01*
X010699Y019384D01*
X010711Y019402D01*
X010726Y019417D01*
X010744Y019429D01*
X010764Y019439D01*
X010784Y019444D01*
X010806Y019446D01*
X010828Y019444D01*
X010848Y019439D01*
X010868Y019429D01*
X010886Y019417D01*
X010901Y019402D01*
X010913Y019384D01*
X010923Y019364D01*
X010928Y019344D01*
X010930Y019322D01*
X010928Y019300D01*
X010923Y019280D01*
X010913Y019260D01*
X010901Y019242D01*
X010886Y019227D01*
X010868Y019215D01*
X010848Y019205D01*
X010828Y019200D01*
X010806Y019198D01*
X010784Y019200D01*
X010764Y019205D01*
X010744Y019215D01*
X010726Y019227D01*
X010711Y019242D01*
X010699Y019260D01*
X010689Y019280D01*
X010684Y019300D01*
X010682Y019322D01*
X012414Y019322D02*
X012416Y019344D01*
X012421Y019364D01*
X012431Y019384D01*
X012443Y019402D01*
X012458Y019417D01*
X012476Y019429D01*
X012496Y019439D01*
X012516Y019444D01*
X012538Y019446D01*
X012560Y019444D01*
X012580Y019439D01*
X012600Y019429D01*
X012618Y019417D01*
X012633Y019402D01*
X012645Y019384D01*
X012655Y019364D01*
X012660Y019344D01*
X012662Y019322D01*
X012660Y019300D01*
X012655Y019280D01*
X012645Y019260D01*
X012633Y019242D01*
X012618Y019227D01*
X012600Y019215D01*
X012580Y019205D01*
X012560Y019200D01*
X012538Y019198D01*
X012516Y019200D01*
X012496Y019205D01*
X012476Y019215D01*
X012458Y019227D01*
X012443Y019242D01*
X012431Y019260D01*
X012421Y019280D01*
X012416Y019300D01*
X012414Y019322D01*
X013660Y017668D02*
X014566Y017471D01*
X015235Y017668D01*
X015235Y029479D01*
X014566Y029676D01*
X013660Y029479D01*
X013660Y017668D01*
X010753Y021462D02*
X010828Y021537D01*
X010828Y021612D01*
X010753Y021687D01*
X010377Y021687D01*
X010377Y021612D02*
X010377Y021763D01*
X010377Y021923D02*
X010377Y022148D01*
X010452Y022223D01*
X010602Y022223D01*
X010677Y022148D01*
X010677Y021923D01*
X010828Y021923D02*
X010377Y021923D01*
X010602Y022383D02*
X010602Y022683D01*
X010377Y022608D02*
X010828Y022608D01*
X010602Y022383D02*
X010377Y022608D01*
X012187Y022919D02*
X012244Y022862D01*
X012187Y022919D02*
X012187Y023032D01*
X012244Y023089D01*
X012301Y023089D01*
X012528Y022862D01*
X012528Y023089D01*
X012471Y023862D02*
X012528Y023919D01*
X012528Y024032D01*
X012471Y024089D01*
X012414Y024089D01*
X012357Y024032D01*
X012357Y023976D01*
X012357Y024032D02*
X012301Y024089D01*
X012244Y024089D01*
X012187Y024032D01*
X012187Y023919D01*
X012244Y023862D01*
X012528Y022089D02*
X012528Y021862D01*
X012528Y021976D02*
X012187Y021976D01*
X012301Y021862D01*
X010472Y026568D02*
X010547Y026644D01*
X010547Y026719D01*
X010472Y026794D01*
X010097Y026794D01*
X010097Y026719D02*
X010097Y026869D01*
X010097Y027029D02*
X010097Y027254D01*
X010172Y027329D01*
X010322Y027329D01*
X010397Y027254D01*
X010397Y027029D01*
X010547Y027029D02*
X010097Y027029D01*
X010247Y027489D02*
X010097Y027639D01*
X010547Y027639D01*
X010547Y027489D02*
X010547Y027790D01*
X003633Y028621D02*
X002633Y028621D01*
X002633Y034621D01*
X003633Y034621D01*
X003633Y028621D01*
X002508Y028746D02*
X002508Y028881D01*
X002463Y028926D01*
X002282Y028926D01*
X002237Y028881D01*
X002237Y028746D01*
X002508Y028746D01*
X002508Y029130D02*
X002237Y029130D01*
X002237Y029040D02*
X002237Y029221D01*
X002237Y029335D02*
X002237Y029470D01*
X002282Y029515D01*
X002372Y029515D01*
X002417Y029470D01*
X002417Y029335D01*
X002417Y029425D02*
X002508Y029515D01*
X002508Y029335D02*
X002237Y029335D01*
X002237Y029746D02*
X002237Y029926D01*
X002237Y029836D02*
X002508Y029836D01*
X002508Y030040D02*
X002237Y030221D01*
X002282Y030335D02*
X002237Y030380D01*
X002237Y030470D01*
X002282Y030515D01*
X002463Y030515D01*
X002508Y030470D01*
X002508Y030380D01*
X002463Y030335D01*
X002282Y030335D01*
X002508Y030221D02*
X002237Y030040D01*
X002237Y030746D02*
X002237Y030881D01*
X002282Y030926D01*
X002372Y030926D01*
X002417Y030881D01*
X002417Y030746D01*
X002417Y030836D02*
X002508Y030926D01*
X002508Y031040D02*
X002237Y031221D01*
X002237Y031335D02*
X002237Y031425D01*
X002237Y031380D02*
X002508Y031380D01*
X002508Y031335D02*
X002508Y031425D01*
X002508Y031221D02*
X002237Y031040D01*
X002237Y030746D02*
X002508Y030746D01*
X002417Y031746D02*
X002237Y031746D01*
X002237Y031926D02*
X002417Y031926D01*
X002508Y031836D01*
X002417Y031746D01*
X002463Y032040D02*
X002508Y032085D01*
X002508Y032176D01*
X002463Y032221D01*
X002463Y032335D02*
X002508Y032380D01*
X002508Y032470D01*
X002463Y032515D01*
X002463Y032335D02*
X002282Y032335D01*
X002237Y032380D01*
X002237Y032470D01*
X002282Y032515D01*
X002282Y032746D02*
X002463Y032746D01*
X002508Y032791D01*
X002508Y032881D01*
X002463Y032926D01*
X002282Y032926D02*
X002237Y032881D01*
X002237Y032791D01*
X002282Y032746D01*
X002237Y033040D02*
X002237Y033221D01*
X002237Y033130D02*
X002508Y033130D01*
X002463Y033335D02*
X002508Y033380D01*
X002508Y033470D01*
X002463Y033515D01*
X002417Y033515D01*
X002372Y033470D01*
X002372Y033380D01*
X002327Y033335D01*
X002282Y033335D01*
X002237Y033380D01*
X002237Y033470D01*
X002282Y033515D01*
X002282Y033746D02*
X002463Y033746D01*
X002508Y033791D01*
X002508Y033881D01*
X002463Y033926D01*
X002372Y033926D01*
X002372Y033836D01*
X002282Y033926D02*
X002237Y033881D01*
X002237Y033791D01*
X002282Y033746D01*
X002237Y034040D02*
X002508Y034221D01*
X002237Y034221D01*
X002237Y034335D02*
X002237Y034470D01*
X002282Y034515D01*
X002463Y034515D01*
X002508Y034470D01*
X002508Y034335D01*
X002237Y034335D01*
X002237Y034040D02*
X002508Y034040D01*
X002282Y032221D02*
X002237Y032176D01*
X002237Y032085D01*
X002282Y032040D01*
X002463Y032040D01*
X001928Y024816D02*
X001928Y024516D01*
X001928Y024666D02*
X001478Y024666D01*
X001628Y024516D01*
X001478Y024355D02*
X001478Y024205D01*
X001478Y024280D02*
X001853Y024280D01*
X001928Y024205D01*
X001928Y024130D01*
X001853Y024055D01*
D13*
X013062Y028865D02*
X013215Y028712D01*
X013062Y028865D02*
X013522Y028865D01*
X013522Y028712D02*
X013522Y029019D01*
X013522Y029172D02*
X013215Y029479D01*
X013138Y029479D01*
X013062Y029402D01*
X013062Y029249D01*
X013138Y029172D01*
X013522Y029172D02*
X013522Y029479D01*
X013522Y018270D02*
X013522Y017964D01*
X013522Y018117D02*
X013062Y018117D01*
X013215Y017964D01*
X009376Y015578D02*
X009376Y015271D01*
X009376Y015424D02*
X008916Y015424D01*
X009069Y015271D01*
X008392Y014200D02*
X008392Y013893D01*
X008392Y014046D02*
X007932Y014046D01*
X008085Y013893D01*
X008008Y013739D02*
X008162Y013739D01*
X008239Y013663D01*
X008239Y013433D01*
X008392Y013433D02*
X007932Y013433D01*
X007932Y013663D01*
X008008Y013739D01*
X005560Y009908D02*
X005637Y009831D01*
X005637Y009755D01*
X005560Y009678D01*
X005406Y009678D01*
X005330Y009755D01*
X005330Y009831D01*
X005406Y009908D01*
X005560Y009908D01*
X005560Y009678D02*
X005637Y009601D01*
X005637Y009525D01*
X005560Y009448D01*
X005406Y009448D01*
X005330Y009525D01*
X005330Y009601D01*
X005406Y009678D01*
X012330Y009755D02*
X012483Y009908D01*
X012483Y009448D01*
X012330Y009448D02*
X012637Y009448D01*
D14*
X008214Y012129D02*
X008214Y013829D01*
X008212Y013846D01*
X008208Y013863D01*
X008201Y013879D01*
X008191Y013893D01*
X008178Y013906D01*
X008164Y013916D01*
X008148Y013923D01*
X008131Y013927D01*
X008114Y013929D01*
X006514Y013929D01*
X006497Y013927D01*
X006480Y013923D01*
X006464Y013916D01*
X006450Y013906D01*
X006437Y013893D01*
X006427Y013879D01*
X006420Y013863D01*
X006416Y013846D01*
X006414Y013829D01*
X006414Y012129D01*
X006416Y012112D01*
X006420Y012095D01*
X006427Y012079D01*
X006437Y012065D01*
X006450Y012052D01*
X006464Y012042D01*
X006480Y012035D01*
X006497Y012031D01*
X006514Y012029D01*
X008114Y012029D01*
X008131Y012031D01*
X008148Y012035D01*
X008164Y012042D01*
X008178Y012052D01*
X008191Y012065D01*
X008201Y012079D01*
X008208Y012095D01*
X008212Y012112D01*
X008214Y012129D01*
X007314Y012829D02*
X007314Y012879D01*
X007314Y013079D02*
X007314Y013129D01*
X003792Y013829D02*
X003792Y012129D01*
X003790Y012112D01*
X003786Y012095D01*
X003779Y012079D01*
X003769Y012065D01*
X003756Y012052D01*
X003742Y012042D01*
X003726Y012035D01*
X003709Y012031D01*
X003692Y012029D01*
X002092Y012029D01*
X002075Y012031D01*
X002058Y012035D01*
X002042Y012042D01*
X002028Y012052D01*
X002015Y012065D01*
X002005Y012079D01*
X001998Y012095D01*
X001994Y012112D01*
X001992Y012129D01*
X001992Y013829D01*
X001994Y013846D01*
X001998Y013863D01*
X002005Y013879D01*
X002015Y013893D01*
X002028Y013906D01*
X002042Y013916D01*
X002058Y013923D01*
X002075Y013927D01*
X002092Y013929D01*
X003692Y013929D01*
X003709Y013927D01*
X003726Y013923D01*
X003742Y013916D01*
X003756Y013906D01*
X003769Y013893D01*
X003779Y013879D01*
X003786Y013863D01*
X003790Y013846D01*
X003792Y013829D01*
X002892Y013129D02*
X002892Y013079D01*
X002892Y012879D02*
X002892Y012829D01*
X005481Y016773D02*
X005481Y031373D01*
X007681Y031373D01*
X007681Y016773D01*
X006831Y016773D01*
X006829Y016803D01*
X006824Y016833D01*
X006815Y016862D01*
X006802Y016889D01*
X006787Y016915D01*
X006768Y016939D01*
X006747Y016960D01*
X006723Y016979D01*
X006697Y016994D01*
X006670Y017007D01*
X006641Y017016D01*
X006611Y017021D01*
X006581Y017023D01*
X006551Y017021D01*
X006521Y017016D01*
X006492Y017007D01*
X006465Y016994D01*
X006439Y016979D01*
X006415Y016960D01*
X006394Y016939D01*
X006375Y016915D01*
X006360Y016889D01*
X006347Y016862D01*
X006338Y016833D01*
X006333Y016803D01*
X006331Y016773D01*
X005481Y016773D01*
X011003Y021437D02*
X011003Y022237D01*
X011103Y022337D01*
X011003Y022437D01*
X011003Y023237D01*
X011103Y023337D01*
X011003Y023437D01*
X011003Y024237D01*
X011103Y024337D01*
X011903Y024337D01*
X012003Y024237D01*
X012003Y023437D01*
X011903Y023337D01*
X012003Y023237D01*
X012003Y022437D01*
X011903Y022337D01*
X012003Y022237D01*
X012003Y021437D01*
X011903Y021337D01*
X011103Y021337D01*
X011003Y021437D01*
D15*
X007614Y013079D02*
X007314Y013079D01*
X007014Y013079D01*
X007014Y012879D02*
X007314Y012879D01*
X007614Y012879D01*
X003192Y012879D02*
X002892Y012879D01*
X002592Y012879D01*
X002592Y013079D02*
X002892Y013079D01*
X003192Y013079D01*
D16*
X003667Y013048D02*
X003739Y013119D01*
X003811Y013119D01*
X004098Y012832D01*
X004098Y013119D01*
X003667Y013048D02*
X003667Y012904D01*
X003739Y012832D01*
X003667Y012659D02*
X004098Y012659D01*
X003667Y012372D01*
X004098Y012372D01*
X004026Y012199D02*
X004098Y012127D01*
X004098Y011983D01*
X004026Y011912D01*
X003739Y011912D01*
X003667Y011983D01*
X003667Y012127D01*
X003739Y012199D01*
X005898Y015848D02*
X006108Y015848D01*
X006003Y015848D02*
X006003Y016479D01*
X005898Y016479D02*
X006108Y016479D01*
X006327Y016374D02*
X006327Y015954D01*
X006432Y015848D01*
X006643Y015848D01*
X006748Y015954D01*
X006972Y015848D02*
X007392Y015848D01*
X007182Y015848D02*
X007182Y016479D01*
X006972Y016269D01*
X006748Y016374D02*
X006643Y016479D01*
X006432Y016479D01*
X006327Y016374D01*
D17*
X010688Y017117D03*
X012656Y017117D03*
X012656Y019794D03*
X010688Y019794D03*
M02*
