G75*
%MOIN*%
%OFA0B0*%
%FSLAX24Y24*%
%IPPOS*%
%LPD*%
%AMOC8*
5,1,8,0,0,1.08239X$1,22.5*
%
%ADD10C,0.0554*%
%ADD11C,0.0594*%
%ADD12C,0.0650*%
%ADD13OC8,0.0520*%
%ADD14OC8,0.0740*%
%ADD15C,0.0520*%
%ADD16R,0.0594X0.0594*%
%ADD17C,0.0594*%
%ADD18C,0.0515*%
%ADD19R,0.0740X0.0740*%
%ADD20C,0.0740*%
D10*
X004979Y034810D03*
X004979Y035597D03*
X004979Y036385D03*
X004979Y037172D03*
X004979Y037959D03*
X004979Y038747D03*
X004979Y039534D03*
X004979Y040322D03*
X004979Y041109D03*
X004979Y041896D03*
X013640Y041896D03*
X013640Y041109D03*
X013640Y040322D03*
X013640Y039534D03*
X013640Y038747D03*
X013640Y037959D03*
X013640Y037172D03*
X013640Y036385D03*
X013640Y035597D03*
X013640Y034810D03*
D11*
X011839Y030073D02*
X011245Y030073D01*
X011245Y029073D02*
X011839Y029073D01*
X011839Y028073D02*
X011245Y028073D01*
X011245Y027073D02*
X011839Y027073D01*
X011799Y023837D02*
X011206Y023837D01*
X011206Y022837D02*
X011799Y022837D01*
X011799Y021837D02*
X011206Y021837D01*
X010177Y015636D02*
X009584Y015636D01*
X009584Y014636D02*
X010177Y014636D01*
X010177Y013636D02*
X009584Y013636D01*
X009584Y012636D02*
X010177Y012636D01*
D12*
X014566Y018073D03*
X014566Y019073D03*
X014566Y020073D03*
X014566Y021073D03*
X014566Y022073D03*
X014566Y023073D03*
X014566Y024073D03*
X014566Y025073D03*
X014566Y026073D03*
X014566Y027073D03*
X014566Y028073D03*
X014566Y029073D03*
D13*
X007314Y013479D03*
X007314Y012479D03*
X002892Y012479D03*
X002892Y013479D03*
D14*
X002703Y024530D03*
X003703Y024530D03*
X003703Y025530D03*
X002703Y025530D03*
X002703Y026530D03*
X003703Y026530D03*
D15*
X004821Y026573D02*
X005341Y026573D01*
X005341Y025573D02*
X004821Y025573D01*
X004821Y024573D02*
X005341Y024573D01*
X005341Y023573D02*
X004821Y023573D01*
X004821Y022573D02*
X005341Y022573D01*
X005341Y021573D02*
X004821Y021573D01*
X004821Y020573D02*
X005341Y020573D01*
X005341Y019573D02*
X004821Y019573D01*
X004821Y018573D02*
X005341Y018573D01*
X005341Y017573D02*
X004821Y017573D01*
X007821Y017573D02*
X008341Y017573D01*
X008341Y018573D02*
X007821Y018573D01*
X007821Y019573D02*
X008341Y019573D01*
X008341Y020573D02*
X007821Y020573D01*
X007821Y021573D02*
X008341Y021573D01*
X008341Y022573D02*
X007821Y022573D01*
X007821Y023573D02*
X008341Y023573D01*
X008341Y024573D02*
X007821Y024573D01*
X007821Y025573D02*
X008341Y025573D01*
X008341Y026573D02*
X007821Y026573D01*
X007821Y027573D02*
X008341Y027573D01*
X008341Y028573D02*
X007821Y028573D01*
X007821Y029573D02*
X008341Y029573D01*
X008341Y030573D02*
X007821Y030573D01*
X005341Y030573D02*
X004821Y030573D01*
X004821Y029573D02*
X005341Y029573D01*
X005341Y028573D02*
X004821Y028573D01*
X004821Y027573D02*
X005341Y027573D01*
D16*
X005810Y010428D03*
D17*
X006810Y010428D03*
X007810Y010428D03*
X008810Y010428D03*
X009810Y010428D03*
X010810Y010428D03*
X011810Y010428D03*
X012810Y010428D03*
X005314Y012585D03*
X005314Y013373D03*
X010672Y016955D03*
X012672Y016955D03*
X012672Y019955D03*
X010672Y019955D03*
D18*
X004810Y005428D03*
X013810Y005428D03*
D19*
X013723Y012400D03*
X003133Y029121D03*
D20*
X003133Y030121D03*
X003133Y031121D03*
X003133Y032121D03*
X003133Y033121D03*
X003133Y034121D03*
X013723Y015400D03*
X013723Y014400D03*
X013723Y013400D03*
M02*
