%
M48
M72
T01C0.0315
T02C0.0320
T03C0.0354
T04C0.0394
T05C0.0400
T06C0.0433
T07C0.0984
%
T01
X4810Y5428
X13810Y5428
T02
X7314Y12479
X7314Y13479
X2892Y13479
X2892Y12479
X5081Y17573
X5081Y18573
X5081Y19573
X5081Y20573
X5081Y21573
X5081Y22573
X5081Y23573
X5081Y24573
X5081Y25573
X5081Y26573
X5081Y27573
X5081Y28573
X5081Y29573
X5081Y30573
X8081Y30573
X8081Y29573
X8081Y28573
X8081Y27573
X8081Y26573
X8081Y25573
X8081Y24573
X8081Y23573
X8081Y22573
X8081Y21573
X8081Y20573
X8081Y19573
X8081Y18573
X8081Y17573
T03
X4979Y34810
X4979Y35597
X4979Y36385
X4979Y37172
X4979Y37959
X4979Y38747
X4979Y39534
X4979Y40322
X4979Y41109
X4979Y41896
X13640Y41896
X13640Y41109
X13640Y40322
X13640Y39534
X13640Y38747
X13640Y37959
X13640Y37172
X13640Y36385
X13640Y35597
X13640Y34810
T04
X11542Y30073
X11542Y29073
X11542Y28073
X11542Y27073
X11503Y23837
X11503Y22837
X11503Y21837
X10672Y19955
X12672Y19955
X12672Y16955
X10672Y16955
X9881Y15636
X9881Y14636
X9881Y13636
X9881Y12636
X9810Y10428
X8810Y10428
X7810Y10428
X6810Y10428
X5810Y10428
X5314Y12585
X5314Y13373
X10810Y10428
X11810Y10428
X12810Y10428
T05
X13723Y12400
X13723Y13400
X13723Y14400
X13723Y15400
X3703Y24530
X2703Y24530
X2703Y25530
X3703Y25530
X3703Y26530
X2703Y26530
X3133Y29121
X3133Y30121
X3133Y31121
X3133Y32121
X3133Y33121
X3133Y34121
T06
X14566Y29073
X14566Y28073
X14566Y27073
X14566Y26073
X14566Y25073
X14566Y24073
X14566Y23073
X14566Y22073
X14566Y21073
X14566Y20073
X14566Y19073
X14566Y18073
T07
X2420Y5806
X16199Y5806
X16199Y42026
X2420Y42026
M30
