%
M48
M72
T01C0.0320
T02C0.0354
T03C0.0394
T04C0.0433
%
T01
X12135Y20200
X12135Y24200
X12135Y25003
X12135Y29003
X16635Y27200
X17635Y27200
X17635Y18700
X16635Y18700
T02
X3305Y7613
X3305Y8401
X3305Y9188
X3305Y9976
X3305Y10763
X3305Y11550
X3305Y12338
X3305Y13125
X3305Y13913
X3305Y14700
X11966Y14700
X11966Y13913
X11966Y13125
X11966Y12338
X11966Y11550
X11966Y10763
X11966Y9976
X11966Y9188
X11966Y8401
X11966Y7613
T03
X16045Y8003
X16045Y7003
X16045Y6003
X16045Y5003
X16045Y4003
X17045Y4003
X17045Y5003
X17045Y6003
X17045Y7003
X17045Y8003
X17045Y9003
X17045Y10003
X17045Y11003
X16045Y11003
X16045Y10003
X16045Y9003
X18045Y9003
X18045Y10003
X18045Y11003
X18045Y12003
X18045Y13003
X19045Y13003
X19045Y12003
X19045Y11003
X19045Y10003
X19045Y9003
X19045Y8003
X19045Y7003
X19045Y6003
X19045Y5003
X19045Y4003
X20045Y4003
X20045Y5003
X20045Y6003
X20045Y7003
X20045Y8003
X20045Y9003
X20045Y10003
X20045Y11003
X20045Y12003
X20045Y13003
X20135Y15700
X20135Y16700
X20135Y17700
X20135Y18700
X20135Y19700
X20135Y20700
X20135Y22700
X20135Y23700
X20135Y24700
X20135Y25700
X20135Y26700
X20135Y27700
X17135Y24200
X17135Y23200
X17135Y22200
X17135Y21200
X17045Y13003
X17045Y12003
X16045Y12003
X16045Y13003
X18045Y8003
X18045Y7003
X18045Y6003
X18045Y5003
X18045Y4003
X1135Y12100
X1135Y13100
X1135Y14100
X1135Y15100
X1135Y16100
X1135Y17100
X1135Y18100
X1135Y19100
X1135Y20700
X1135Y21700
X1135Y22700
X1135Y23700
X1135Y24700
X1135Y25700
X1135Y26700
X1135Y27700
T04
X3592Y25062
X3592Y20338
X7135Y17976
X10679Y20338
X10679Y25062
X14135Y24700
X14135Y23700
X14135Y22700
X14135Y21700
X14135Y20700
X14135Y19700
X14135Y18700
X14135Y17700
X14135Y25700
X14135Y26700
X14135Y27700
X14135Y28700
X7135Y27424
M30
