G75*
%MOIN*%
%OFA0B0*%
%FSLAX24Y24*%
%IPPOS*%
%LPD*%
%AMOC8*
5,1,8,0,0,1.08239X$1,22.5*
%
%ADD10C,0.0030*%
%ADD11C,0.0079*%
%ADD12C,0.0080*%
%ADD13C,0.0050*%
%ADD14C,0.0040*%
%ADD15C,0.0060*%
%ADD16R,0.0240X0.0340*%
%ADD17R,0.0551X0.0256*%
%ADD18C,0.0100*%
D10*
X001774Y011115D02*
X001650Y011238D01*
X001774Y011361D01*
X002020Y011361D01*
X002020Y011483D02*
X001650Y011483D01*
X001650Y011668D01*
X001712Y011730D01*
X001835Y011730D01*
X001897Y011668D01*
X001897Y011483D01*
X001897Y011606D02*
X002020Y011730D01*
X001959Y011851D02*
X001835Y011851D01*
X001774Y011913D01*
X001774Y012036D01*
X001835Y012098D01*
X001897Y012098D01*
X001897Y011851D01*
X001959Y011851D02*
X002020Y011913D01*
X002020Y012036D01*
X002020Y012281D02*
X001712Y012281D01*
X001650Y012343D01*
X001835Y012343D02*
X001835Y012219D01*
X001835Y012610D02*
X001959Y012610D01*
X002020Y012672D01*
X002020Y012857D01*
X002082Y012857D02*
X001774Y012857D01*
X001774Y012672D01*
X001835Y012610D01*
X002144Y012733D02*
X002144Y012795D01*
X002082Y012857D01*
X002020Y012978D02*
X001774Y012978D01*
X001774Y013164D01*
X001835Y013225D01*
X002020Y013225D01*
X001959Y013347D02*
X001835Y013347D01*
X001774Y013408D01*
X001774Y013594D01*
X001650Y013594D02*
X002020Y013594D01*
X002020Y013408D01*
X001959Y013347D01*
X002020Y013828D02*
X002020Y014075D01*
X002020Y013952D02*
X001650Y013952D01*
X001774Y013828D01*
X001712Y014197D02*
X001650Y014258D01*
X001650Y014382D01*
X001712Y014444D01*
X001774Y014444D01*
X001835Y014382D01*
X001897Y014444D01*
X001959Y014444D01*
X002020Y014382D01*
X002020Y014258D01*
X001959Y014197D01*
X001835Y014320D02*
X001835Y014382D01*
X001774Y014828D02*
X001650Y014952D01*
X002020Y014952D01*
X002020Y015075D02*
X002020Y014828D01*
X002020Y015197D02*
X001774Y015444D01*
X001712Y015444D01*
X001650Y015382D01*
X001650Y015258D01*
X001712Y015197D01*
X002020Y015197D02*
X002020Y015444D01*
X002020Y015828D02*
X002020Y016075D01*
X002020Y016197D02*
X002020Y016444D01*
X002020Y016320D02*
X001650Y016320D01*
X001774Y016197D01*
X001650Y015952D02*
X002020Y015952D01*
X001774Y015828D02*
X001650Y015952D01*
X001774Y016828D02*
X001650Y016952D01*
X002020Y016952D01*
X002020Y017075D02*
X002020Y016828D01*
X001959Y017197D02*
X001712Y017444D01*
X001959Y017444D01*
X002020Y017382D01*
X002020Y017258D01*
X001959Y017197D01*
X001712Y017197D01*
X001650Y017258D01*
X001650Y017382D01*
X001712Y017444D01*
X001712Y017997D02*
X001774Y017997D01*
X001835Y018058D01*
X001835Y018244D01*
X001712Y018244D02*
X001650Y018182D01*
X001650Y018058D01*
X001712Y017997D01*
X001712Y018244D02*
X001959Y018244D01*
X002020Y018182D01*
X002020Y018058D01*
X001959Y017997D01*
X001959Y018997D02*
X001897Y018997D01*
X001835Y019058D01*
X001835Y019182D01*
X001897Y019244D01*
X001959Y019244D01*
X002020Y019182D01*
X002020Y019058D01*
X001959Y018997D01*
X001835Y019058D02*
X001774Y018997D01*
X001712Y018997D01*
X001650Y019058D01*
X001650Y019182D01*
X001712Y019244D01*
X001774Y019244D01*
X001835Y019182D01*
X001959Y020597D02*
X002020Y020597D01*
X001959Y020597D02*
X001712Y020844D01*
X001650Y020844D01*
X001650Y020597D01*
X001835Y021597D02*
X001712Y021720D01*
X001650Y021844D01*
X001835Y021782D02*
X001835Y021597D01*
X001959Y021597D01*
X002020Y021658D01*
X002020Y021782D01*
X001959Y021844D01*
X001897Y021844D01*
X001835Y021782D01*
X001835Y022597D02*
X001650Y022597D01*
X001650Y022844D01*
X001774Y022782D02*
X001835Y022844D01*
X001959Y022844D01*
X002020Y022782D01*
X002020Y022658D01*
X001959Y022597D01*
X001835Y022597D02*
X001774Y022720D01*
X001774Y022782D01*
X001835Y023597D02*
X001650Y023782D01*
X002020Y023782D01*
X001835Y023844D02*
X001835Y023597D01*
X001712Y024597D02*
X001650Y024658D01*
X001650Y024782D01*
X001712Y024844D01*
X001774Y024844D01*
X001835Y024782D01*
X001897Y024844D01*
X001959Y024844D01*
X002020Y024782D01*
X002020Y024658D01*
X001959Y024597D01*
X001835Y024720D02*
X001835Y024782D01*
X001712Y025597D02*
X001650Y025658D01*
X001650Y025782D01*
X001712Y025844D01*
X001774Y025844D01*
X002020Y025597D01*
X002020Y025844D01*
X002020Y026597D02*
X002020Y026844D01*
X002020Y026720D02*
X001650Y026720D01*
X001774Y026597D01*
X001712Y027597D02*
X001650Y027658D01*
X001650Y027782D01*
X001712Y027844D01*
X001959Y027597D01*
X002020Y027658D01*
X002020Y027782D01*
X001959Y027844D01*
X001712Y027844D01*
X001712Y027597D02*
X001959Y027597D01*
X000559Y026081D02*
X000312Y026081D01*
X000250Y026019D01*
X000250Y025896D01*
X000312Y025834D01*
X000559Y025834D01*
X000620Y025896D01*
X000620Y026019D01*
X000559Y026081D01*
X000250Y025713D02*
X000620Y025466D01*
X000620Y025344D02*
X000620Y025220D01*
X000620Y025282D02*
X000250Y025282D01*
X000250Y025220D02*
X000250Y025344D01*
X000250Y024668D02*
X000620Y024668D01*
X000620Y024607D02*
X000620Y024730D01*
X000620Y024485D02*
X000620Y024300D01*
X000559Y024238D01*
X000497Y024300D01*
X000497Y024485D01*
X000435Y024485D02*
X000620Y024485D01*
X000435Y024485D02*
X000374Y024423D01*
X000374Y024300D01*
X000374Y024116D02*
X000374Y023993D01*
X000312Y024054D02*
X000559Y024054D01*
X000620Y024116D01*
X000620Y023871D02*
X000620Y023747D01*
X000620Y023809D02*
X000374Y023809D01*
X000374Y023747D01*
X000374Y023626D02*
X000374Y023441D01*
X000435Y023379D01*
X000559Y023379D01*
X000620Y023441D01*
X000620Y023626D01*
X000682Y023626D02*
X000744Y023564D01*
X000744Y023502D01*
X000682Y023626D02*
X000374Y023626D01*
X000250Y023809D02*
X000188Y023809D01*
X000188Y023195D02*
X000250Y023195D01*
X000374Y023195D02*
X000620Y023195D01*
X000620Y023133D02*
X000620Y023257D01*
X000559Y023012D02*
X000312Y023012D01*
X000250Y022950D01*
X000250Y022765D01*
X000620Y022765D01*
X000620Y022950D01*
X000559Y023012D01*
X000374Y023133D02*
X000374Y023195D01*
X000250Y024607D02*
X000250Y024668D01*
X000312Y018481D02*
X000250Y018419D01*
X000250Y018296D01*
X000312Y018234D01*
X000559Y018234D01*
X000620Y018296D01*
X000620Y018419D01*
X000559Y018481D01*
X000312Y018481D01*
X000250Y018113D02*
X000620Y017866D01*
X000620Y017744D02*
X000620Y017620D01*
X000620Y017682D02*
X000250Y017682D01*
X000250Y017620D02*
X000250Y017744D01*
X000250Y017068D02*
X000620Y017068D01*
X000620Y017007D02*
X000620Y017130D01*
X000620Y016885D02*
X000620Y016700D01*
X000559Y016638D01*
X000497Y016700D01*
X000497Y016885D01*
X000435Y016885D02*
X000620Y016885D01*
X000435Y016885D02*
X000374Y016823D01*
X000374Y016700D01*
X000374Y016516D02*
X000374Y016393D01*
X000312Y016454D02*
X000559Y016454D01*
X000620Y016516D01*
X000620Y016271D02*
X000620Y016147D01*
X000620Y016209D02*
X000374Y016209D01*
X000374Y016147D01*
X000374Y016026D02*
X000374Y015841D01*
X000435Y015779D01*
X000559Y015779D01*
X000620Y015841D01*
X000620Y016026D01*
X000682Y016026D02*
X000374Y016026D01*
X000250Y016209D02*
X000188Y016209D01*
X000188Y015595D02*
X000250Y015595D01*
X000374Y015595D02*
X000620Y015595D01*
X000620Y015533D02*
X000620Y015657D01*
X000559Y015412D02*
X000312Y015412D01*
X000250Y015350D01*
X000250Y015165D01*
X000620Y015165D01*
X000620Y015350D01*
X000559Y015412D01*
X000374Y015533D02*
X000374Y015595D01*
X000744Y015902D02*
X000744Y015964D01*
X000682Y016026D01*
X000250Y017007D02*
X000250Y017068D01*
X001835Y011361D02*
X001835Y011115D01*
X001774Y011115D02*
X002020Y011115D01*
X019250Y015011D02*
X019250Y015196D01*
X019312Y015258D01*
X019435Y015258D01*
X019497Y015196D01*
X019497Y015011D01*
X019620Y015011D02*
X019250Y015011D01*
X019312Y015379D02*
X019250Y015441D01*
X019250Y015564D01*
X019312Y015626D01*
X019250Y015748D02*
X019250Y015995D01*
X019250Y015871D02*
X019620Y015871D01*
X019559Y015626D02*
X019620Y015564D01*
X019620Y015441D01*
X019559Y015379D01*
X019620Y015258D02*
X019497Y015134D01*
X019374Y015379D02*
X019435Y015441D01*
X019435Y015564D01*
X019497Y015626D01*
X019559Y015626D01*
X019374Y015379D02*
X019312Y015379D01*
X019312Y016397D02*
X019250Y016459D01*
X019250Y016582D01*
X019312Y016644D01*
X019374Y016644D01*
X019435Y016582D01*
X019497Y016644D01*
X019559Y016644D01*
X019620Y016582D01*
X019620Y016459D01*
X019559Y016397D01*
X019435Y016520D02*
X019435Y016582D01*
X019374Y016765D02*
X019620Y016889D01*
X019374Y017012D01*
X019435Y017497D02*
X019250Y017497D01*
X019250Y017744D01*
X019374Y017682D02*
X019435Y017744D01*
X019559Y017744D01*
X019620Y017682D01*
X019620Y017559D01*
X019559Y017497D01*
X019435Y017497D02*
X019374Y017620D01*
X019374Y017682D01*
X019374Y017865D02*
X019620Y017989D01*
X019374Y018112D01*
X019312Y018769D02*
X019559Y018769D01*
X019620Y018831D01*
X019620Y018954D01*
X019559Y019016D01*
X019435Y019016D01*
X019435Y018892D01*
X019312Y018769D02*
X019250Y018831D01*
X019250Y018954D01*
X019312Y019016D01*
X019374Y019137D02*
X019374Y019322D01*
X019435Y019384D01*
X019620Y019384D01*
X019559Y019506D02*
X019435Y019506D01*
X019374Y019567D01*
X019374Y019752D01*
X019250Y019752D02*
X019620Y019752D01*
X019620Y019567D01*
X019559Y019506D01*
X019620Y019137D02*
X019374Y019137D01*
X019250Y020347D02*
X019497Y020347D01*
X019620Y020470D01*
X019497Y020594D01*
X019250Y020594D01*
X019374Y020715D02*
X019374Y020777D01*
X019620Y020777D01*
X019620Y020715D02*
X019620Y020839D01*
X019620Y020961D02*
X019374Y020961D01*
X019374Y021146D01*
X019435Y021208D01*
X019620Y021208D01*
X019250Y020777D02*
X019188Y020777D01*
X019312Y022565D02*
X019250Y022627D01*
X019250Y022750D01*
X019312Y022812D01*
X019559Y022565D01*
X019620Y022627D01*
X019620Y022750D01*
X019559Y022812D01*
X019312Y022812D01*
X019312Y022565D02*
X019559Y022565D01*
X019620Y023565D02*
X019620Y023812D01*
X019620Y023688D02*
X019250Y023688D01*
X019374Y023565D01*
X019312Y024565D02*
X019250Y024627D01*
X019250Y024750D01*
X019312Y024812D01*
X019374Y024812D01*
X019620Y024565D01*
X019620Y024812D01*
X019559Y025565D02*
X019620Y025627D01*
X019620Y025750D01*
X019559Y025812D01*
X019497Y025812D01*
X019435Y025750D01*
X019435Y025688D01*
X019435Y025750D02*
X019374Y025812D01*
X019312Y025812D01*
X019250Y025750D01*
X019250Y025627D01*
X019312Y025565D01*
X019435Y026565D02*
X019435Y026812D01*
X019250Y026750D02*
X019435Y026565D01*
X019620Y026750D02*
X019250Y026750D01*
X019250Y027565D02*
X019435Y027565D01*
X019374Y027688D01*
X019374Y027750D01*
X019435Y027812D01*
X019559Y027812D01*
X019620Y027750D01*
X019620Y027627D01*
X019559Y027565D01*
X019250Y027565D02*
X019250Y027812D01*
X020692Y026905D02*
X020692Y026720D01*
X020938Y026720D01*
X020938Y026598D02*
X020938Y026474D01*
X020938Y026536D02*
X020568Y026536D01*
X020568Y026474D02*
X020568Y026598D01*
X020692Y026905D02*
X020753Y026967D01*
X020938Y026967D01*
X020938Y025985D02*
X020938Y025799D01*
X020877Y025738D01*
X020753Y025738D01*
X020692Y025799D01*
X020692Y025985D01*
X021000Y025985D01*
X021062Y025923D01*
X021062Y025861D01*
X020877Y025616D02*
X020753Y025616D01*
X020692Y025555D01*
X020692Y025431D01*
X020753Y025369D01*
X020877Y025369D01*
X020938Y025431D01*
X020938Y025555D01*
X020877Y025616D01*
X020938Y025247D02*
X020938Y025124D01*
X020938Y025186D02*
X020568Y025186D01*
X020568Y025124D01*
X020692Y024941D02*
X020753Y025002D01*
X020938Y025002D01*
X020938Y024817D01*
X020877Y024756D01*
X020815Y024817D01*
X020815Y025002D01*
X020692Y024941D02*
X020692Y024817D01*
X020753Y024634D02*
X020938Y024634D01*
X020753Y024634D02*
X020692Y024572D01*
X020692Y024387D01*
X020938Y024387D01*
X020938Y024266D02*
X020692Y024266D01*
X020568Y024142D01*
X020692Y024019D01*
X020938Y024019D01*
X020753Y024019D02*
X020753Y024266D01*
D11*
X005824Y004574D02*
X002836Y007145D01*
X002836Y017543D01*
X012435Y017543D01*
X012435Y007145D01*
X009446Y004574D01*
X005824Y004574D01*
X003777Y007102D02*
X002832Y007102D01*
X002832Y015212D01*
X003777Y015212D01*
X003777Y007102D01*
X011494Y007102D02*
X011494Y015212D01*
X012439Y015212D01*
X012439Y007102D01*
X011494Y007102D01*
D12*
X003995Y016740D02*
X003715Y016740D01*
X003855Y016740D02*
X003855Y017160D01*
X003715Y017020D01*
X003535Y017160D02*
X003535Y016810D01*
X003465Y016740D01*
X003325Y016740D01*
X003255Y016810D01*
X003255Y017160D01*
D13*
X004931Y019235D02*
X005167Y019747D01*
X005187Y019782D01*
X005210Y019816D01*
X005236Y019847D01*
X005265Y019876D01*
X005296Y019902D01*
X005330Y019924D01*
X005366Y019944D01*
X005403Y019961D01*
X005441Y019973D01*
X005481Y019983D01*
X005521Y019988D01*
X005562Y019990D01*
X005602Y019988D01*
X005643Y019982D01*
X005682Y019973D01*
X005721Y019960D01*
X005758Y019944D01*
X005793Y019924D01*
X005827Y019901D01*
X005858Y019875D01*
X005887Y019846D01*
X005913Y019815D01*
X005935Y019781D01*
X005955Y019745D01*
X005972Y019708D01*
X005984Y019670D01*
X005994Y019630D01*
X005999Y019590D01*
X006001Y019549D01*
X005999Y019509D01*
X005993Y019468D01*
X005984Y019429D01*
X005971Y019390D01*
X005955Y019353D01*
X005954Y019354D02*
X005679Y018763D01*
X008592Y018763D01*
X008317Y019354D01*
X008316Y019353D02*
X008300Y019390D01*
X008287Y019429D01*
X008278Y019468D01*
X008272Y019509D01*
X008270Y019549D01*
X008272Y019590D01*
X008277Y019630D01*
X008287Y019670D01*
X008299Y019708D01*
X008316Y019745D01*
X008336Y019781D01*
X008358Y019815D01*
X008384Y019846D01*
X008413Y019875D01*
X008444Y019901D01*
X008478Y019924D01*
X008513Y019944D01*
X008550Y019960D01*
X008589Y019973D01*
X008628Y019982D01*
X008669Y019988D01*
X008709Y019990D01*
X008750Y019988D01*
X008790Y019983D01*
X008830Y019973D01*
X008868Y019961D01*
X008905Y019944D01*
X008941Y019924D01*
X008975Y019902D01*
X009006Y019876D01*
X009035Y019847D01*
X009061Y019816D01*
X009084Y019782D01*
X009104Y019747D01*
X009380Y019275D01*
X010915Y022109D01*
X010679Y022109D01*
X010631Y022111D01*
X010584Y022117D01*
X010538Y022126D01*
X010492Y022139D01*
X010447Y022156D01*
X010404Y022177D01*
X010363Y022200D01*
X010324Y022228D01*
X010287Y022258D01*
X010253Y022291D01*
X010221Y022326D01*
X010193Y022364D01*
X010167Y022405D01*
X010145Y022447D01*
X010126Y022490D01*
X010111Y022536D01*
X010100Y022582D01*
X010092Y022629D01*
X010088Y022676D01*
X010088Y022724D01*
X010092Y022771D01*
X010100Y022818D01*
X010111Y022864D01*
X010126Y022910D01*
X010145Y022953D01*
X010167Y022996D01*
X010193Y023036D01*
X010221Y023074D01*
X010253Y023109D01*
X010287Y023142D01*
X010324Y023172D01*
X010363Y023200D01*
X010404Y023223D01*
X010447Y023244D01*
X010492Y023261D01*
X010538Y023274D01*
X010584Y023283D01*
X010631Y023289D01*
X010679Y023291D01*
X010915Y023291D01*
X009380Y026125D01*
X009104Y025653D01*
X009084Y025618D01*
X009061Y025584D01*
X009035Y025553D01*
X009006Y025524D01*
X008975Y025498D01*
X008941Y025476D01*
X008905Y025456D01*
X008868Y025439D01*
X008830Y025427D01*
X008790Y025417D01*
X008750Y025412D01*
X008709Y025410D01*
X008669Y025412D01*
X008628Y025418D01*
X008589Y025427D01*
X008550Y025440D01*
X008513Y025456D01*
X008478Y025476D01*
X008444Y025499D01*
X008413Y025525D01*
X008384Y025554D01*
X008358Y025585D01*
X008336Y025619D01*
X008316Y025655D01*
X008299Y025692D01*
X008287Y025730D01*
X008277Y025770D01*
X008272Y025810D01*
X008270Y025851D01*
X008272Y025891D01*
X008278Y025932D01*
X008287Y025971D01*
X008300Y026010D01*
X008316Y026047D01*
X008317Y026046D02*
X008631Y026676D01*
X005600Y026676D01*
X005836Y026243D01*
X005837Y026243D02*
X005853Y026206D01*
X005866Y026167D01*
X005875Y026128D01*
X005881Y026087D01*
X005883Y026047D01*
X005881Y026006D01*
X005876Y025966D01*
X005866Y025926D01*
X005854Y025888D01*
X005837Y025851D01*
X005817Y025815D01*
X005795Y025781D01*
X005769Y025750D01*
X005740Y025721D01*
X005709Y025695D01*
X005675Y025672D01*
X005640Y025652D01*
X005603Y025636D01*
X005564Y025623D01*
X005525Y025614D01*
X005484Y025608D01*
X005444Y025606D01*
X005403Y025608D01*
X005363Y025613D01*
X005323Y025623D01*
X005285Y025635D01*
X005248Y025652D01*
X005212Y025672D01*
X005178Y025694D01*
X005147Y025720D01*
X005118Y025749D01*
X005092Y025780D01*
X005069Y025814D01*
X005049Y025849D01*
X005049Y025850D02*
X004891Y026204D01*
X003356Y023291D01*
X003592Y023291D01*
X003640Y023289D01*
X003687Y023283D01*
X003733Y023274D01*
X003779Y023261D01*
X003824Y023244D01*
X003867Y023223D01*
X003908Y023200D01*
X003947Y023172D01*
X003984Y023142D01*
X004018Y023109D01*
X004050Y023074D01*
X004078Y023036D01*
X004104Y022995D01*
X004126Y022953D01*
X004145Y022910D01*
X004160Y022864D01*
X004171Y022818D01*
X004179Y022771D01*
X004183Y022724D01*
X004183Y022676D01*
X004179Y022629D01*
X004171Y022582D01*
X004160Y022536D01*
X004145Y022490D01*
X004126Y022447D01*
X004104Y022404D01*
X004078Y022364D01*
X004050Y022326D01*
X004018Y022291D01*
X003984Y022258D01*
X003947Y022228D01*
X003908Y022200D01*
X003867Y022177D01*
X003824Y022156D01*
X003779Y022139D01*
X003733Y022126D01*
X003687Y022117D01*
X003640Y022111D01*
X003592Y022109D01*
X003356Y022109D01*
X004931Y019235D01*
X004837Y020756D02*
X004837Y021164D01*
X005040Y020960D02*
X004633Y020960D01*
X005659Y021322D02*
X005659Y024078D01*
X005954Y024373D01*
X008317Y024373D01*
X008612Y024078D01*
X008612Y021322D01*
X008317Y021027D01*
X005954Y021027D01*
X005659Y021322D01*
X006995Y020173D02*
X007402Y020173D01*
X007199Y019969D02*
X007199Y020376D01*
X008964Y020960D02*
X009371Y020960D01*
X009167Y020756D02*
X009167Y021164D01*
X011060Y021250D02*
X011060Y021025D01*
X011510Y021025D01*
X011360Y021025D02*
X011360Y021250D01*
X011285Y021325D01*
X011135Y021325D01*
X011060Y021250D01*
X011210Y021485D02*
X011060Y021636D01*
X011510Y021636D01*
X011510Y021786D02*
X011510Y021485D01*
X011510Y021325D02*
X011360Y021175D01*
X013230Y017294D02*
X014135Y017098D01*
X014805Y017294D01*
X014805Y029106D01*
X014135Y029302D01*
X013230Y029106D01*
X013230Y017294D01*
X016260Y019800D02*
X016335Y019725D01*
X016486Y019725D01*
X016561Y019800D01*
X016721Y019725D02*
X017021Y020025D01*
X017021Y020100D01*
X016946Y020175D01*
X016796Y020175D01*
X016721Y020100D01*
X016561Y020100D02*
X016486Y020175D01*
X016335Y020175D01*
X016260Y020100D01*
X016260Y019800D01*
X016721Y019725D02*
X017021Y019725D01*
X017135Y020731D02*
X018317Y020928D01*
X018317Y024472D01*
X017135Y024669D01*
X016348Y024472D01*
X016348Y020928D01*
X017135Y020731D01*
X017215Y025725D02*
X017365Y025725D01*
X017440Y025800D01*
X017600Y025800D02*
X017675Y025725D01*
X017825Y025725D01*
X017900Y025800D01*
X017900Y025875D01*
X017825Y025950D01*
X017750Y025950D01*
X017825Y025950D02*
X017900Y026025D01*
X017900Y026100D01*
X017825Y026175D01*
X017675Y026175D01*
X017600Y026100D01*
X017440Y026100D02*
X017365Y026175D01*
X017215Y026175D01*
X017140Y026100D01*
X017140Y025800D01*
X017215Y025725D01*
X011510Y025828D02*
X011060Y025828D01*
X011060Y026053D01*
X011135Y026128D01*
X011285Y026128D01*
X011360Y026053D01*
X011360Y025828D01*
X011360Y025978D02*
X011510Y026128D01*
X011435Y026289D02*
X011510Y026364D01*
X011510Y026514D01*
X011435Y026589D01*
X011285Y026589D01*
X011210Y026514D01*
X011210Y026439D01*
X011285Y026289D01*
X011060Y026289D01*
X011060Y026589D01*
X005890Y022700D02*
X005892Y022770D01*
X005898Y022841D01*
X005908Y022910D01*
X005922Y022979D01*
X005940Y023048D01*
X005961Y023115D01*
X005986Y023181D01*
X006015Y023245D01*
X006048Y023307D01*
X006084Y023368D01*
X006124Y023426D01*
X006166Y023482D01*
X006212Y023536D01*
X006261Y023587D01*
X006312Y023635D01*
X006367Y023680D01*
X006423Y023722D01*
X006482Y023760D01*
X006543Y023795D01*
X006606Y023827D01*
X006671Y023855D01*
X006737Y023880D01*
X006804Y023900D01*
X006873Y023917D01*
X006942Y023930D01*
X007012Y023939D01*
X007082Y023944D01*
X007153Y023945D01*
X007223Y023942D01*
X007293Y023935D01*
X007363Y023924D01*
X007432Y023909D01*
X007500Y023890D01*
X007566Y023868D01*
X007632Y023842D01*
X007696Y023812D01*
X007758Y023778D01*
X007818Y023741D01*
X007875Y023701D01*
X007931Y023657D01*
X007984Y023611D01*
X008034Y023561D01*
X008081Y023509D01*
X008125Y023454D01*
X008166Y023397D01*
X008204Y023338D01*
X008239Y023276D01*
X008269Y023213D01*
X008297Y023148D01*
X008320Y023081D01*
X008340Y023014D01*
X008356Y022945D01*
X008368Y022876D01*
X008376Y022806D01*
X008380Y022735D01*
X008380Y022665D01*
X008376Y022594D01*
X008368Y022524D01*
X008356Y022455D01*
X008340Y022386D01*
X008320Y022319D01*
X008297Y022252D01*
X008269Y022187D01*
X008239Y022124D01*
X008204Y022062D01*
X008166Y022003D01*
X008125Y021946D01*
X008081Y021891D01*
X008034Y021839D01*
X007984Y021789D01*
X007931Y021743D01*
X007875Y021699D01*
X007818Y021659D01*
X007757Y021622D01*
X007696Y021588D01*
X007632Y021558D01*
X007566Y021532D01*
X007500Y021510D01*
X007432Y021491D01*
X007363Y021476D01*
X007293Y021465D01*
X007223Y021458D01*
X007153Y021455D01*
X007082Y021456D01*
X007012Y021461D01*
X006942Y021470D01*
X006873Y021483D01*
X006804Y021500D01*
X006737Y021520D01*
X006671Y021545D01*
X006606Y021573D01*
X006543Y021605D01*
X006482Y021640D01*
X006423Y021678D01*
X006367Y021720D01*
X006312Y021765D01*
X006261Y021813D01*
X006212Y021864D01*
X006166Y021918D01*
X006124Y021974D01*
X006084Y022032D01*
X006048Y022093D01*
X006015Y022155D01*
X005986Y022219D01*
X005961Y022285D01*
X005940Y022352D01*
X005922Y022421D01*
X005908Y022490D01*
X005898Y022559D01*
X005892Y022630D01*
X005890Y022700D01*
D14*
X012631Y017744D02*
X013092Y017744D01*
X013092Y017897D02*
X013092Y017590D01*
X012785Y017590D02*
X012631Y017744D01*
X017639Y021299D02*
X018100Y021299D01*
X018100Y021452D02*
X018100Y021145D01*
X017793Y021145D02*
X017639Y021299D01*
X018624Y022523D02*
X018624Y022753D01*
X018700Y022830D01*
X018854Y022830D01*
X018930Y022753D01*
X018930Y022523D01*
X019084Y022523D02*
X018624Y022523D01*
X018777Y022984D02*
X018624Y023137D01*
X019084Y023137D01*
X019084Y022984D02*
X019084Y023290D01*
X013092Y028338D02*
X013092Y028645D01*
X013092Y028492D02*
X012631Y028492D01*
X012785Y028338D01*
X012708Y028799D02*
X012631Y028875D01*
X012631Y029029D01*
X012708Y029105D01*
X012785Y029105D01*
X013092Y028799D01*
X013092Y029105D01*
D15*
X012485Y028253D02*
X011785Y028253D01*
X011768Y028251D01*
X011751Y028247D01*
X011735Y028240D01*
X011721Y028230D01*
X011708Y028217D01*
X011698Y028203D01*
X011691Y028187D01*
X011687Y028170D01*
X011685Y028153D01*
X011685Y028003D01*
X011735Y027953D01*
X011735Y026053D01*
X011685Y026003D01*
X011685Y025853D01*
X011687Y025836D01*
X011691Y025819D01*
X011698Y025803D01*
X011708Y025789D01*
X011721Y025776D01*
X011735Y025766D01*
X011751Y025759D01*
X011768Y025755D01*
X011785Y025753D01*
X012485Y025753D01*
X012502Y025755D01*
X012519Y025759D01*
X012535Y025766D01*
X012549Y025776D01*
X012562Y025789D01*
X012572Y025803D01*
X012579Y025819D01*
X012583Y025836D01*
X012585Y025853D01*
X012585Y026003D01*
X012535Y026053D01*
X012535Y027953D01*
X012585Y028003D01*
X012585Y028153D01*
X012583Y028170D01*
X012579Y028187D01*
X012572Y028203D01*
X012562Y028217D01*
X012549Y028230D01*
X012535Y028240D01*
X012519Y028247D01*
X012502Y028251D01*
X012485Y028253D01*
X012485Y023450D02*
X011785Y023450D01*
X011768Y023448D01*
X011751Y023444D01*
X011735Y023437D01*
X011721Y023427D01*
X011708Y023414D01*
X011698Y023400D01*
X011691Y023384D01*
X011687Y023367D01*
X011685Y023350D01*
X011685Y023200D01*
X011735Y023150D01*
X011735Y021250D01*
X011685Y021200D01*
X011685Y021050D01*
X011687Y021033D01*
X011691Y021016D01*
X011698Y021000D01*
X011708Y020986D01*
X011721Y020973D01*
X011735Y020963D01*
X011751Y020956D01*
X011768Y020952D01*
X011785Y020950D01*
X012485Y020950D01*
X012502Y020952D01*
X012519Y020956D01*
X012535Y020963D01*
X012549Y020973D01*
X012562Y020986D01*
X012572Y021000D01*
X012579Y021016D01*
X012583Y021033D01*
X012585Y021050D01*
X012585Y021200D01*
X012535Y021250D01*
X012535Y023150D01*
X012585Y023200D01*
X012585Y023350D01*
X012583Y023367D01*
X012579Y023384D01*
X012572Y023400D01*
X012562Y023414D01*
X012549Y023427D01*
X012535Y023437D01*
X012519Y023444D01*
X012502Y023448D01*
X012485Y023450D01*
X016185Y026400D02*
X016185Y028000D01*
X016187Y028017D01*
X016191Y028034D01*
X016198Y028050D01*
X016208Y028064D01*
X016221Y028077D01*
X016235Y028087D01*
X016251Y028094D01*
X016268Y028098D01*
X016285Y028100D01*
X017985Y028100D01*
X018002Y028098D01*
X018019Y028094D01*
X018035Y028087D01*
X018049Y028077D01*
X018062Y028064D01*
X018072Y028050D01*
X018079Y028034D01*
X018083Y028017D01*
X018085Y028000D01*
X018085Y026400D01*
X018083Y026383D01*
X018079Y026366D01*
X018072Y026350D01*
X018062Y026336D01*
X018049Y026323D01*
X018035Y026313D01*
X018019Y026306D01*
X018002Y026302D01*
X017985Y026300D01*
X016285Y026300D01*
X016268Y026302D01*
X016251Y026306D01*
X016235Y026313D01*
X016221Y026323D01*
X016208Y026336D01*
X016198Y026350D01*
X016191Y026366D01*
X016187Y026383D01*
X016185Y026400D01*
X016985Y027200D02*
X017035Y027200D01*
X017235Y027200D02*
X017285Y027200D01*
X017985Y019600D02*
X016285Y019600D01*
X016268Y019598D01*
X016251Y019594D01*
X016235Y019587D01*
X016221Y019577D01*
X016208Y019564D01*
X016198Y019550D01*
X016191Y019534D01*
X016187Y019517D01*
X016185Y019500D01*
X016185Y017900D01*
X016187Y017883D01*
X016191Y017866D01*
X016198Y017850D01*
X016208Y017836D01*
X016221Y017823D01*
X016235Y017813D01*
X016251Y017806D01*
X016268Y017802D01*
X016285Y017800D01*
X017985Y017800D01*
X018002Y017802D01*
X018019Y017806D01*
X018035Y017813D01*
X018049Y017823D01*
X018062Y017836D01*
X018072Y017850D01*
X018079Y017866D01*
X018083Y017883D01*
X018085Y017900D01*
X018085Y019500D01*
X018083Y019517D01*
X018079Y019534D01*
X018072Y019550D01*
X018062Y019564D01*
X018049Y019577D01*
X018035Y019587D01*
X018019Y019594D01*
X018002Y019598D01*
X017985Y019600D01*
X017285Y018700D02*
X017235Y018700D01*
X017035Y018700D02*
X016985Y018700D01*
D16*
X012135Y020780D03*
X012135Y023620D03*
X012135Y025583D03*
X012135Y028423D03*
D17*
X012135Y027291D03*
X012135Y026711D03*
X012135Y022488D03*
X012135Y021908D03*
D18*
X017035Y019000D02*
X017035Y018700D01*
X017035Y018400D01*
X017235Y018400D02*
X017235Y018700D01*
X017235Y019000D01*
X017235Y026900D02*
X017235Y027200D01*
X017235Y027500D01*
X017035Y027500D02*
X017035Y027200D01*
X017035Y026900D01*
M02*
