G75*
%MOIN*%
%OFA0B0*%
%FSLAX24Y24*%
%IPPOS*%
%LPD*%
%AMOC8*
5,1,8,0,0,1.08239X$1,22.5*
%
%ADD10OC8,0.0740*%
%ADD11C,0.0634*%
%ADD12C,0.0674*%
%ADD13C,0.0730*%
%ADD14R,0.0395X0.0395*%
%ADD15OC8,0.0600*%
%ADD16R,0.0867X0.0867*%
D10*
X001135Y012100D03*
X001135Y013100D03*
X001135Y014100D03*
X001135Y015100D03*
X001135Y016100D03*
X001135Y017100D03*
X001135Y018100D03*
X001135Y019100D03*
X001135Y020700D03*
X001135Y021700D03*
X001135Y022700D03*
X001135Y023700D03*
X001135Y024700D03*
X001135Y025700D03*
X001135Y026700D03*
X001135Y027700D03*
X012135Y029003D03*
X012135Y025003D03*
X012135Y024200D03*
X012135Y020200D03*
X020135Y019700D03*
X020135Y018700D03*
X020135Y017700D03*
X020135Y016700D03*
X020135Y015700D03*
X020135Y020700D03*
X020135Y022700D03*
X020135Y023700D03*
X020135Y024700D03*
X020135Y025700D03*
X020135Y026700D03*
X020135Y027700D03*
D11*
X003305Y007613D03*
X003305Y008401D03*
X003305Y009188D03*
X003305Y009976D03*
X003305Y010763D03*
X003305Y011550D03*
X003305Y012338D03*
X003305Y013125D03*
X003305Y013913D03*
X003305Y014700D03*
X011966Y014700D03*
X011966Y013913D03*
X011966Y013125D03*
X011966Y012338D03*
X011966Y011550D03*
X011966Y010763D03*
X011966Y009976D03*
X011966Y009188D03*
X011966Y008401D03*
X011966Y007613D03*
D12*
X017135Y021200D03*
X017135Y022200D03*
X017135Y023200D03*
X017135Y024200D03*
D13*
X014135Y023700D03*
X014135Y022700D03*
X014135Y021700D03*
X014135Y020700D03*
X014135Y019700D03*
X014135Y018700D03*
X014135Y017700D03*
X010679Y020338D03*
X010679Y025062D03*
X014135Y024700D03*
X014135Y025700D03*
X014135Y026700D03*
X014135Y027700D03*
X014135Y028700D03*
X007135Y027424D03*
X003592Y025062D03*
X003592Y020338D03*
X007135Y017976D03*
D14*
X013135Y011015D03*
X013135Y010385D03*
X015124Y022791D03*
X015754Y022791D03*
X015950Y024700D03*
X015320Y024700D03*
X015320Y028700D03*
X015950Y028700D03*
D15*
X016635Y027200D03*
X017635Y027200D03*
X017635Y018700D03*
X016635Y018700D03*
D16*
X017045Y013003D03*
X017045Y012003D03*
X017045Y011003D03*
X017045Y010003D03*
X017045Y009003D03*
X017045Y008003D03*
X017045Y007003D03*
X017045Y006003D03*
X017045Y005003D03*
X017045Y004003D03*
X016045Y004003D03*
X016045Y005003D03*
X016045Y006003D03*
X016045Y007003D03*
X016045Y008003D03*
X016045Y009003D03*
X016045Y010003D03*
X016045Y011003D03*
X016045Y012003D03*
X016045Y013003D03*
X018045Y013003D03*
X018045Y012003D03*
X018045Y011003D03*
X018045Y010003D03*
X018045Y009003D03*
X018045Y008003D03*
X018045Y007003D03*
X018045Y006003D03*
X018045Y005003D03*
X018045Y004003D03*
X019045Y004003D03*
X019045Y005003D03*
X020045Y005003D03*
X020045Y004003D03*
X020045Y006003D03*
X020045Y007003D03*
X020045Y008003D03*
X019045Y008003D03*
X019045Y007003D03*
X019045Y006003D03*
X019045Y009003D03*
X019045Y010003D03*
X019045Y011003D03*
X020045Y011003D03*
X020045Y010003D03*
X020045Y009003D03*
X020045Y012003D03*
X020045Y013003D03*
X019045Y013003D03*
X019045Y012003D03*
M02*
