%
M48
M72
T01C0.0315
T02C0.0320
T03C0.0354
T04C0.0394
T05C0.0400
T06C0.0433
T07C0.0984
%
T01
X3717Y3800
X12717Y3800
X21434Y3800
X30434Y3800
X39150Y3800
X48150Y3800
T02
X41654Y10851
X41654Y11851
X37233Y11851
X37233Y10851
X39422Y15946
X39422Y16946
X39422Y17946
X39422Y18946
X39422Y19946
X39422Y20946
X39422Y21946
X39422Y22946
X39422Y23946
X39422Y24946
X39422Y25946
X39422Y26946
X39422Y27946
X39422Y28946
X42422Y28946
X42422Y27946
X42422Y26946
X42422Y25946
X42422Y24946
X42422Y23946
X42422Y22946
X42422Y21946
X42422Y20946
X42422Y19946
X42422Y18946
X42422Y17946
X42422Y16946
X42422Y15946
X24706Y15946
X24706Y16946
X24706Y17946
X24706Y18946
X24706Y19946
X24706Y20946
X24706Y21946
X24706Y22946
X24706Y23946
X24706Y24946
X24706Y25946
X24706Y26946
X24706Y27946
X24706Y28946
X21706Y28946
X21706Y27946
X21706Y26946
X21706Y25946
X21706Y24946
X21706Y23946
X21706Y22946
X21706Y21946
X21706Y20946
X21706Y19946
X21706Y18946
X21706Y17946
X21706Y16946
X21706Y15946
X19517Y11851
X19517Y10851
X23938Y10851
X23938Y11851
X6989Y15946
X6989Y16946
X6989Y17946
X6989Y18946
X6989Y19946
X6989Y20946
X6989Y21946
X6989Y22946
X6989Y23946
X6989Y24946
X6989Y25946
X6989Y26946
X6989Y27946
X6989Y28946
X3989Y28946
X3989Y27946
X3989Y26946
X3989Y25946
X3989Y24946
X3989Y23946
X3989Y22946
X3989Y21946
X3989Y20946
X3989Y19946
X3989Y18946
X3989Y17946
X3989Y16946
X3989Y15946
X1800Y11851
X1800Y10851
X6221Y10851
X6221Y11851
T03
X3887Y33182
X3887Y33969
X3887Y34757
X3887Y35544
X3887Y36331
X3887Y37119
X3887Y37906
X3887Y38694
X3887Y39481
X3887Y40269
X12548Y40269
X12548Y39481
X12548Y38694
X12548Y37906
X12548Y37119
X12548Y36331
X12548Y35544
X12548Y34757
X12548Y33969
X12548Y33182
X21603Y33182
X21603Y33969
X21603Y34757
X21603Y35544
X21603Y36331
X21603Y37119
X21603Y37906
X21603Y38694
X21603Y39481
X21603Y40269
X30265Y40269
X30265Y39481
X30265Y38694
X30265Y37906
X30265Y37119
X30265Y36331
X30265Y35544
X30265Y34757
X30265Y33969
X30265Y33182
X39320Y33182
X39320Y33969
X39320Y34757
X39320Y35544
X39320Y36331
X39320Y37119
X39320Y37906
X39320Y38694
X39320Y39481
X39320Y40269
X47981Y40269
X47981Y39481
X47981Y38694
X47981Y37906
X47981Y37119
X47981Y36331
X47981Y35544
X47981Y34757
X47981Y33969
X47981Y33182
T04
X45883Y28446
X45883Y27446
X45883Y26446
X45883Y25446
X45843Y22209
X45843Y21209
X45843Y20209
X45013Y18328
X47013Y18328
X47013Y15328
X45013Y15328
X44221Y14009
X44221Y13009
X44221Y12009
X44221Y11009
X44150Y8800
X43150Y8800
X42150Y8800
X41150Y8800
X40150Y8800
X39654Y10957
X39654Y11745
X45150Y8800
X46150Y8800
X47150Y8800
X29434Y8800
X28434Y8800
X27434Y8800
X26434Y8800
X25434Y8800
X24434Y8800
X23434Y8800
X22434Y8800
X21938Y10957
X21938Y11745
X26505Y12009
X26505Y13009
X26505Y14009
X27296Y15328
X29296Y15328
X29296Y18328
X27296Y18328
X28127Y20209
X28127Y21209
X28127Y22209
X28166Y25446
X28166Y26446
X28166Y27446
X28166Y28446
X11580Y18328
X9580Y18328
X10410Y20209
X10410Y21209
X10410Y22209
X10450Y25446
X10450Y26446
X10450Y27446
X10450Y28446
X9580Y15328
X8788Y14009
X8788Y13009
X8788Y12009
X8788Y11009
X8717Y8800
X7717Y8800
X6717Y8800
X5717Y8800
X4717Y8800
X4221Y10957
X4221Y11745
X9717Y8800
X10717Y8800
X11717Y8800
X11580Y15328
X26505Y11009
T05
X30347Y10772
X30347Y11772
X30347Y12772
X30347Y13772
X37044Y22902
X38044Y22902
X38044Y23902
X37044Y23902
X37044Y24902
X38044Y24902
X37473Y27493
X37473Y28493
X37473Y29493
X37473Y30493
X37473Y31493
X37473Y32493
X20328Y24902
X20328Y23902
X19328Y23902
X19328Y24902
X19328Y22902
X20328Y22902
X19757Y27493
X19757Y28493
X19757Y29493
X19757Y30493
X19757Y31493
X19757Y32493
X2611Y24902
X2611Y23902
X1611Y23902
X1611Y24902
X1611Y22902
X2611Y22902
X2040Y27493
X2040Y28493
X2040Y29493
X2040Y30493
X2040Y31493
X2040Y32493
X12631Y13772
X12631Y12772
X12631Y11772
X12631Y10772
X48064Y10772
X48064Y11772
X48064Y12772
X48064Y13772
T06
X48906Y16446
X48906Y17446
X48906Y18446
X48906Y19446
X48906Y20446
X48906Y21446
X48906Y22446
X48906Y23446
X48906Y24446
X48906Y25446
X48906Y26446
X48906Y27446
X31190Y27446
X31190Y26446
X31190Y25446
X31190Y24446
X31190Y23446
X31190Y22446
X31190Y21446
X31190Y20446
X31190Y19446
X31190Y18446
X31190Y17446
X31190Y16446
X13473Y16446
X13473Y17446
X13473Y18446
X13473Y19446
X13473Y20446
X13473Y21446
X13473Y22446
X13473Y23446
X13473Y24446
X13473Y25446
X13473Y26446
X13473Y27446
T07
X15107Y40398
X19044Y40398
X32824Y40398
X36761Y40398
X50540Y40398
X50540Y4178
X36761Y4178
X32824Y4178
X19044Y4178
X15107Y4178
X1328Y4178
X1328Y40398
M30
