G75*
%MOIN*%
%OFA0B0*%
%FSLAX24Y24*%
%IPPOS*%
%LPD*%
%AMOC8*
5,1,8,0,0,1.08239X$1,22.5*
%
%ADD10C,0.1064*%
%ADD11C,0.0634*%
%ADD12C,0.0674*%
%ADD13C,0.0730*%
%ADD14OC8,0.0600*%
%ADD15OC8,0.0820*%
%ADD16C,0.0600*%
%ADD17R,0.0674X0.0674*%
%ADD18C,0.0674*%
%ADD19C,0.0595*%
%ADD20R,0.0820X0.0820*%
%ADD21C,0.0820*%
D10*
X001328Y004178D03*
X015107Y004178D03*
X019044Y004178D03*
X032824Y004178D03*
X036761Y004178D03*
X050540Y004178D03*
X050540Y040398D03*
X036761Y040398D03*
X032824Y040398D03*
X019044Y040398D03*
X015107Y040398D03*
X001328Y040398D03*
D11*
X003887Y040269D03*
X003887Y039481D03*
X003887Y038694D03*
X003887Y037906D03*
X003887Y037119D03*
X003887Y036331D03*
X003887Y035544D03*
X003887Y034757D03*
X003887Y033969D03*
X003887Y033182D03*
X012548Y033182D03*
X012548Y033969D03*
X012548Y034757D03*
X012548Y035544D03*
X012548Y036331D03*
X012548Y037119D03*
X012548Y037906D03*
X012548Y038694D03*
X012548Y039481D03*
X012548Y040269D03*
X021603Y040269D03*
X021603Y039481D03*
X021603Y038694D03*
X021603Y037906D03*
X021603Y037119D03*
X021603Y036331D03*
X021603Y035544D03*
X021603Y034757D03*
X021603Y033969D03*
X021603Y033182D03*
X030265Y033182D03*
X030265Y033969D03*
X030265Y034757D03*
X030265Y035544D03*
X030265Y036331D03*
X030265Y037119D03*
X030265Y037906D03*
X030265Y038694D03*
X030265Y039481D03*
X030265Y040269D03*
X039320Y040269D03*
X039320Y039481D03*
X039320Y038694D03*
X039320Y037906D03*
X039320Y037119D03*
X039320Y036331D03*
X039320Y035544D03*
X039320Y034757D03*
X039320Y033969D03*
X039320Y033182D03*
X047981Y033182D03*
X047981Y033969D03*
X047981Y034757D03*
X047981Y035544D03*
X047981Y036331D03*
X047981Y037119D03*
X047981Y037906D03*
X047981Y038694D03*
X047981Y039481D03*
X047981Y040269D03*
D12*
X046180Y028446D02*
X045586Y028446D01*
X045586Y027446D02*
X046180Y027446D01*
X046180Y026446D02*
X045586Y026446D01*
X045586Y025446D02*
X046180Y025446D01*
X046140Y022209D02*
X045546Y022209D01*
X045546Y021209D02*
X046140Y021209D01*
X046140Y020209D02*
X045546Y020209D01*
X044518Y014009D02*
X043924Y014009D01*
X043924Y013009D02*
X044518Y013009D01*
X044518Y012009D02*
X043924Y012009D01*
X043924Y011009D02*
X044518Y011009D01*
X028424Y020209D02*
X027830Y020209D01*
X027830Y021209D02*
X028424Y021209D01*
X028424Y022209D02*
X027830Y022209D01*
X027869Y025446D02*
X028463Y025446D01*
X028463Y026446D02*
X027869Y026446D01*
X027869Y027446D02*
X028463Y027446D01*
X028463Y028446D02*
X027869Y028446D01*
X010746Y028446D02*
X010153Y028446D01*
X010153Y027446D02*
X010746Y027446D01*
X010746Y026446D02*
X010153Y026446D01*
X010153Y025446D02*
X010746Y025446D01*
X010707Y022209D02*
X010113Y022209D01*
X010113Y021209D02*
X010707Y021209D01*
X010707Y020209D02*
X010113Y020209D01*
X009085Y014009D02*
X008491Y014009D01*
X008491Y013009D02*
X009085Y013009D01*
X009085Y012009D02*
X008491Y012009D01*
X008491Y011009D02*
X009085Y011009D01*
X026208Y011009D02*
X026802Y011009D01*
X026802Y012009D02*
X026208Y012009D01*
X026208Y013009D02*
X026802Y013009D01*
X026802Y014009D02*
X026208Y014009D01*
D13*
X031190Y016446D03*
X031190Y017446D03*
X031190Y018446D03*
X031190Y019446D03*
X031190Y020446D03*
X031190Y021446D03*
X031190Y022446D03*
X031190Y023446D03*
X031190Y024446D03*
X031190Y025446D03*
X031190Y026446D03*
X031190Y027446D03*
X048906Y027446D03*
X048906Y026446D03*
X048906Y025446D03*
X048906Y024446D03*
X048906Y023446D03*
X048906Y022446D03*
X048906Y021446D03*
X048906Y020446D03*
X048906Y019446D03*
X048906Y018446D03*
X048906Y017446D03*
X048906Y016446D03*
X013473Y016446D03*
X013473Y017446D03*
X013473Y018446D03*
X013473Y019446D03*
X013473Y020446D03*
X013473Y021446D03*
X013473Y022446D03*
X013473Y023446D03*
X013473Y024446D03*
X013473Y025446D03*
X013473Y026446D03*
X013473Y027446D03*
D14*
X019517Y011851D03*
X019517Y010851D03*
X023938Y010851D03*
X023938Y011851D03*
X037233Y011851D03*
X037233Y010851D03*
X041654Y010851D03*
X041654Y011851D03*
X006221Y011851D03*
X006221Y010851D03*
X001800Y010851D03*
X001800Y011851D03*
D15*
X001611Y022902D03*
X002611Y022902D03*
X002611Y023902D03*
X001611Y023902D03*
X001611Y024902D03*
X002611Y024902D03*
X019328Y024902D03*
X020328Y024902D03*
X020328Y023902D03*
X019328Y023902D03*
X019328Y022902D03*
X020328Y022902D03*
X037044Y022902D03*
X038044Y022902D03*
X038044Y023902D03*
X037044Y023902D03*
X037044Y024902D03*
X038044Y024902D03*
D16*
X039162Y024946D02*
X039682Y024946D01*
X039682Y025946D02*
X039162Y025946D01*
X039162Y026946D02*
X039682Y026946D01*
X039682Y027946D02*
X039162Y027946D01*
X039162Y028946D02*
X039682Y028946D01*
X042162Y028946D02*
X042682Y028946D01*
X042682Y027946D02*
X042162Y027946D01*
X042162Y026946D02*
X042682Y026946D01*
X042682Y025946D02*
X042162Y025946D01*
X042162Y024946D02*
X042682Y024946D01*
X042682Y023946D02*
X042162Y023946D01*
X042162Y022946D02*
X042682Y022946D01*
X042682Y021946D02*
X042162Y021946D01*
X042162Y020946D02*
X042682Y020946D01*
X042682Y019946D02*
X042162Y019946D01*
X042162Y018946D02*
X042682Y018946D01*
X042682Y017946D02*
X042162Y017946D01*
X042162Y016946D02*
X042682Y016946D01*
X042682Y015946D02*
X042162Y015946D01*
X039682Y015946D02*
X039162Y015946D01*
X039162Y016946D02*
X039682Y016946D01*
X039682Y017946D02*
X039162Y017946D01*
X039162Y018946D02*
X039682Y018946D01*
X039682Y019946D02*
X039162Y019946D01*
X039162Y020946D02*
X039682Y020946D01*
X039682Y021946D02*
X039162Y021946D01*
X039162Y022946D02*
X039682Y022946D01*
X039682Y023946D02*
X039162Y023946D01*
X024966Y023946D02*
X024446Y023946D01*
X024446Y024946D02*
X024966Y024946D01*
X024966Y025946D02*
X024446Y025946D01*
X024446Y026946D02*
X024966Y026946D01*
X024966Y027946D02*
X024446Y027946D01*
X024446Y028946D02*
X024966Y028946D01*
X021966Y028946D02*
X021446Y028946D01*
X021446Y027946D02*
X021966Y027946D01*
X021966Y026946D02*
X021446Y026946D01*
X021446Y025946D02*
X021966Y025946D01*
X021966Y024946D02*
X021446Y024946D01*
X021446Y023946D02*
X021966Y023946D01*
X021966Y022946D02*
X021446Y022946D01*
X021446Y021946D02*
X021966Y021946D01*
X021966Y020946D02*
X021446Y020946D01*
X021446Y019946D02*
X021966Y019946D01*
X021966Y018946D02*
X021446Y018946D01*
X021446Y017946D02*
X021966Y017946D01*
X021966Y016946D02*
X021446Y016946D01*
X021446Y015946D02*
X021966Y015946D01*
X024446Y015946D02*
X024966Y015946D01*
X024966Y016946D02*
X024446Y016946D01*
X024446Y017946D02*
X024966Y017946D01*
X024966Y018946D02*
X024446Y018946D01*
X024446Y019946D02*
X024966Y019946D01*
X024966Y020946D02*
X024446Y020946D01*
X024446Y021946D02*
X024966Y021946D01*
X024966Y022946D02*
X024446Y022946D01*
X007249Y022946D02*
X006729Y022946D01*
X006729Y021946D02*
X007249Y021946D01*
X007249Y020946D02*
X006729Y020946D01*
X006729Y019946D02*
X007249Y019946D01*
X007249Y018946D02*
X006729Y018946D01*
X006729Y017946D02*
X007249Y017946D01*
X007249Y016946D02*
X006729Y016946D01*
X006729Y015946D02*
X007249Y015946D01*
X004249Y015946D02*
X003729Y015946D01*
X003729Y016946D02*
X004249Y016946D01*
X004249Y017946D02*
X003729Y017946D01*
X003729Y018946D02*
X004249Y018946D01*
X004249Y019946D02*
X003729Y019946D01*
X003729Y020946D02*
X004249Y020946D01*
X004249Y021946D02*
X003729Y021946D01*
X003729Y022946D02*
X004249Y022946D01*
X004249Y023946D02*
X003729Y023946D01*
X003729Y024946D02*
X004249Y024946D01*
X004249Y025946D02*
X003729Y025946D01*
X003729Y026946D02*
X004249Y026946D01*
X004249Y027946D02*
X003729Y027946D01*
X003729Y028946D02*
X004249Y028946D01*
X006729Y028946D02*
X007249Y028946D01*
X007249Y027946D02*
X006729Y027946D01*
X006729Y026946D02*
X007249Y026946D01*
X007249Y025946D02*
X006729Y025946D01*
X006729Y024946D02*
X007249Y024946D01*
X007249Y023946D02*
X006729Y023946D01*
D17*
X004717Y008800D03*
X022434Y008800D03*
X040150Y008800D03*
D18*
X041150Y008800D03*
X042150Y008800D03*
X043150Y008800D03*
X044150Y008800D03*
X045150Y008800D03*
X046150Y008800D03*
X047150Y008800D03*
X039654Y010957D03*
X039654Y011745D03*
X045013Y015328D03*
X047013Y015328D03*
X047013Y018328D03*
X045013Y018328D03*
X029296Y018328D03*
X027296Y018328D03*
X027296Y015328D03*
X029296Y015328D03*
X021938Y011745D03*
X021938Y010957D03*
X023434Y008800D03*
X024434Y008800D03*
X025434Y008800D03*
X026434Y008800D03*
X027434Y008800D03*
X028434Y008800D03*
X029434Y008800D03*
X011717Y008800D03*
X010717Y008800D03*
X009717Y008800D03*
X008717Y008800D03*
X007717Y008800D03*
X006717Y008800D03*
X005717Y008800D03*
X004221Y010957D03*
X004221Y011745D03*
X009580Y015328D03*
X011580Y015328D03*
X011580Y018328D03*
X009580Y018328D03*
D19*
X003717Y003800D03*
X012717Y003800D03*
X021434Y003800D03*
X030434Y003800D03*
X039150Y003800D03*
X048150Y003800D03*
D20*
X048064Y010772D03*
X030347Y010772D03*
X012631Y010772D03*
X019757Y027493D03*
X037473Y027493D03*
X002040Y027493D03*
D21*
X002040Y028493D03*
X002040Y029493D03*
X002040Y030493D03*
X002040Y031493D03*
X002040Y032493D03*
X019757Y032493D03*
X019757Y031493D03*
X019757Y030493D03*
X019757Y029493D03*
X019757Y028493D03*
X037473Y028493D03*
X037473Y029493D03*
X037473Y030493D03*
X037473Y031493D03*
X037473Y032493D03*
X030347Y013772D03*
X030347Y012772D03*
X030347Y011772D03*
X012631Y011772D03*
X012631Y012772D03*
X012631Y013772D03*
X048064Y013772D03*
X048064Y012772D03*
X048064Y011772D03*
M02*
