G75*
%MOIN*%
%OFA0B0*%
%FSLAX24Y24*%
%IPPOS*%
%LPD*%
%AMOC8*
5,1,8,0,0,1.08239X$1,22.5*
%
%ADD10C,0.0000*%
D10*
X000343Y003194D02*
X016091Y003194D01*
X016091Y041383D01*
X000343Y041383D01*
X000343Y003194D01*
X000836Y004178D02*
X000838Y004222D01*
X000844Y004266D01*
X000854Y004309D01*
X000867Y004351D01*
X000885Y004391D01*
X000906Y004430D01*
X000930Y004467D01*
X000957Y004502D01*
X000988Y004534D01*
X001021Y004563D01*
X001057Y004589D01*
X001095Y004611D01*
X001135Y004630D01*
X001176Y004646D01*
X001219Y004658D01*
X001262Y004666D01*
X001306Y004670D01*
X001350Y004670D01*
X001394Y004666D01*
X001437Y004658D01*
X001480Y004646D01*
X001521Y004630D01*
X001561Y004611D01*
X001599Y004589D01*
X001635Y004563D01*
X001668Y004534D01*
X001699Y004502D01*
X001726Y004467D01*
X001750Y004430D01*
X001771Y004391D01*
X001789Y004351D01*
X001802Y004309D01*
X001812Y004266D01*
X001818Y004222D01*
X001820Y004178D01*
X001818Y004134D01*
X001812Y004090D01*
X001802Y004047D01*
X001789Y004005D01*
X001771Y003965D01*
X001750Y003926D01*
X001726Y003889D01*
X001699Y003854D01*
X001668Y003822D01*
X001635Y003793D01*
X001599Y003767D01*
X001561Y003745D01*
X001521Y003726D01*
X001480Y003710D01*
X001437Y003698D01*
X001394Y003690D01*
X001350Y003686D01*
X001306Y003686D01*
X001262Y003690D01*
X001219Y003698D01*
X001176Y003710D01*
X001135Y003726D01*
X001095Y003745D01*
X001057Y003767D01*
X001021Y003793D01*
X000988Y003822D01*
X000957Y003854D01*
X000930Y003889D01*
X000906Y003926D01*
X000885Y003965D01*
X000867Y004005D01*
X000854Y004047D01*
X000844Y004090D01*
X000838Y004134D01*
X000836Y004178D01*
X014615Y004178D02*
X014617Y004222D01*
X014623Y004266D01*
X014633Y004309D01*
X014646Y004351D01*
X014664Y004391D01*
X014685Y004430D01*
X014709Y004467D01*
X014736Y004502D01*
X014767Y004534D01*
X014800Y004563D01*
X014836Y004589D01*
X014874Y004611D01*
X014914Y004630D01*
X014955Y004646D01*
X014998Y004658D01*
X015041Y004666D01*
X015085Y004670D01*
X015129Y004670D01*
X015173Y004666D01*
X015216Y004658D01*
X015259Y004646D01*
X015300Y004630D01*
X015340Y004611D01*
X015378Y004589D01*
X015414Y004563D01*
X015447Y004534D01*
X015478Y004502D01*
X015505Y004467D01*
X015529Y004430D01*
X015550Y004391D01*
X015568Y004351D01*
X015581Y004309D01*
X015591Y004266D01*
X015597Y004222D01*
X015599Y004178D01*
X015597Y004134D01*
X015591Y004090D01*
X015581Y004047D01*
X015568Y004005D01*
X015550Y003965D01*
X015529Y003926D01*
X015505Y003889D01*
X015478Y003854D01*
X015447Y003822D01*
X015414Y003793D01*
X015378Y003767D01*
X015340Y003745D01*
X015300Y003726D01*
X015259Y003710D01*
X015216Y003698D01*
X015173Y003690D01*
X015129Y003686D01*
X015085Y003686D01*
X015041Y003690D01*
X014998Y003698D01*
X014955Y003710D01*
X014914Y003726D01*
X014874Y003745D01*
X014836Y003767D01*
X014800Y003793D01*
X014767Y003822D01*
X014736Y003854D01*
X014709Y003889D01*
X014685Y003926D01*
X014664Y003965D01*
X014646Y004005D01*
X014633Y004047D01*
X014623Y004090D01*
X014617Y004134D01*
X014615Y004178D01*
X018060Y003194D02*
X033808Y003194D01*
X033808Y041383D01*
X018060Y041383D01*
X018060Y003194D01*
X018552Y004178D02*
X018554Y004222D01*
X018560Y004266D01*
X018570Y004309D01*
X018583Y004351D01*
X018601Y004391D01*
X018622Y004430D01*
X018646Y004467D01*
X018673Y004502D01*
X018704Y004534D01*
X018737Y004563D01*
X018773Y004589D01*
X018811Y004611D01*
X018851Y004630D01*
X018892Y004646D01*
X018935Y004658D01*
X018978Y004666D01*
X019022Y004670D01*
X019066Y004670D01*
X019110Y004666D01*
X019153Y004658D01*
X019196Y004646D01*
X019237Y004630D01*
X019277Y004611D01*
X019315Y004589D01*
X019351Y004563D01*
X019384Y004534D01*
X019415Y004502D01*
X019442Y004467D01*
X019466Y004430D01*
X019487Y004391D01*
X019505Y004351D01*
X019518Y004309D01*
X019528Y004266D01*
X019534Y004222D01*
X019536Y004178D01*
X019534Y004134D01*
X019528Y004090D01*
X019518Y004047D01*
X019505Y004005D01*
X019487Y003965D01*
X019466Y003926D01*
X019442Y003889D01*
X019415Y003854D01*
X019384Y003822D01*
X019351Y003793D01*
X019315Y003767D01*
X019277Y003745D01*
X019237Y003726D01*
X019196Y003710D01*
X019153Y003698D01*
X019110Y003690D01*
X019066Y003686D01*
X019022Y003686D01*
X018978Y003690D01*
X018935Y003698D01*
X018892Y003710D01*
X018851Y003726D01*
X018811Y003745D01*
X018773Y003767D01*
X018737Y003793D01*
X018704Y003822D01*
X018673Y003854D01*
X018646Y003889D01*
X018622Y003926D01*
X018601Y003965D01*
X018583Y004005D01*
X018570Y004047D01*
X018560Y004090D01*
X018554Y004134D01*
X018552Y004178D01*
X032332Y004178D02*
X032334Y004222D01*
X032340Y004266D01*
X032350Y004309D01*
X032363Y004351D01*
X032381Y004391D01*
X032402Y004430D01*
X032426Y004467D01*
X032453Y004502D01*
X032484Y004534D01*
X032517Y004563D01*
X032553Y004589D01*
X032591Y004611D01*
X032631Y004630D01*
X032672Y004646D01*
X032715Y004658D01*
X032758Y004666D01*
X032802Y004670D01*
X032846Y004670D01*
X032890Y004666D01*
X032933Y004658D01*
X032976Y004646D01*
X033017Y004630D01*
X033057Y004611D01*
X033095Y004589D01*
X033131Y004563D01*
X033164Y004534D01*
X033195Y004502D01*
X033222Y004467D01*
X033246Y004430D01*
X033267Y004391D01*
X033285Y004351D01*
X033298Y004309D01*
X033308Y004266D01*
X033314Y004222D01*
X033316Y004178D01*
X033314Y004134D01*
X033308Y004090D01*
X033298Y004047D01*
X033285Y004005D01*
X033267Y003965D01*
X033246Y003926D01*
X033222Y003889D01*
X033195Y003854D01*
X033164Y003822D01*
X033131Y003793D01*
X033095Y003767D01*
X033057Y003745D01*
X033017Y003726D01*
X032976Y003710D01*
X032933Y003698D01*
X032890Y003690D01*
X032846Y003686D01*
X032802Y003686D01*
X032758Y003690D01*
X032715Y003698D01*
X032672Y003710D01*
X032631Y003726D01*
X032591Y003745D01*
X032553Y003767D01*
X032517Y003793D01*
X032484Y003822D01*
X032453Y003854D01*
X032426Y003889D01*
X032402Y003926D01*
X032381Y003965D01*
X032363Y004005D01*
X032350Y004047D01*
X032340Y004090D01*
X032334Y004134D01*
X032332Y004178D01*
X035776Y003194D02*
X051524Y003194D01*
X051524Y041383D01*
X035776Y041383D01*
X035776Y003194D01*
X036269Y004178D02*
X036271Y004222D01*
X036277Y004266D01*
X036287Y004309D01*
X036300Y004351D01*
X036318Y004391D01*
X036339Y004430D01*
X036363Y004467D01*
X036390Y004502D01*
X036421Y004534D01*
X036454Y004563D01*
X036490Y004589D01*
X036528Y004611D01*
X036568Y004630D01*
X036609Y004646D01*
X036652Y004658D01*
X036695Y004666D01*
X036739Y004670D01*
X036783Y004670D01*
X036827Y004666D01*
X036870Y004658D01*
X036913Y004646D01*
X036954Y004630D01*
X036994Y004611D01*
X037032Y004589D01*
X037068Y004563D01*
X037101Y004534D01*
X037132Y004502D01*
X037159Y004467D01*
X037183Y004430D01*
X037204Y004391D01*
X037222Y004351D01*
X037235Y004309D01*
X037245Y004266D01*
X037251Y004222D01*
X037253Y004178D01*
X037251Y004134D01*
X037245Y004090D01*
X037235Y004047D01*
X037222Y004005D01*
X037204Y003965D01*
X037183Y003926D01*
X037159Y003889D01*
X037132Y003854D01*
X037101Y003822D01*
X037068Y003793D01*
X037032Y003767D01*
X036994Y003745D01*
X036954Y003726D01*
X036913Y003710D01*
X036870Y003698D01*
X036827Y003690D01*
X036783Y003686D01*
X036739Y003686D01*
X036695Y003690D01*
X036652Y003698D01*
X036609Y003710D01*
X036568Y003726D01*
X036528Y003745D01*
X036490Y003767D01*
X036454Y003793D01*
X036421Y003822D01*
X036390Y003854D01*
X036363Y003889D01*
X036339Y003926D01*
X036318Y003965D01*
X036300Y004005D01*
X036287Y004047D01*
X036277Y004090D01*
X036271Y004134D01*
X036269Y004178D01*
X050048Y004178D02*
X050050Y004222D01*
X050056Y004266D01*
X050066Y004309D01*
X050079Y004351D01*
X050097Y004391D01*
X050118Y004430D01*
X050142Y004467D01*
X050169Y004502D01*
X050200Y004534D01*
X050233Y004563D01*
X050269Y004589D01*
X050307Y004611D01*
X050347Y004630D01*
X050388Y004646D01*
X050431Y004658D01*
X050474Y004666D01*
X050518Y004670D01*
X050562Y004670D01*
X050606Y004666D01*
X050649Y004658D01*
X050692Y004646D01*
X050733Y004630D01*
X050773Y004611D01*
X050811Y004589D01*
X050847Y004563D01*
X050880Y004534D01*
X050911Y004502D01*
X050938Y004467D01*
X050962Y004430D01*
X050983Y004391D01*
X051001Y004351D01*
X051014Y004309D01*
X051024Y004266D01*
X051030Y004222D01*
X051032Y004178D01*
X051030Y004134D01*
X051024Y004090D01*
X051014Y004047D01*
X051001Y004005D01*
X050983Y003965D01*
X050962Y003926D01*
X050938Y003889D01*
X050911Y003854D01*
X050880Y003822D01*
X050847Y003793D01*
X050811Y003767D01*
X050773Y003745D01*
X050733Y003726D01*
X050692Y003710D01*
X050649Y003698D01*
X050606Y003690D01*
X050562Y003686D01*
X050518Y003686D01*
X050474Y003690D01*
X050431Y003698D01*
X050388Y003710D01*
X050347Y003726D01*
X050307Y003745D01*
X050269Y003767D01*
X050233Y003793D01*
X050200Y003822D01*
X050169Y003854D01*
X050142Y003889D01*
X050118Y003926D01*
X050097Y003965D01*
X050079Y004005D01*
X050066Y004047D01*
X050056Y004090D01*
X050050Y004134D01*
X050048Y004178D01*
X050048Y040398D02*
X050050Y040442D01*
X050056Y040486D01*
X050066Y040529D01*
X050079Y040571D01*
X050097Y040611D01*
X050118Y040650D01*
X050142Y040687D01*
X050169Y040722D01*
X050200Y040754D01*
X050233Y040783D01*
X050269Y040809D01*
X050307Y040831D01*
X050347Y040850D01*
X050388Y040866D01*
X050431Y040878D01*
X050474Y040886D01*
X050518Y040890D01*
X050562Y040890D01*
X050606Y040886D01*
X050649Y040878D01*
X050692Y040866D01*
X050733Y040850D01*
X050773Y040831D01*
X050811Y040809D01*
X050847Y040783D01*
X050880Y040754D01*
X050911Y040722D01*
X050938Y040687D01*
X050962Y040650D01*
X050983Y040611D01*
X051001Y040571D01*
X051014Y040529D01*
X051024Y040486D01*
X051030Y040442D01*
X051032Y040398D01*
X051030Y040354D01*
X051024Y040310D01*
X051014Y040267D01*
X051001Y040225D01*
X050983Y040185D01*
X050962Y040146D01*
X050938Y040109D01*
X050911Y040074D01*
X050880Y040042D01*
X050847Y040013D01*
X050811Y039987D01*
X050773Y039965D01*
X050733Y039946D01*
X050692Y039930D01*
X050649Y039918D01*
X050606Y039910D01*
X050562Y039906D01*
X050518Y039906D01*
X050474Y039910D01*
X050431Y039918D01*
X050388Y039930D01*
X050347Y039946D01*
X050307Y039965D01*
X050269Y039987D01*
X050233Y040013D01*
X050200Y040042D01*
X050169Y040074D01*
X050142Y040109D01*
X050118Y040146D01*
X050097Y040185D01*
X050079Y040225D01*
X050066Y040267D01*
X050056Y040310D01*
X050050Y040354D01*
X050048Y040398D01*
X036269Y040398D02*
X036271Y040442D01*
X036277Y040486D01*
X036287Y040529D01*
X036300Y040571D01*
X036318Y040611D01*
X036339Y040650D01*
X036363Y040687D01*
X036390Y040722D01*
X036421Y040754D01*
X036454Y040783D01*
X036490Y040809D01*
X036528Y040831D01*
X036568Y040850D01*
X036609Y040866D01*
X036652Y040878D01*
X036695Y040886D01*
X036739Y040890D01*
X036783Y040890D01*
X036827Y040886D01*
X036870Y040878D01*
X036913Y040866D01*
X036954Y040850D01*
X036994Y040831D01*
X037032Y040809D01*
X037068Y040783D01*
X037101Y040754D01*
X037132Y040722D01*
X037159Y040687D01*
X037183Y040650D01*
X037204Y040611D01*
X037222Y040571D01*
X037235Y040529D01*
X037245Y040486D01*
X037251Y040442D01*
X037253Y040398D01*
X037251Y040354D01*
X037245Y040310D01*
X037235Y040267D01*
X037222Y040225D01*
X037204Y040185D01*
X037183Y040146D01*
X037159Y040109D01*
X037132Y040074D01*
X037101Y040042D01*
X037068Y040013D01*
X037032Y039987D01*
X036994Y039965D01*
X036954Y039946D01*
X036913Y039930D01*
X036870Y039918D01*
X036827Y039910D01*
X036783Y039906D01*
X036739Y039906D01*
X036695Y039910D01*
X036652Y039918D01*
X036609Y039930D01*
X036568Y039946D01*
X036528Y039965D01*
X036490Y039987D01*
X036454Y040013D01*
X036421Y040042D01*
X036390Y040074D01*
X036363Y040109D01*
X036339Y040146D01*
X036318Y040185D01*
X036300Y040225D01*
X036287Y040267D01*
X036277Y040310D01*
X036271Y040354D01*
X036269Y040398D01*
X032332Y040398D02*
X032334Y040442D01*
X032340Y040486D01*
X032350Y040529D01*
X032363Y040571D01*
X032381Y040611D01*
X032402Y040650D01*
X032426Y040687D01*
X032453Y040722D01*
X032484Y040754D01*
X032517Y040783D01*
X032553Y040809D01*
X032591Y040831D01*
X032631Y040850D01*
X032672Y040866D01*
X032715Y040878D01*
X032758Y040886D01*
X032802Y040890D01*
X032846Y040890D01*
X032890Y040886D01*
X032933Y040878D01*
X032976Y040866D01*
X033017Y040850D01*
X033057Y040831D01*
X033095Y040809D01*
X033131Y040783D01*
X033164Y040754D01*
X033195Y040722D01*
X033222Y040687D01*
X033246Y040650D01*
X033267Y040611D01*
X033285Y040571D01*
X033298Y040529D01*
X033308Y040486D01*
X033314Y040442D01*
X033316Y040398D01*
X033314Y040354D01*
X033308Y040310D01*
X033298Y040267D01*
X033285Y040225D01*
X033267Y040185D01*
X033246Y040146D01*
X033222Y040109D01*
X033195Y040074D01*
X033164Y040042D01*
X033131Y040013D01*
X033095Y039987D01*
X033057Y039965D01*
X033017Y039946D01*
X032976Y039930D01*
X032933Y039918D01*
X032890Y039910D01*
X032846Y039906D01*
X032802Y039906D01*
X032758Y039910D01*
X032715Y039918D01*
X032672Y039930D01*
X032631Y039946D01*
X032591Y039965D01*
X032553Y039987D01*
X032517Y040013D01*
X032484Y040042D01*
X032453Y040074D01*
X032426Y040109D01*
X032402Y040146D01*
X032381Y040185D01*
X032363Y040225D01*
X032350Y040267D01*
X032340Y040310D01*
X032334Y040354D01*
X032332Y040398D01*
X018552Y040398D02*
X018554Y040442D01*
X018560Y040486D01*
X018570Y040529D01*
X018583Y040571D01*
X018601Y040611D01*
X018622Y040650D01*
X018646Y040687D01*
X018673Y040722D01*
X018704Y040754D01*
X018737Y040783D01*
X018773Y040809D01*
X018811Y040831D01*
X018851Y040850D01*
X018892Y040866D01*
X018935Y040878D01*
X018978Y040886D01*
X019022Y040890D01*
X019066Y040890D01*
X019110Y040886D01*
X019153Y040878D01*
X019196Y040866D01*
X019237Y040850D01*
X019277Y040831D01*
X019315Y040809D01*
X019351Y040783D01*
X019384Y040754D01*
X019415Y040722D01*
X019442Y040687D01*
X019466Y040650D01*
X019487Y040611D01*
X019505Y040571D01*
X019518Y040529D01*
X019528Y040486D01*
X019534Y040442D01*
X019536Y040398D01*
X019534Y040354D01*
X019528Y040310D01*
X019518Y040267D01*
X019505Y040225D01*
X019487Y040185D01*
X019466Y040146D01*
X019442Y040109D01*
X019415Y040074D01*
X019384Y040042D01*
X019351Y040013D01*
X019315Y039987D01*
X019277Y039965D01*
X019237Y039946D01*
X019196Y039930D01*
X019153Y039918D01*
X019110Y039910D01*
X019066Y039906D01*
X019022Y039906D01*
X018978Y039910D01*
X018935Y039918D01*
X018892Y039930D01*
X018851Y039946D01*
X018811Y039965D01*
X018773Y039987D01*
X018737Y040013D01*
X018704Y040042D01*
X018673Y040074D01*
X018646Y040109D01*
X018622Y040146D01*
X018601Y040185D01*
X018583Y040225D01*
X018570Y040267D01*
X018560Y040310D01*
X018554Y040354D01*
X018552Y040398D01*
X014615Y040398D02*
X014617Y040442D01*
X014623Y040486D01*
X014633Y040529D01*
X014646Y040571D01*
X014664Y040611D01*
X014685Y040650D01*
X014709Y040687D01*
X014736Y040722D01*
X014767Y040754D01*
X014800Y040783D01*
X014836Y040809D01*
X014874Y040831D01*
X014914Y040850D01*
X014955Y040866D01*
X014998Y040878D01*
X015041Y040886D01*
X015085Y040890D01*
X015129Y040890D01*
X015173Y040886D01*
X015216Y040878D01*
X015259Y040866D01*
X015300Y040850D01*
X015340Y040831D01*
X015378Y040809D01*
X015414Y040783D01*
X015447Y040754D01*
X015478Y040722D01*
X015505Y040687D01*
X015529Y040650D01*
X015550Y040611D01*
X015568Y040571D01*
X015581Y040529D01*
X015591Y040486D01*
X015597Y040442D01*
X015599Y040398D01*
X015597Y040354D01*
X015591Y040310D01*
X015581Y040267D01*
X015568Y040225D01*
X015550Y040185D01*
X015529Y040146D01*
X015505Y040109D01*
X015478Y040074D01*
X015447Y040042D01*
X015414Y040013D01*
X015378Y039987D01*
X015340Y039965D01*
X015300Y039946D01*
X015259Y039930D01*
X015216Y039918D01*
X015173Y039910D01*
X015129Y039906D01*
X015085Y039906D01*
X015041Y039910D01*
X014998Y039918D01*
X014955Y039930D01*
X014914Y039946D01*
X014874Y039965D01*
X014836Y039987D01*
X014800Y040013D01*
X014767Y040042D01*
X014736Y040074D01*
X014709Y040109D01*
X014685Y040146D01*
X014664Y040185D01*
X014646Y040225D01*
X014633Y040267D01*
X014623Y040310D01*
X014617Y040354D01*
X014615Y040398D01*
X000836Y040398D02*
X000838Y040442D01*
X000844Y040486D01*
X000854Y040529D01*
X000867Y040571D01*
X000885Y040611D01*
X000906Y040650D01*
X000930Y040687D01*
X000957Y040722D01*
X000988Y040754D01*
X001021Y040783D01*
X001057Y040809D01*
X001095Y040831D01*
X001135Y040850D01*
X001176Y040866D01*
X001219Y040878D01*
X001262Y040886D01*
X001306Y040890D01*
X001350Y040890D01*
X001394Y040886D01*
X001437Y040878D01*
X001480Y040866D01*
X001521Y040850D01*
X001561Y040831D01*
X001599Y040809D01*
X001635Y040783D01*
X001668Y040754D01*
X001699Y040722D01*
X001726Y040687D01*
X001750Y040650D01*
X001771Y040611D01*
X001789Y040571D01*
X001802Y040529D01*
X001812Y040486D01*
X001818Y040442D01*
X001820Y040398D01*
X001818Y040354D01*
X001812Y040310D01*
X001802Y040267D01*
X001789Y040225D01*
X001771Y040185D01*
X001750Y040146D01*
X001726Y040109D01*
X001699Y040074D01*
X001668Y040042D01*
X001635Y040013D01*
X001599Y039987D01*
X001561Y039965D01*
X001521Y039946D01*
X001480Y039930D01*
X001437Y039918D01*
X001394Y039910D01*
X001350Y039906D01*
X001306Y039906D01*
X001262Y039910D01*
X001219Y039918D01*
X001176Y039930D01*
X001135Y039946D01*
X001095Y039965D01*
X001057Y039987D01*
X001021Y040013D01*
X000988Y040042D01*
X000957Y040074D01*
X000930Y040109D01*
X000906Y040146D01*
X000885Y040185D01*
X000867Y040225D01*
X000854Y040267D01*
X000844Y040310D01*
X000838Y040354D01*
X000836Y040398D01*
M02*
