%
M48
M72
T01C0.0320
T02C0.0354
T03C0.0394
T04C0.0433
%
T01
X18700Y4000
X18700Y5000
X20200Y9500
X24200Y9500
X25003Y9500
X29003Y9500
X27200Y5000
X27200Y4000
T02
X14700Y9669
X13913Y9669
X13125Y9669
X12338Y9669
X11550Y9669
X10763Y9669
X9976Y9669
X9188Y9669
X8401Y9669
X7613Y9669
X7613Y18331
X8401Y18331
X9188Y18331
X9976Y18331
X10763Y18331
X11550Y18331
X12338Y18331
X13125Y18331
X13913Y18331
X14700Y18331
T03
X4003Y1591
X5003Y1591
X5003Y2591
X4003Y2591
X4003Y3591
X5003Y3591
X6003Y3591
X7003Y3591
X8003Y3591
X9003Y3591
X10003Y3591
X11003Y3591
X12003Y3591
X13003Y3591
X13003Y4591
X12003Y4591
X12003Y5591
X13003Y5591
X11003Y5591
X10003Y5591
X9003Y5591
X8003Y5591
X7003Y5591
X6003Y5591
X5003Y5591
X4003Y5591
X4003Y4591
X5003Y4591
X6003Y4591
X7003Y4591
X8003Y4591
X9003Y4591
X10003Y4591
X11003Y4591
X11003Y2591
X10003Y2591
X9003Y2591
X8003Y2591
X7003Y2591
X6003Y2591
X6003Y1591
X7003Y1591
X8003Y1591
X9003Y1591
X10003Y1591
X11003Y1591
X12003Y1591
X13003Y1591
X13003Y2591
X12003Y2591
X15700Y1500
X16700Y1500
X17700Y1500
X18700Y1500
X19700Y1500
X20700Y1500
X22700Y1500
X23700Y1500
X24700Y1500
X25700Y1500
X26700Y1500
X27700Y1500
X24200Y4500
X23200Y4500
X22200Y4500
X21200Y4500
X20700Y20500
X21700Y20500
X22700Y20500
X23700Y20500
X24700Y20500
X25700Y20500
X26700Y20500
X27700Y20500
X19100Y20500
X18100Y20500
X17100Y20500
X16100Y20500
X15100Y20500
X14100Y20500
X13100Y20500
X12100Y20500
T04
X17976Y14500
X20338Y10957
X20700Y7500
X21700Y7500
X22700Y7500
X23700Y7500
X24700Y7500
X25700Y7500
X26700Y7500
X27700Y7500
X28700Y7500
X25062Y10957
X27424Y14500
X25062Y18043
X20338Y18043
X19700Y7500
X18700Y7500
X17700Y7500
M30
