G75*
%MOIN*%
%OFA0B0*%
%FSLAX24Y24*%
%IPPOS*%
%LPD*%
%AMOC8*
5,1,8,0,0,1.08239X$1,22.5*
%
%ADD10OC8,0.0740*%
%ADD11C,0.0634*%
%ADD12C,0.0674*%
%ADD13C,0.0730*%
%ADD14R,0.0551X0.0630*%
%ADD15OC8,0.0600*%
%ADD16R,0.0671X0.0671*%
D10*
X015700Y001500D03*
X016700Y001500D03*
X017700Y001500D03*
X018700Y001500D03*
X019700Y001500D03*
X020700Y001500D03*
X022700Y001500D03*
X023700Y001500D03*
X024700Y001500D03*
X025700Y001500D03*
X026700Y001500D03*
X027700Y001500D03*
X029003Y009500D03*
X025003Y009500D03*
X024200Y009500D03*
X020200Y009500D03*
X020700Y020500D03*
X021700Y020500D03*
X022700Y020500D03*
X023700Y020500D03*
X024700Y020500D03*
X025700Y020500D03*
X026700Y020500D03*
X027700Y020500D03*
X019100Y020500D03*
X018100Y020500D03*
X017100Y020500D03*
X016100Y020500D03*
X015100Y020500D03*
X014100Y020500D03*
X013100Y020500D03*
X012100Y020500D03*
D11*
X012338Y018331D03*
X013125Y018331D03*
X013913Y018331D03*
X014700Y018331D03*
X011550Y018331D03*
X010763Y018331D03*
X009976Y018331D03*
X009188Y018331D03*
X008401Y018331D03*
X007613Y018331D03*
X007613Y009669D03*
X008401Y009669D03*
X009188Y009669D03*
X009976Y009669D03*
X010763Y009669D03*
X011550Y009669D03*
X012338Y009669D03*
X013125Y009669D03*
X013913Y009669D03*
X014700Y009669D03*
D12*
X021200Y004500D03*
X022200Y004500D03*
X023200Y004500D03*
X024200Y004500D03*
D13*
X023700Y007500D03*
X024700Y007500D03*
X025700Y007500D03*
X026700Y007500D03*
X027700Y007500D03*
X028700Y007500D03*
X025062Y010957D03*
X022700Y007500D03*
X021700Y007500D03*
X020700Y007500D03*
X019700Y007500D03*
X018700Y007500D03*
X017700Y007500D03*
X020338Y010957D03*
X017976Y014500D03*
X020338Y018043D03*
X025062Y018043D03*
X027424Y014500D03*
D14*
X027407Y009500D03*
X026599Y009500D03*
X022604Y009500D03*
X021796Y009500D03*
D15*
X018700Y005000D03*
X018700Y004000D03*
X027200Y004000D03*
X027200Y005000D03*
D16*
X004003Y001591D03*
X005003Y001591D03*
X005003Y002591D03*
X004003Y002591D03*
X004003Y003591D03*
X005003Y003591D03*
X006003Y003591D03*
X007003Y003591D03*
X008003Y003591D03*
X009003Y003591D03*
X010003Y003591D03*
X011003Y003591D03*
X012003Y003591D03*
X013003Y003591D03*
X013003Y004591D03*
X012003Y004591D03*
X012003Y005591D03*
X013003Y005591D03*
X011003Y005591D03*
X010003Y005591D03*
X009003Y005591D03*
X008003Y005591D03*
X007003Y005591D03*
X006003Y005591D03*
X005003Y005591D03*
X004003Y005591D03*
X004003Y004591D03*
X005003Y004591D03*
X006003Y004591D03*
X007003Y004591D03*
X008003Y004591D03*
X009003Y004591D03*
X010003Y004591D03*
X011003Y004591D03*
X011003Y002591D03*
X010003Y002591D03*
X009003Y002591D03*
X008003Y002591D03*
X007003Y002591D03*
X006003Y002591D03*
X006003Y001591D03*
X007003Y001591D03*
X008003Y001591D03*
X009003Y001591D03*
X010003Y001591D03*
X011003Y001591D03*
X012003Y001591D03*
X013003Y001591D03*
X013003Y002591D03*
X012003Y002591D03*
M02*
