G75*
%MOIN*%
%OFA0B0*%
%FSLAX24Y24*%
%IPPOS*%
%LPD*%
%AMOC8*
5,1,8,0,0,1.08239X$1,22.5*
%
%ADD10C,0.0000*%
D10*
X000100Y000100D02*
X000100Y033565D01*
X057580Y033565D01*
X057580Y000100D01*
X000100Y000100D01*
X000986Y001675D02*
X000988Y001727D01*
X000994Y001779D01*
X001004Y001830D01*
X001017Y001880D01*
X001035Y001930D01*
X001056Y001977D01*
X001080Y002023D01*
X001109Y002067D01*
X001140Y002109D01*
X001174Y002148D01*
X001211Y002185D01*
X001251Y002218D01*
X001294Y002249D01*
X001338Y002276D01*
X001384Y002300D01*
X001433Y002320D01*
X001482Y002336D01*
X001533Y002349D01*
X001584Y002358D01*
X001636Y002363D01*
X001688Y002364D01*
X001740Y002361D01*
X001792Y002354D01*
X001843Y002343D01*
X001893Y002329D01*
X001942Y002310D01*
X001989Y002288D01*
X002034Y002263D01*
X002078Y002234D01*
X002119Y002202D01*
X002158Y002167D01*
X002193Y002129D01*
X002226Y002088D01*
X002256Y002046D01*
X002282Y002001D01*
X002305Y001954D01*
X002324Y001905D01*
X002340Y001855D01*
X002352Y001805D01*
X002360Y001753D01*
X002364Y001701D01*
X002364Y001649D01*
X002360Y001597D01*
X002352Y001545D01*
X002340Y001495D01*
X002324Y001445D01*
X002305Y001396D01*
X002282Y001349D01*
X002256Y001304D01*
X002226Y001262D01*
X002193Y001221D01*
X002158Y001183D01*
X002119Y001148D01*
X002078Y001116D01*
X002034Y001087D01*
X001989Y001062D01*
X001942Y001040D01*
X001893Y001021D01*
X001843Y001007D01*
X001792Y000996D01*
X001740Y000989D01*
X001688Y000986D01*
X001636Y000987D01*
X001584Y000992D01*
X001533Y001001D01*
X001482Y001014D01*
X001433Y001030D01*
X001384Y001050D01*
X001338Y001074D01*
X001294Y001101D01*
X001251Y001132D01*
X001211Y001165D01*
X001174Y001202D01*
X001140Y001241D01*
X001109Y001283D01*
X001080Y001327D01*
X001056Y001373D01*
X001035Y001420D01*
X001017Y001470D01*
X001004Y001520D01*
X000994Y001571D01*
X000988Y001623D01*
X000986Y001675D01*
X001399Y005612D02*
X001401Y005657D01*
X001407Y005701D01*
X001416Y005745D01*
X001430Y005787D01*
X001447Y005828D01*
X001468Y005868D01*
X001492Y005906D01*
X001519Y005941D01*
X001549Y005974D01*
X001582Y006004D01*
X001617Y006031D01*
X001655Y006055D01*
X001695Y006076D01*
X001736Y006093D01*
X001778Y006107D01*
X001822Y006116D01*
X001866Y006122D01*
X001911Y006124D01*
X001956Y006122D01*
X002000Y006116D01*
X002044Y006107D01*
X002086Y006093D01*
X002127Y006076D01*
X002167Y006055D01*
X002205Y006031D01*
X002240Y006004D01*
X002273Y005974D01*
X002303Y005941D01*
X002330Y005906D01*
X002354Y005868D01*
X002375Y005828D01*
X002392Y005787D01*
X002406Y005745D01*
X002415Y005701D01*
X002421Y005657D01*
X002423Y005612D01*
X002421Y005567D01*
X002415Y005523D01*
X002406Y005479D01*
X002392Y005437D01*
X002375Y005396D01*
X002354Y005356D01*
X002330Y005318D01*
X002303Y005283D01*
X002273Y005250D01*
X002240Y005220D01*
X002205Y005193D01*
X002167Y005169D01*
X002127Y005148D01*
X002086Y005131D01*
X002044Y005117D01*
X002000Y005108D01*
X001956Y005102D01*
X001911Y005100D01*
X001866Y005102D01*
X001822Y005108D01*
X001778Y005117D01*
X001736Y005131D01*
X001695Y005148D01*
X001655Y005169D01*
X001617Y005193D01*
X001582Y005220D01*
X001549Y005250D01*
X001519Y005283D01*
X001492Y005318D01*
X001468Y005356D01*
X001447Y005396D01*
X001430Y005437D01*
X001416Y005479D01*
X001407Y005523D01*
X001401Y005567D01*
X001399Y005612D01*
X007226Y005612D02*
X007228Y005657D01*
X007234Y005701D01*
X007243Y005745D01*
X007257Y005787D01*
X007274Y005828D01*
X007295Y005868D01*
X007319Y005906D01*
X007346Y005941D01*
X007376Y005974D01*
X007409Y006004D01*
X007444Y006031D01*
X007482Y006055D01*
X007522Y006076D01*
X007563Y006093D01*
X007605Y006107D01*
X007649Y006116D01*
X007693Y006122D01*
X007738Y006124D01*
X007783Y006122D01*
X007827Y006116D01*
X007871Y006107D01*
X007913Y006093D01*
X007954Y006076D01*
X007994Y006055D01*
X008032Y006031D01*
X008067Y006004D01*
X008100Y005974D01*
X008130Y005941D01*
X008157Y005906D01*
X008181Y005868D01*
X008202Y005828D01*
X008219Y005787D01*
X008233Y005745D01*
X008242Y005701D01*
X008248Y005657D01*
X008250Y005612D01*
X008248Y005567D01*
X008242Y005523D01*
X008233Y005479D01*
X008219Y005437D01*
X008202Y005396D01*
X008181Y005356D01*
X008157Y005318D01*
X008130Y005283D01*
X008100Y005250D01*
X008067Y005220D01*
X008032Y005193D01*
X007994Y005169D01*
X007954Y005148D01*
X007913Y005131D01*
X007871Y005117D01*
X007827Y005108D01*
X007783Y005102D01*
X007738Y005100D01*
X007693Y005102D01*
X007649Y005108D01*
X007605Y005117D01*
X007563Y005131D01*
X007522Y005148D01*
X007482Y005169D01*
X007444Y005193D01*
X007409Y005220D01*
X007376Y005250D01*
X007346Y005283D01*
X007319Y005318D01*
X007295Y005356D01*
X007274Y005396D01*
X007257Y005437D01*
X007243Y005479D01*
X007234Y005523D01*
X007228Y005567D01*
X007226Y005612D01*
X009273Y005612D02*
X009275Y005657D01*
X009281Y005701D01*
X009290Y005745D01*
X009304Y005787D01*
X009321Y005828D01*
X009342Y005868D01*
X009366Y005906D01*
X009393Y005941D01*
X009423Y005974D01*
X009456Y006004D01*
X009491Y006031D01*
X009529Y006055D01*
X009569Y006076D01*
X009610Y006093D01*
X009652Y006107D01*
X009696Y006116D01*
X009740Y006122D01*
X009785Y006124D01*
X009830Y006122D01*
X009874Y006116D01*
X009918Y006107D01*
X009960Y006093D01*
X010001Y006076D01*
X010041Y006055D01*
X010079Y006031D01*
X010114Y006004D01*
X010147Y005974D01*
X010177Y005941D01*
X010204Y005906D01*
X010228Y005868D01*
X010249Y005828D01*
X010266Y005787D01*
X010280Y005745D01*
X010289Y005701D01*
X010295Y005657D01*
X010297Y005612D01*
X010295Y005567D01*
X010289Y005523D01*
X010280Y005479D01*
X010266Y005437D01*
X010249Y005396D01*
X010228Y005356D01*
X010204Y005318D01*
X010177Y005283D01*
X010147Y005250D01*
X010114Y005220D01*
X010079Y005193D01*
X010041Y005169D01*
X010001Y005148D01*
X009960Y005131D01*
X009918Y005117D01*
X009874Y005108D01*
X009830Y005102D01*
X009785Y005100D01*
X009740Y005102D01*
X009696Y005108D01*
X009652Y005117D01*
X009610Y005131D01*
X009569Y005148D01*
X009529Y005169D01*
X009491Y005193D01*
X009456Y005220D01*
X009423Y005250D01*
X009393Y005283D01*
X009366Y005318D01*
X009342Y005356D01*
X009321Y005396D01*
X009304Y005437D01*
X009290Y005479D01*
X009281Y005523D01*
X009275Y005567D01*
X009273Y005612D01*
X015100Y005612D02*
X015102Y005657D01*
X015108Y005701D01*
X015117Y005745D01*
X015131Y005787D01*
X015148Y005828D01*
X015169Y005868D01*
X015193Y005906D01*
X015220Y005941D01*
X015250Y005974D01*
X015283Y006004D01*
X015318Y006031D01*
X015356Y006055D01*
X015396Y006076D01*
X015437Y006093D01*
X015479Y006107D01*
X015523Y006116D01*
X015567Y006122D01*
X015612Y006124D01*
X015657Y006122D01*
X015701Y006116D01*
X015745Y006107D01*
X015787Y006093D01*
X015828Y006076D01*
X015868Y006055D01*
X015906Y006031D01*
X015941Y006004D01*
X015974Y005974D01*
X016004Y005941D01*
X016031Y005906D01*
X016055Y005868D01*
X016076Y005828D01*
X016093Y005787D01*
X016107Y005745D01*
X016116Y005701D01*
X016122Y005657D01*
X016124Y005612D01*
X016122Y005567D01*
X016116Y005523D01*
X016107Y005479D01*
X016093Y005437D01*
X016076Y005396D01*
X016055Y005356D01*
X016031Y005318D01*
X016004Y005283D01*
X015974Y005250D01*
X015941Y005220D01*
X015906Y005193D01*
X015868Y005169D01*
X015828Y005148D01*
X015787Y005131D01*
X015745Y005117D01*
X015701Y005108D01*
X015657Y005102D01*
X015612Y005100D01*
X015567Y005102D01*
X015523Y005108D01*
X015479Y005117D01*
X015437Y005131D01*
X015396Y005148D01*
X015356Y005169D01*
X015318Y005193D01*
X015283Y005220D01*
X015250Y005250D01*
X015220Y005283D01*
X015193Y005318D01*
X015169Y005356D01*
X015148Y005396D01*
X015131Y005437D01*
X015117Y005479D01*
X015108Y005523D01*
X015102Y005567D01*
X015100Y005612D01*
X017147Y005612D02*
X017149Y005657D01*
X017155Y005701D01*
X017164Y005745D01*
X017178Y005787D01*
X017195Y005828D01*
X017216Y005868D01*
X017240Y005906D01*
X017267Y005941D01*
X017297Y005974D01*
X017330Y006004D01*
X017365Y006031D01*
X017403Y006055D01*
X017443Y006076D01*
X017484Y006093D01*
X017526Y006107D01*
X017570Y006116D01*
X017614Y006122D01*
X017659Y006124D01*
X017704Y006122D01*
X017748Y006116D01*
X017792Y006107D01*
X017834Y006093D01*
X017875Y006076D01*
X017915Y006055D01*
X017953Y006031D01*
X017988Y006004D01*
X018021Y005974D01*
X018051Y005941D01*
X018078Y005906D01*
X018102Y005868D01*
X018123Y005828D01*
X018140Y005787D01*
X018154Y005745D01*
X018163Y005701D01*
X018169Y005657D01*
X018171Y005612D01*
X018169Y005567D01*
X018163Y005523D01*
X018154Y005479D01*
X018140Y005437D01*
X018123Y005396D01*
X018102Y005356D01*
X018078Y005318D01*
X018051Y005283D01*
X018021Y005250D01*
X017988Y005220D01*
X017953Y005193D01*
X017915Y005169D01*
X017875Y005148D01*
X017834Y005131D01*
X017792Y005117D01*
X017748Y005108D01*
X017704Y005102D01*
X017659Y005100D01*
X017614Y005102D01*
X017570Y005108D01*
X017526Y005117D01*
X017484Y005131D01*
X017443Y005148D01*
X017403Y005169D01*
X017365Y005193D01*
X017330Y005220D01*
X017297Y005250D01*
X017267Y005283D01*
X017240Y005318D01*
X017216Y005356D01*
X017195Y005396D01*
X017178Y005437D01*
X017164Y005479D01*
X017155Y005523D01*
X017149Y005567D01*
X017147Y005612D01*
X022974Y005612D02*
X022976Y005657D01*
X022982Y005701D01*
X022991Y005745D01*
X023005Y005787D01*
X023022Y005828D01*
X023043Y005868D01*
X023067Y005906D01*
X023094Y005941D01*
X023124Y005974D01*
X023157Y006004D01*
X023192Y006031D01*
X023230Y006055D01*
X023270Y006076D01*
X023311Y006093D01*
X023353Y006107D01*
X023397Y006116D01*
X023441Y006122D01*
X023486Y006124D01*
X023531Y006122D01*
X023575Y006116D01*
X023619Y006107D01*
X023661Y006093D01*
X023702Y006076D01*
X023742Y006055D01*
X023780Y006031D01*
X023815Y006004D01*
X023848Y005974D01*
X023878Y005941D01*
X023905Y005906D01*
X023929Y005868D01*
X023950Y005828D01*
X023967Y005787D01*
X023981Y005745D01*
X023990Y005701D01*
X023996Y005657D01*
X023998Y005612D01*
X023996Y005567D01*
X023990Y005523D01*
X023981Y005479D01*
X023967Y005437D01*
X023950Y005396D01*
X023929Y005356D01*
X023905Y005318D01*
X023878Y005283D01*
X023848Y005250D01*
X023815Y005220D01*
X023780Y005193D01*
X023742Y005169D01*
X023702Y005148D01*
X023661Y005131D01*
X023619Y005117D01*
X023575Y005108D01*
X023531Y005102D01*
X023486Y005100D01*
X023441Y005102D01*
X023397Y005108D01*
X023353Y005117D01*
X023311Y005131D01*
X023270Y005148D01*
X023230Y005169D01*
X023192Y005193D01*
X023157Y005220D01*
X023124Y005250D01*
X023094Y005283D01*
X023067Y005318D01*
X023043Y005356D01*
X023022Y005396D01*
X023005Y005437D01*
X022991Y005479D01*
X022982Y005523D01*
X022976Y005567D01*
X022974Y005612D01*
X025021Y005612D02*
X025023Y005657D01*
X025029Y005701D01*
X025038Y005745D01*
X025052Y005787D01*
X025069Y005828D01*
X025090Y005868D01*
X025114Y005906D01*
X025141Y005941D01*
X025171Y005974D01*
X025204Y006004D01*
X025239Y006031D01*
X025277Y006055D01*
X025317Y006076D01*
X025358Y006093D01*
X025400Y006107D01*
X025444Y006116D01*
X025488Y006122D01*
X025533Y006124D01*
X025578Y006122D01*
X025622Y006116D01*
X025666Y006107D01*
X025708Y006093D01*
X025749Y006076D01*
X025789Y006055D01*
X025827Y006031D01*
X025862Y006004D01*
X025895Y005974D01*
X025925Y005941D01*
X025952Y005906D01*
X025976Y005868D01*
X025997Y005828D01*
X026014Y005787D01*
X026028Y005745D01*
X026037Y005701D01*
X026043Y005657D01*
X026045Y005612D01*
X026043Y005567D01*
X026037Y005523D01*
X026028Y005479D01*
X026014Y005437D01*
X025997Y005396D01*
X025976Y005356D01*
X025952Y005318D01*
X025925Y005283D01*
X025895Y005250D01*
X025862Y005220D01*
X025827Y005193D01*
X025789Y005169D01*
X025749Y005148D01*
X025708Y005131D01*
X025666Y005117D01*
X025622Y005108D01*
X025578Y005102D01*
X025533Y005100D01*
X025488Y005102D01*
X025444Y005108D01*
X025400Y005117D01*
X025358Y005131D01*
X025317Y005148D01*
X025277Y005169D01*
X025239Y005193D01*
X025204Y005220D01*
X025171Y005250D01*
X025141Y005283D01*
X025114Y005318D01*
X025090Y005356D01*
X025069Y005396D01*
X025052Y005437D01*
X025038Y005479D01*
X025029Y005523D01*
X025023Y005567D01*
X025021Y005612D01*
X030848Y005612D02*
X030850Y005657D01*
X030856Y005701D01*
X030865Y005745D01*
X030879Y005787D01*
X030896Y005828D01*
X030917Y005868D01*
X030941Y005906D01*
X030968Y005941D01*
X030998Y005974D01*
X031031Y006004D01*
X031066Y006031D01*
X031104Y006055D01*
X031144Y006076D01*
X031185Y006093D01*
X031227Y006107D01*
X031271Y006116D01*
X031315Y006122D01*
X031360Y006124D01*
X031405Y006122D01*
X031449Y006116D01*
X031493Y006107D01*
X031535Y006093D01*
X031576Y006076D01*
X031616Y006055D01*
X031654Y006031D01*
X031689Y006004D01*
X031722Y005974D01*
X031752Y005941D01*
X031779Y005906D01*
X031803Y005868D01*
X031824Y005828D01*
X031841Y005787D01*
X031855Y005745D01*
X031864Y005701D01*
X031870Y005657D01*
X031872Y005612D01*
X031870Y005567D01*
X031864Y005523D01*
X031855Y005479D01*
X031841Y005437D01*
X031824Y005396D01*
X031803Y005356D01*
X031779Y005318D01*
X031752Y005283D01*
X031722Y005250D01*
X031689Y005220D01*
X031654Y005193D01*
X031616Y005169D01*
X031576Y005148D01*
X031535Y005131D01*
X031493Y005117D01*
X031449Y005108D01*
X031405Y005102D01*
X031360Y005100D01*
X031315Y005102D01*
X031271Y005108D01*
X031227Y005117D01*
X031185Y005131D01*
X031144Y005148D01*
X031104Y005169D01*
X031066Y005193D01*
X031031Y005220D01*
X030998Y005250D01*
X030968Y005283D01*
X030941Y005318D01*
X030917Y005356D01*
X030896Y005396D01*
X030879Y005437D01*
X030865Y005479D01*
X030856Y005523D01*
X030850Y005567D01*
X030848Y005612D01*
X032895Y005612D02*
X032897Y005657D01*
X032903Y005701D01*
X032912Y005745D01*
X032926Y005787D01*
X032943Y005828D01*
X032964Y005868D01*
X032988Y005906D01*
X033015Y005941D01*
X033045Y005974D01*
X033078Y006004D01*
X033113Y006031D01*
X033151Y006055D01*
X033191Y006076D01*
X033232Y006093D01*
X033274Y006107D01*
X033318Y006116D01*
X033362Y006122D01*
X033407Y006124D01*
X033452Y006122D01*
X033496Y006116D01*
X033540Y006107D01*
X033582Y006093D01*
X033623Y006076D01*
X033663Y006055D01*
X033701Y006031D01*
X033736Y006004D01*
X033769Y005974D01*
X033799Y005941D01*
X033826Y005906D01*
X033850Y005868D01*
X033871Y005828D01*
X033888Y005787D01*
X033902Y005745D01*
X033911Y005701D01*
X033917Y005657D01*
X033919Y005612D01*
X033917Y005567D01*
X033911Y005523D01*
X033902Y005479D01*
X033888Y005437D01*
X033871Y005396D01*
X033850Y005356D01*
X033826Y005318D01*
X033799Y005283D01*
X033769Y005250D01*
X033736Y005220D01*
X033701Y005193D01*
X033663Y005169D01*
X033623Y005148D01*
X033582Y005131D01*
X033540Y005117D01*
X033496Y005108D01*
X033452Y005102D01*
X033407Y005100D01*
X033362Y005102D01*
X033318Y005108D01*
X033274Y005117D01*
X033232Y005131D01*
X033191Y005148D01*
X033151Y005169D01*
X033113Y005193D01*
X033078Y005220D01*
X033045Y005250D01*
X033015Y005283D01*
X032988Y005318D01*
X032964Y005356D01*
X032943Y005396D01*
X032926Y005437D01*
X032912Y005479D01*
X032903Y005523D01*
X032897Y005567D01*
X032895Y005612D01*
X038722Y005612D02*
X038724Y005657D01*
X038730Y005701D01*
X038739Y005745D01*
X038753Y005787D01*
X038770Y005828D01*
X038791Y005868D01*
X038815Y005906D01*
X038842Y005941D01*
X038872Y005974D01*
X038905Y006004D01*
X038940Y006031D01*
X038978Y006055D01*
X039018Y006076D01*
X039059Y006093D01*
X039101Y006107D01*
X039145Y006116D01*
X039189Y006122D01*
X039234Y006124D01*
X039279Y006122D01*
X039323Y006116D01*
X039367Y006107D01*
X039409Y006093D01*
X039450Y006076D01*
X039490Y006055D01*
X039528Y006031D01*
X039563Y006004D01*
X039596Y005974D01*
X039626Y005941D01*
X039653Y005906D01*
X039677Y005868D01*
X039698Y005828D01*
X039715Y005787D01*
X039729Y005745D01*
X039738Y005701D01*
X039744Y005657D01*
X039746Y005612D01*
X039744Y005567D01*
X039738Y005523D01*
X039729Y005479D01*
X039715Y005437D01*
X039698Y005396D01*
X039677Y005356D01*
X039653Y005318D01*
X039626Y005283D01*
X039596Y005250D01*
X039563Y005220D01*
X039528Y005193D01*
X039490Y005169D01*
X039450Y005148D01*
X039409Y005131D01*
X039367Y005117D01*
X039323Y005108D01*
X039279Y005102D01*
X039234Y005100D01*
X039189Y005102D01*
X039145Y005108D01*
X039101Y005117D01*
X039059Y005131D01*
X039018Y005148D01*
X038978Y005169D01*
X038940Y005193D01*
X038905Y005220D01*
X038872Y005250D01*
X038842Y005283D01*
X038815Y005318D01*
X038791Y005356D01*
X038770Y005396D01*
X038753Y005437D01*
X038739Y005479D01*
X038730Y005523D01*
X038724Y005567D01*
X038722Y005612D01*
X040769Y005612D02*
X040771Y005657D01*
X040777Y005701D01*
X040786Y005745D01*
X040800Y005787D01*
X040817Y005828D01*
X040838Y005868D01*
X040862Y005906D01*
X040889Y005941D01*
X040919Y005974D01*
X040952Y006004D01*
X040987Y006031D01*
X041025Y006055D01*
X041065Y006076D01*
X041106Y006093D01*
X041148Y006107D01*
X041192Y006116D01*
X041236Y006122D01*
X041281Y006124D01*
X041326Y006122D01*
X041370Y006116D01*
X041414Y006107D01*
X041456Y006093D01*
X041497Y006076D01*
X041537Y006055D01*
X041575Y006031D01*
X041610Y006004D01*
X041643Y005974D01*
X041673Y005941D01*
X041700Y005906D01*
X041724Y005868D01*
X041745Y005828D01*
X041762Y005787D01*
X041776Y005745D01*
X041785Y005701D01*
X041791Y005657D01*
X041793Y005612D01*
X041791Y005567D01*
X041785Y005523D01*
X041776Y005479D01*
X041762Y005437D01*
X041745Y005396D01*
X041724Y005356D01*
X041700Y005318D01*
X041673Y005283D01*
X041643Y005250D01*
X041610Y005220D01*
X041575Y005193D01*
X041537Y005169D01*
X041497Y005148D01*
X041456Y005131D01*
X041414Y005117D01*
X041370Y005108D01*
X041326Y005102D01*
X041281Y005100D01*
X041236Y005102D01*
X041192Y005108D01*
X041148Y005117D01*
X041106Y005131D01*
X041065Y005148D01*
X041025Y005169D01*
X040987Y005193D01*
X040952Y005220D01*
X040919Y005250D01*
X040889Y005283D01*
X040862Y005318D01*
X040838Y005356D01*
X040817Y005396D01*
X040800Y005437D01*
X040786Y005479D01*
X040777Y005523D01*
X040771Y005567D01*
X040769Y005612D01*
X046596Y005612D02*
X046598Y005657D01*
X046604Y005701D01*
X046613Y005745D01*
X046627Y005787D01*
X046644Y005828D01*
X046665Y005868D01*
X046689Y005906D01*
X046716Y005941D01*
X046746Y005974D01*
X046779Y006004D01*
X046814Y006031D01*
X046852Y006055D01*
X046892Y006076D01*
X046933Y006093D01*
X046975Y006107D01*
X047019Y006116D01*
X047063Y006122D01*
X047108Y006124D01*
X047153Y006122D01*
X047197Y006116D01*
X047241Y006107D01*
X047283Y006093D01*
X047324Y006076D01*
X047364Y006055D01*
X047402Y006031D01*
X047437Y006004D01*
X047470Y005974D01*
X047500Y005941D01*
X047527Y005906D01*
X047551Y005868D01*
X047572Y005828D01*
X047589Y005787D01*
X047603Y005745D01*
X047612Y005701D01*
X047618Y005657D01*
X047620Y005612D01*
X047618Y005567D01*
X047612Y005523D01*
X047603Y005479D01*
X047589Y005437D01*
X047572Y005396D01*
X047551Y005356D01*
X047527Y005318D01*
X047500Y005283D01*
X047470Y005250D01*
X047437Y005220D01*
X047402Y005193D01*
X047364Y005169D01*
X047324Y005148D01*
X047283Y005131D01*
X047241Y005117D01*
X047197Y005108D01*
X047153Y005102D01*
X047108Y005100D01*
X047063Y005102D01*
X047019Y005108D01*
X046975Y005117D01*
X046933Y005131D01*
X046892Y005148D01*
X046852Y005169D01*
X046814Y005193D01*
X046779Y005220D01*
X046746Y005250D01*
X046716Y005283D01*
X046689Y005318D01*
X046665Y005356D01*
X046644Y005396D01*
X046627Y005437D01*
X046613Y005479D01*
X046604Y005523D01*
X046598Y005567D01*
X046596Y005612D01*
X048643Y005612D02*
X048645Y005657D01*
X048651Y005701D01*
X048660Y005745D01*
X048674Y005787D01*
X048691Y005828D01*
X048712Y005868D01*
X048736Y005906D01*
X048763Y005941D01*
X048793Y005974D01*
X048826Y006004D01*
X048861Y006031D01*
X048899Y006055D01*
X048939Y006076D01*
X048980Y006093D01*
X049022Y006107D01*
X049066Y006116D01*
X049110Y006122D01*
X049155Y006124D01*
X049200Y006122D01*
X049244Y006116D01*
X049288Y006107D01*
X049330Y006093D01*
X049371Y006076D01*
X049411Y006055D01*
X049449Y006031D01*
X049484Y006004D01*
X049517Y005974D01*
X049547Y005941D01*
X049574Y005906D01*
X049598Y005868D01*
X049619Y005828D01*
X049636Y005787D01*
X049650Y005745D01*
X049659Y005701D01*
X049665Y005657D01*
X049667Y005612D01*
X049665Y005567D01*
X049659Y005523D01*
X049650Y005479D01*
X049636Y005437D01*
X049619Y005396D01*
X049598Y005356D01*
X049574Y005318D01*
X049547Y005283D01*
X049517Y005250D01*
X049484Y005220D01*
X049449Y005193D01*
X049411Y005169D01*
X049371Y005148D01*
X049330Y005131D01*
X049288Y005117D01*
X049244Y005108D01*
X049200Y005102D01*
X049155Y005100D01*
X049110Y005102D01*
X049066Y005108D01*
X049022Y005117D01*
X048980Y005131D01*
X048939Y005148D01*
X048899Y005169D01*
X048861Y005193D01*
X048826Y005220D01*
X048793Y005250D01*
X048763Y005283D01*
X048736Y005318D01*
X048712Y005356D01*
X048691Y005396D01*
X048674Y005437D01*
X048660Y005479D01*
X048651Y005523D01*
X048645Y005567D01*
X048643Y005612D01*
X054470Y005612D02*
X054472Y005657D01*
X054478Y005701D01*
X054487Y005745D01*
X054501Y005787D01*
X054518Y005828D01*
X054539Y005868D01*
X054563Y005906D01*
X054590Y005941D01*
X054620Y005974D01*
X054653Y006004D01*
X054688Y006031D01*
X054726Y006055D01*
X054766Y006076D01*
X054807Y006093D01*
X054849Y006107D01*
X054893Y006116D01*
X054937Y006122D01*
X054982Y006124D01*
X055027Y006122D01*
X055071Y006116D01*
X055115Y006107D01*
X055157Y006093D01*
X055198Y006076D01*
X055238Y006055D01*
X055276Y006031D01*
X055311Y006004D01*
X055344Y005974D01*
X055374Y005941D01*
X055401Y005906D01*
X055425Y005868D01*
X055446Y005828D01*
X055463Y005787D01*
X055477Y005745D01*
X055486Y005701D01*
X055492Y005657D01*
X055494Y005612D01*
X055492Y005567D01*
X055486Y005523D01*
X055477Y005479D01*
X055463Y005437D01*
X055446Y005396D01*
X055425Y005356D01*
X055401Y005318D01*
X055374Y005283D01*
X055344Y005250D01*
X055311Y005220D01*
X055276Y005193D01*
X055238Y005169D01*
X055198Y005148D01*
X055157Y005131D01*
X055115Y005117D01*
X055071Y005108D01*
X055027Y005102D01*
X054982Y005100D01*
X054937Y005102D01*
X054893Y005108D01*
X054849Y005117D01*
X054807Y005131D01*
X054766Y005148D01*
X054726Y005169D01*
X054688Y005193D01*
X054653Y005220D01*
X054620Y005250D01*
X054590Y005283D01*
X054563Y005318D01*
X054539Y005356D01*
X054518Y005396D01*
X054501Y005437D01*
X054487Y005479D01*
X054478Y005523D01*
X054472Y005567D01*
X054470Y005612D01*
X054923Y001675D02*
X054925Y001727D01*
X054931Y001779D01*
X054941Y001830D01*
X054954Y001880D01*
X054972Y001930D01*
X054993Y001977D01*
X055017Y002023D01*
X055046Y002067D01*
X055077Y002109D01*
X055111Y002148D01*
X055148Y002185D01*
X055188Y002218D01*
X055231Y002249D01*
X055275Y002276D01*
X055321Y002300D01*
X055370Y002320D01*
X055419Y002336D01*
X055470Y002349D01*
X055521Y002358D01*
X055573Y002363D01*
X055625Y002364D01*
X055677Y002361D01*
X055729Y002354D01*
X055780Y002343D01*
X055830Y002329D01*
X055879Y002310D01*
X055926Y002288D01*
X055971Y002263D01*
X056015Y002234D01*
X056056Y002202D01*
X056095Y002167D01*
X056130Y002129D01*
X056163Y002088D01*
X056193Y002046D01*
X056219Y002001D01*
X056242Y001954D01*
X056261Y001905D01*
X056277Y001855D01*
X056289Y001805D01*
X056297Y001753D01*
X056301Y001701D01*
X056301Y001649D01*
X056297Y001597D01*
X056289Y001545D01*
X056277Y001495D01*
X056261Y001445D01*
X056242Y001396D01*
X056219Y001349D01*
X056193Y001304D01*
X056163Y001262D01*
X056130Y001221D01*
X056095Y001183D01*
X056056Y001148D01*
X056015Y001116D01*
X055971Y001087D01*
X055926Y001062D01*
X055879Y001040D01*
X055830Y001021D01*
X055780Y001007D01*
X055729Y000996D01*
X055677Y000989D01*
X055625Y000986D01*
X055573Y000987D01*
X055521Y000992D01*
X055470Y001001D01*
X055419Y001014D01*
X055370Y001030D01*
X055321Y001050D01*
X055275Y001074D01*
X055231Y001101D01*
X055188Y001132D01*
X055148Y001165D01*
X055111Y001202D01*
X055077Y001241D01*
X055046Y001283D01*
X055017Y001327D01*
X054993Y001373D01*
X054972Y001420D01*
X054954Y001470D01*
X054941Y001520D01*
X054931Y001571D01*
X054925Y001623D01*
X054923Y001675D01*
X055317Y010927D02*
X055319Y010979D01*
X055325Y011031D01*
X055335Y011082D01*
X055348Y011132D01*
X055366Y011182D01*
X055387Y011229D01*
X055411Y011275D01*
X055440Y011319D01*
X055471Y011361D01*
X055505Y011400D01*
X055542Y011437D01*
X055582Y011470D01*
X055625Y011501D01*
X055669Y011528D01*
X055715Y011552D01*
X055764Y011572D01*
X055813Y011588D01*
X055864Y011601D01*
X055915Y011610D01*
X055967Y011615D01*
X056019Y011616D01*
X056071Y011613D01*
X056123Y011606D01*
X056174Y011595D01*
X056224Y011581D01*
X056273Y011562D01*
X056320Y011540D01*
X056365Y011515D01*
X056409Y011486D01*
X056450Y011454D01*
X056489Y011419D01*
X056524Y011381D01*
X056557Y011340D01*
X056587Y011298D01*
X056613Y011253D01*
X056636Y011206D01*
X056655Y011157D01*
X056671Y011107D01*
X056683Y011057D01*
X056691Y011005D01*
X056695Y010953D01*
X056695Y010901D01*
X056691Y010849D01*
X056683Y010797D01*
X056671Y010747D01*
X056655Y010697D01*
X056636Y010648D01*
X056613Y010601D01*
X056587Y010556D01*
X056557Y010514D01*
X056524Y010473D01*
X056489Y010435D01*
X056450Y010400D01*
X056409Y010368D01*
X056365Y010339D01*
X056320Y010314D01*
X056273Y010292D01*
X056224Y010273D01*
X056174Y010259D01*
X056123Y010248D01*
X056071Y010241D01*
X056019Y010238D01*
X055967Y010239D01*
X055915Y010244D01*
X055864Y010253D01*
X055813Y010266D01*
X055764Y010282D01*
X055715Y010302D01*
X055669Y010326D01*
X055625Y010353D01*
X055582Y010384D01*
X055542Y010417D01*
X055505Y010454D01*
X055471Y010493D01*
X055440Y010535D01*
X055411Y010579D01*
X055387Y010625D01*
X055366Y010672D01*
X055348Y010722D01*
X055335Y010772D01*
X055325Y010823D01*
X055319Y010875D01*
X055317Y010927D01*
X026183Y029628D02*
X026185Y029680D01*
X026191Y029732D01*
X026201Y029783D01*
X026214Y029833D01*
X026232Y029883D01*
X026253Y029930D01*
X026277Y029976D01*
X026306Y030020D01*
X026337Y030062D01*
X026371Y030101D01*
X026408Y030138D01*
X026448Y030171D01*
X026491Y030202D01*
X026535Y030229D01*
X026581Y030253D01*
X026630Y030273D01*
X026679Y030289D01*
X026730Y030302D01*
X026781Y030311D01*
X026833Y030316D01*
X026885Y030317D01*
X026937Y030314D01*
X026989Y030307D01*
X027040Y030296D01*
X027090Y030282D01*
X027139Y030263D01*
X027186Y030241D01*
X027231Y030216D01*
X027275Y030187D01*
X027316Y030155D01*
X027355Y030120D01*
X027390Y030082D01*
X027423Y030041D01*
X027453Y029999D01*
X027479Y029954D01*
X027502Y029907D01*
X027521Y029858D01*
X027537Y029808D01*
X027549Y029758D01*
X027557Y029706D01*
X027561Y029654D01*
X027561Y029602D01*
X027557Y029550D01*
X027549Y029498D01*
X027537Y029448D01*
X027521Y029398D01*
X027502Y029349D01*
X027479Y029302D01*
X027453Y029257D01*
X027423Y029215D01*
X027390Y029174D01*
X027355Y029136D01*
X027316Y029101D01*
X027275Y029069D01*
X027231Y029040D01*
X027186Y029015D01*
X027139Y028993D01*
X027090Y028974D01*
X027040Y028960D01*
X026989Y028949D01*
X026937Y028942D01*
X026885Y028939D01*
X026833Y028940D01*
X026781Y028945D01*
X026730Y028954D01*
X026679Y028967D01*
X026630Y028983D01*
X026581Y029003D01*
X026535Y029027D01*
X026491Y029054D01*
X026448Y029085D01*
X026408Y029118D01*
X026371Y029155D01*
X026337Y029194D01*
X026306Y029236D01*
X026277Y029280D01*
X026253Y029326D01*
X026232Y029373D01*
X026214Y029423D01*
X026201Y029473D01*
X026191Y029524D01*
X026185Y029576D01*
X026183Y029628D01*
X000986Y031990D02*
X000988Y032042D01*
X000994Y032094D01*
X001004Y032145D01*
X001017Y032195D01*
X001035Y032245D01*
X001056Y032292D01*
X001080Y032338D01*
X001109Y032382D01*
X001140Y032424D01*
X001174Y032463D01*
X001211Y032500D01*
X001251Y032533D01*
X001294Y032564D01*
X001338Y032591D01*
X001384Y032615D01*
X001433Y032635D01*
X001482Y032651D01*
X001533Y032664D01*
X001584Y032673D01*
X001636Y032678D01*
X001688Y032679D01*
X001740Y032676D01*
X001792Y032669D01*
X001843Y032658D01*
X001893Y032644D01*
X001942Y032625D01*
X001989Y032603D01*
X002034Y032578D01*
X002078Y032549D01*
X002119Y032517D01*
X002158Y032482D01*
X002193Y032444D01*
X002226Y032403D01*
X002256Y032361D01*
X002282Y032316D01*
X002305Y032269D01*
X002324Y032220D01*
X002340Y032170D01*
X002352Y032120D01*
X002360Y032068D01*
X002364Y032016D01*
X002364Y031964D01*
X002360Y031912D01*
X002352Y031860D01*
X002340Y031810D01*
X002324Y031760D01*
X002305Y031711D01*
X002282Y031664D01*
X002256Y031619D01*
X002226Y031577D01*
X002193Y031536D01*
X002158Y031498D01*
X002119Y031463D01*
X002078Y031431D01*
X002034Y031402D01*
X001989Y031377D01*
X001942Y031355D01*
X001893Y031336D01*
X001843Y031322D01*
X001792Y031311D01*
X001740Y031304D01*
X001688Y031301D01*
X001636Y031302D01*
X001584Y031307D01*
X001533Y031316D01*
X001482Y031329D01*
X001433Y031345D01*
X001384Y031365D01*
X001338Y031389D01*
X001294Y031416D01*
X001251Y031447D01*
X001211Y031480D01*
X001174Y031517D01*
X001140Y031556D01*
X001109Y031598D01*
X001080Y031642D01*
X001056Y031688D01*
X001035Y031735D01*
X001017Y031785D01*
X001004Y031835D01*
X000994Y031886D01*
X000988Y031938D01*
X000986Y031990D01*
X000986Y010927D02*
X000988Y010979D01*
X000994Y011031D01*
X001004Y011082D01*
X001017Y011132D01*
X001035Y011182D01*
X001056Y011229D01*
X001080Y011275D01*
X001109Y011319D01*
X001140Y011361D01*
X001174Y011400D01*
X001211Y011437D01*
X001251Y011470D01*
X001294Y011501D01*
X001338Y011528D01*
X001384Y011552D01*
X001433Y011572D01*
X001482Y011588D01*
X001533Y011601D01*
X001584Y011610D01*
X001636Y011615D01*
X001688Y011616D01*
X001740Y011613D01*
X001792Y011606D01*
X001843Y011595D01*
X001893Y011581D01*
X001942Y011562D01*
X001989Y011540D01*
X002034Y011515D01*
X002078Y011486D01*
X002119Y011454D01*
X002158Y011419D01*
X002193Y011381D01*
X002226Y011340D01*
X002256Y011298D01*
X002282Y011253D01*
X002305Y011206D01*
X002324Y011157D01*
X002340Y011107D01*
X002352Y011057D01*
X002360Y011005D01*
X002364Y010953D01*
X002364Y010901D01*
X002360Y010849D01*
X002352Y010797D01*
X002340Y010747D01*
X002324Y010697D01*
X002305Y010648D01*
X002282Y010601D01*
X002256Y010556D01*
X002226Y010514D01*
X002193Y010473D01*
X002158Y010435D01*
X002119Y010400D01*
X002078Y010368D01*
X002034Y010339D01*
X001989Y010314D01*
X001942Y010292D01*
X001893Y010273D01*
X001843Y010259D01*
X001792Y010248D01*
X001740Y010241D01*
X001688Y010238D01*
X001636Y010239D01*
X001584Y010244D01*
X001533Y010253D01*
X001482Y010266D01*
X001433Y010282D01*
X001384Y010302D01*
X001338Y010326D01*
X001294Y010353D01*
X001251Y010384D01*
X001211Y010417D01*
X001174Y010454D01*
X001140Y010493D01*
X001109Y010535D01*
X001080Y010579D01*
X001056Y010625D01*
X001035Y010672D01*
X001017Y010722D01*
X001004Y010772D01*
X000994Y010823D01*
X000988Y010875D01*
X000986Y010927D01*
X054923Y031990D02*
X054925Y032042D01*
X054931Y032094D01*
X054941Y032145D01*
X054954Y032195D01*
X054972Y032245D01*
X054993Y032292D01*
X055017Y032338D01*
X055046Y032382D01*
X055077Y032424D01*
X055111Y032463D01*
X055148Y032500D01*
X055188Y032533D01*
X055231Y032564D01*
X055275Y032591D01*
X055321Y032615D01*
X055370Y032635D01*
X055419Y032651D01*
X055470Y032664D01*
X055521Y032673D01*
X055573Y032678D01*
X055625Y032679D01*
X055677Y032676D01*
X055729Y032669D01*
X055780Y032658D01*
X055830Y032644D01*
X055879Y032625D01*
X055926Y032603D01*
X055971Y032578D01*
X056015Y032549D01*
X056056Y032517D01*
X056095Y032482D01*
X056130Y032444D01*
X056163Y032403D01*
X056193Y032361D01*
X056219Y032316D01*
X056242Y032269D01*
X056261Y032220D01*
X056277Y032170D01*
X056289Y032120D01*
X056297Y032068D01*
X056301Y032016D01*
X056301Y031964D01*
X056297Y031912D01*
X056289Y031860D01*
X056277Y031810D01*
X056261Y031760D01*
X056242Y031711D01*
X056219Y031664D01*
X056193Y031619D01*
X056163Y031577D01*
X056130Y031536D01*
X056095Y031498D01*
X056056Y031463D01*
X056015Y031431D01*
X055971Y031402D01*
X055926Y031377D01*
X055879Y031355D01*
X055830Y031336D01*
X055780Y031322D01*
X055729Y031311D01*
X055677Y031304D01*
X055625Y031301D01*
X055573Y031302D01*
X055521Y031307D01*
X055470Y031316D01*
X055419Y031329D01*
X055370Y031345D01*
X055321Y031365D01*
X055275Y031389D01*
X055231Y031416D01*
X055188Y031447D01*
X055148Y031480D01*
X055111Y031517D01*
X055077Y031556D01*
X055046Y031598D01*
X055017Y031642D01*
X054993Y031688D01*
X054972Y031735D01*
X054954Y031785D01*
X054941Y031835D01*
X054931Y031886D01*
X054925Y031938D01*
X054923Y031990D01*
M02*
