%
M48
M72
T01C0.0315
T02C0.0320
T03C0.0400
T04C0.0433
T05C0.0512
T06C0.0591
T07C0.0630
T08C0.1024
T09C0.1378
%
T01
X3446Y6517
X4234Y6517
X5021Y6517
X5809Y6517
X6202Y7517
X5415Y7517
X4628Y7517
X3840Y7517
X11320Y6517
X12108Y6517
X12895Y6517
X13683Y6517
X14076Y7517
X13289Y7517
X12502Y7517
X11714Y7517
X19194Y6517
X19982Y6517
X20769Y6517
X21557Y6517
X21950Y7517
X21163Y7517
X20376Y7517
X19588Y7517
X27069Y6517
X27856Y6517
X28643Y6517
X29431Y6517
X29824Y7517
X29037Y7517
X28250Y7517
X27462Y7517
X34943Y6517
X35730Y6517
X36517Y6517
X37305Y6517
X37698Y7517
X36911Y7517
X36124Y7517
X35336Y7517
X42817Y6517
X43604Y6517
X44391Y6517
X45179Y6517
X45572Y7517
X44785Y7517
X43998Y7517
X43210Y7517
X50691Y6517
X51478Y6517
X52265Y6517
X53053Y6517
X53446Y7517
X52659Y7517
X51872Y7517
X51084Y7517
T02
X21360Y21147
X21360Y22147
X21360Y23147
T03
X10943Y21950
X9943Y21950
X9943Y20950
X10943Y20950
X10943Y19950
X9943Y19950
T04
X5218Y22372
X5218Y23372
X5218Y24372
X5218Y25372
X5218Y26372
X5218Y27372
X5218Y28372
X5218Y29372
X5218Y30372
X5218Y31372
X4537Y18726
X3537Y18726
X3537Y17726
X4537Y17726
X4537Y16726
X3537Y16726
X3537Y15726
X4537Y15726
X4537Y14726
X3537Y14726
X52856Y21191
X52856Y22191
X52856Y23191
X52856Y24191
X52856Y25191
X52856Y26191
X52856Y27191
X52856Y28191
X52856Y29191
X52856Y30191
T05
X14962Y28446
X12009Y28446
T06
X9500Y7517
X8023Y7517
X1626Y7517
X15897Y7517
X17374Y7517
X23771Y7517
X25248Y7517
X31645Y7517
X33122Y7517
X39519Y7517
X40996Y7517
X47393Y7517
X48870Y7517
X55267Y7517
T07
X29017Y22620
X26872Y22620
X24726Y22620
T08
X25533Y5612
X23486Y5612
X17659Y5612
X15612Y5612
X9785Y5612
X7738Y5612
X1911Y5612
X31360Y5612
X33407Y5612
X39234Y5612
X41281Y5612
X47108Y5612
X49155Y5612
X54982Y5612
T09
X1675Y1675
X1675Y10927
X26872Y29628
X1675Y31990
X55612Y31990
X56006Y10927
X55612Y1675
M30
