G75*
%MOIN*%
%OFA0B0*%
%FSLAX24Y24*%
%IPPOS*%
%LPD*%
%AMOC8*
5,1,8,0,0,1.08239X$1,22.5*
%
%ADD10C,0.0079*%
%ADD11C,0.0080*%
%ADD12C,0.0050*%
%ADD13C,0.0040*%
%ADD14C,0.0060*%
%ADD15C,0.0100*%
%ADD16C,0.0070*%
%ADD17R,0.0236X0.0394*%
D10*
X003418Y030339D02*
X013017Y030339D01*
X013017Y040737D01*
X010028Y043308D01*
X006406Y043308D01*
X003418Y040737D01*
X003418Y030339D01*
X003414Y032670D02*
X003414Y040780D01*
X004359Y040780D01*
X004359Y032670D01*
X003414Y032670D01*
X012076Y032670D02*
X012076Y040780D01*
X013020Y040780D01*
X013020Y032670D01*
X012076Y032670D01*
X021131Y032670D02*
X021131Y040780D01*
X022076Y040780D01*
X022076Y032670D01*
X021131Y032670D01*
X021135Y030339D02*
X030733Y030339D01*
X030733Y040737D01*
X027745Y043308D01*
X024123Y043308D01*
X021135Y040737D01*
X021135Y030339D01*
X029792Y032670D02*
X029792Y040780D01*
X030737Y040780D01*
X030737Y032670D01*
X029792Y032670D01*
X038847Y032670D02*
X038847Y040780D01*
X039792Y040780D01*
X039792Y032670D01*
X038847Y032670D01*
X038851Y030339D02*
X048450Y030339D01*
X048450Y040737D01*
X045461Y043308D01*
X041839Y043308D01*
X038851Y040737D01*
X038851Y030339D01*
X047509Y032670D02*
X047509Y040780D01*
X048454Y040780D01*
X048454Y032670D01*
X047509Y032670D01*
D11*
X047471Y031142D02*
X047471Y030792D01*
X047401Y030722D01*
X047260Y030722D01*
X047190Y030792D01*
X047190Y031142D01*
X047651Y031072D02*
X047721Y031142D01*
X047861Y031142D01*
X047931Y031072D01*
X047931Y031002D01*
X047861Y030932D01*
X047931Y030862D01*
X047931Y030792D01*
X047861Y030722D01*
X047721Y030722D01*
X047651Y030792D01*
X047791Y030932D02*
X047861Y030932D01*
X046133Y028946D02*
X045633Y028946D01*
X045633Y024946D02*
X046133Y024946D01*
X038544Y025152D02*
X038544Y024652D01*
X038294Y024402D01*
X036794Y024402D01*
X036544Y024652D01*
X036544Y025152D01*
X036794Y025402D01*
X038294Y025402D01*
X038544Y025152D01*
X038294Y024402D02*
X038544Y024152D01*
X038544Y023652D01*
X038294Y023402D01*
X036794Y023402D01*
X036544Y023652D01*
X036544Y024152D01*
X036794Y024402D01*
X036794Y023402D02*
X036544Y023152D01*
X036544Y022652D01*
X036794Y022402D01*
X038294Y022402D01*
X038544Y022652D01*
X038544Y023152D01*
X038294Y023402D01*
X038676Y023152D02*
X038676Y022652D01*
X037683Y026433D02*
X037683Y026853D01*
X037403Y026853D02*
X037683Y026433D01*
X037403Y026433D02*
X037403Y026853D01*
X037223Y026783D02*
X037223Y026643D01*
X037153Y026573D01*
X036942Y026573D01*
X036942Y026433D02*
X036942Y026853D01*
X037153Y026853D01*
X037223Y026783D01*
X037083Y026573D02*
X037223Y026433D01*
X036762Y026503D02*
X036762Y026643D01*
X036622Y026643D01*
X036482Y026503D02*
X036552Y026433D01*
X036692Y026433D01*
X036762Y026503D01*
X036482Y026503D02*
X036482Y026783D01*
X036552Y026853D01*
X036692Y026853D01*
X036762Y026783D01*
X030214Y030722D02*
X029934Y030722D01*
X030214Y031002D01*
X030214Y031072D01*
X030144Y031142D01*
X030004Y031142D01*
X029934Y031072D01*
X029754Y031142D02*
X029754Y030792D01*
X029684Y030722D01*
X029544Y030722D01*
X029474Y030792D01*
X029474Y031142D01*
X028416Y028946D02*
X027916Y028946D01*
X027916Y024946D02*
X028416Y024946D01*
X020828Y025152D02*
X020828Y024652D01*
X020578Y024402D01*
X019078Y024402D01*
X018828Y024652D01*
X018828Y025152D01*
X019078Y025402D01*
X020578Y025402D01*
X020828Y025152D01*
X020578Y024402D02*
X020828Y024152D01*
X020828Y023652D01*
X020578Y023402D01*
X019078Y023402D01*
X018828Y023652D01*
X018828Y024152D01*
X019078Y024402D01*
X019078Y023402D02*
X018828Y023152D01*
X018828Y022652D01*
X019078Y022402D01*
X020578Y022402D01*
X020828Y022652D01*
X020828Y023152D01*
X020578Y023402D01*
X020959Y023152D02*
X020959Y022652D01*
X019967Y026433D02*
X019967Y026853D01*
X019686Y026853D02*
X019686Y026433D01*
X019506Y026433D02*
X019366Y026573D01*
X019436Y026573D02*
X019226Y026573D01*
X019226Y026433D02*
X019226Y026853D01*
X019436Y026853D01*
X019506Y026783D01*
X019506Y026643D01*
X019436Y026573D01*
X019686Y026853D02*
X019967Y026433D01*
X019046Y026503D02*
X018976Y026433D01*
X018836Y026433D01*
X018766Y026503D01*
X018766Y026783D01*
X018836Y026853D01*
X018976Y026853D01*
X019046Y026783D01*
X019046Y026643D02*
X018906Y026643D01*
X019046Y026643D02*
X019046Y026503D01*
X012498Y030722D02*
X012218Y030722D01*
X012358Y030722D02*
X012358Y031142D01*
X012218Y031002D01*
X012038Y031142D02*
X012038Y030792D01*
X011968Y030722D01*
X011827Y030722D01*
X011757Y030792D01*
X011757Y031142D01*
X010700Y028946D02*
X010200Y028946D01*
X010200Y024946D02*
X010700Y024946D01*
X003243Y023152D02*
X003243Y022652D01*
X003111Y022652D02*
X002861Y022402D01*
X001361Y022402D01*
X001111Y022652D01*
X001111Y023152D01*
X001361Y023402D01*
X002861Y023402D01*
X003111Y023652D01*
X003111Y024152D01*
X002861Y024402D01*
X001361Y024402D01*
X001111Y024652D01*
X001111Y025152D01*
X001361Y025402D01*
X002861Y025402D01*
X003111Y025152D01*
X003111Y024652D01*
X002861Y024402D01*
X002861Y023402D02*
X003111Y023152D01*
X003111Y022652D01*
X001361Y023402D02*
X001111Y023652D01*
X001111Y024152D01*
X001361Y024402D01*
X001259Y026433D02*
X001329Y026503D01*
X001329Y026643D01*
X001189Y026643D01*
X001049Y026503D02*
X001119Y026433D01*
X001259Y026433D01*
X001049Y026503D02*
X001049Y026783D01*
X001119Y026853D01*
X001259Y026853D01*
X001329Y026783D01*
X001509Y026853D02*
X001720Y026853D01*
X001790Y026783D01*
X001790Y026643D01*
X001720Y026573D01*
X001509Y026573D01*
X001509Y026433D02*
X001509Y026853D01*
X001649Y026573D02*
X001790Y026433D01*
X001970Y026433D02*
X001970Y026853D01*
X002250Y026433D01*
X002250Y026853D01*
X002250Y033133D02*
X002040Y033343D01*
X001970Y033273D02*
X002250Y033553D01*
X001970Y033553D02*
X001970Y033133D01*
X001790Y033133D02*
X001509Y033133D01*
X001509Y033553D01*
X001329Y033483D02*
X001329Y033413D01*
X001259Y033343D01*
X001049Y033343D01*
X001049Y033133D02*
X001259Y033133D01*
X001329Y033203D01*
X001329Y033273D01*
X001259Y033343D01*
X001329Y033483D02*
X001259Y033553D01*
X001049Y033553D01*
X001049Y033133D01*
X018766Y033133D02*
X018976Y033133D01*
X019046Y033203D01*
X019046Y033273D01*
X018976Y033343D01*
X018766Y033343D01*
X018976Y033343D02*
X019046Y033413D01*
X019046Y033483D01*
X018976Y033553D01*
X018766Y033553D01*
X018766Y033133D01*
X019226Y033133D02*
X019226Y033553D01*
X019226Y033133D02*
X019506Y033133D01*
X019686Y033133D02*
X019686Y033553D01*
X019756Y033343D02*
X019967Y033133D01*
X019686Y033273D02*
X019967Y033553D01*
X036482Y033553D02*
X036482Y033133D01*
X036692Y033133D01*
X036762Y033203D01*
X036762Y033273D01*
X036692Y033343D01*
X036482Y033343D01*
X036692Y033343D02*
X036762Y033413D01*
X036762Y033483D01*
X036692Y033553D01*
X036482Y033553D01*
X036942Y033553D02*
X036942Y033133D01*
X037223Y033133D01*
X037403Y033133D02*
X037403Y033553D01*
X037473Y033343D02*
X037683Y033133D01*
X037403Y033273D02*
X037683Y033553D01*
X030597Y014272D02*
X030097Y014272D01*
X029847Y014022D01*
X029847Y013522D01*
X030097Y013272D01*
X029847Y013022D01*
X029847Y012522D01*
X030097Y012272D01*
X029847Y012022D01*
X029847Y011522D01*
X030097Y011272D01*
X029847Y011022D01*
X029847Y010522D01*
X030097Y010272D01*
X030597Y010272D01*
X030847Y010522D01*
X030847Y011022D01*
X030597Y011272D01*
X030847Y011522D01*
X030847Y012022D01*
X030597Y012272D01*
X030847Y012522D01*
X030847Y013022D01*
X030597Y013272D01*
X030847Y013522D01*
X030847Y014022D01*
X030597Y014272D01*
X047564Y014022D02*
X047564Y013522D01*
X047814Y013272D01*
X047564Y013022D01*
X047564Y012522D01*
X047814Y012272D01*
X047564Y012022D01*
X047564Y011522D01*
X047814Y011272D01*
X047564Y011022D01*
X047564Y010522D01*
X047814Y010272D01*
X048314Y010272D01*
X048564Y010522D01*
X048564Y011022D01*
X048314Y011272D01*
X048564Y011522D01*
X048564Y012022D01*
X048314Y012272D01*
X048564Y012522D01*
X048564Y013022D01*
X048314Y013272D01*
X048564Y013522D01*
X048564Y014022D01*
X048314Y014272D01*
X047814Y014272D01*
X047564Y014022D01*
X013131Y014022D02*
X013131Y013522D01*
X012881Y013272D01*
X013131Y013022D01*
X013131Y012522D01*
X012881Y012272D01*
X013131Y012022D01*
X013131Y011522D01*
X012881Y011272D01*
X013131Y011022D01*
X013131Y010522D01*
X012881Y010272D01*
X012381Y010272D01*
X012131Y010522D01*
X012131Y011022D01*
X012381Y011272D01*
X012131Y011522D01*
X012131Y012022D01*
X012381Y012272D01*
X012131Y012522D01*
X012131Y013022D01*
X012381Y013272D01*
X012131Y013522D01*
X012131Y014022D01*
X012381Y014272D01*
X012881Y014272D01*
X013131Y014022D01*
D12*
X003217Y009300D02*
X003217Y002800D01*
X013217Y002800D01*
X013217Y009300D01*
X003217Y009300D01*
X003119Y010186D02*
X003119Y012517D01*
X004891Y012517D01*
X004891Y010186D01*
X003119Y010186D01*
X003200Y011355D02*
X003275Y011430D01*
X003275Y011581D01*
X003200Y011656D01*
X003200Y011816D02*
X003275Y011891D01*
X003275Y012041D01*
X003200Y012116D01*
X003125Y012116D01*
X003050Y012041D01*
X003050Y011966D01*
X003050Y012041D02*
X002975Y012116D01*
X002900Y012116D01*
X002825Y012041D01*
X002825Y011891D01*
X002900Y011816D01*
X002900Y011656D02*
X002825Y011581D01*
X002825Y011430D01*
X002900Y011355D01*
X003200Y011355D01*
X007246Y011430D02*
X007321Y011355D01*
X007621Y011355D01*
X007696Y011430D01*
X007696Y011581D01*
X007621Y011656D01*
X007696Y011816D02*
X007396Y012116D01*
X007321Y012116D01*
X007246Y012041D01*
X007246Y011891D01*
X007321Y011816D01*
X007321Y011656D02*
X007246Y011581D01*
X007246Y011430D01*
X007696Y011816D02*
X007696Y012116D01*
X007607Y010737D02*
X007607Y014280D01*
X008788Y014477D01*
X009576Y014280D01*
X009576Y010737D01*
X008788Y010540D01*
X007607Y010737D01*
X011435Y010728D02*
X011435Y010953D01*
X011510Y011028D01*
X011661Y011028D01*
X011736Y010953D01*
X011736Y010728D01*
X011886Y010728D02*
X011435Y010728D01*
X011435Y010568D02*
X011435Y010418D01*
X011435Y010493D02*
X011811Y010493D01*
X011886Y010418D01*
X011886Y010343D01*
X011811Y010267D01*
X011811Y011188D02*
X011886Y011263D01*
X011886Y011413D01*
X011811Y011488D01*
X011736Y011488D01*
X011661Y011413D01*
X011661Y011338D01*
X011661Y011413D02*
X011585Y011488D01*
X011510Y011488D01*
X011435Y011413D01*
X011435Y011263D01*
X011510Y011188D01*
X011505Y007489D02*
X004930Y007489D01*
X004930Y001241D01*
X011505Y001241D01*
X011505Y007489D01*
X020934Y009300D02*
X020934Y002800D01*
X030934Y002800D01*
X030934Y009300D01*
X020934Y009300D01*
X020835Y010186D02*
X020835Y012517D01*
X022607Y012517D01*
X022607Y010186D01*
X020835Y010186D01*
X020916Y011355D02*
X020992Y011430D01*
X020992Y011581D01*
X020916Y011656D01*
X020916Y011816D02*
X020841Y011816D01*
X020766Y011891D01*
X020766Y012041D01*
X020841Y012116D01*
X020916Y012116D01*
X020992Y012041D01*
X020992Y011891D01*
X020916Y011816D01*
X020766Y011891D02*
X020691Y011816D01*
X020616Y011816D01*
X020541Y011891D01*
X020541Y012041D01*
X020616Y012116D01*
X020691Y012116D01*
X020766Y012041D01*
X020616Y011656D02*
X020541Y011581D01*
X020541Y011430D01*
X020616Y011355D01*
X020916Y011355D01*
X024962Y011430D02*
X025037Y011355D01*
X025338Y011355D01*
X025413Y011430D01*
X025413Y011581D01*
X025338Y011656D01*
X025338Y011816D02*
X025413Y011816D01*
X025338Y011816D02*
X025037Y012116D01*
X024962Y012116D01*
X024962Y011816D01*
X025037Y011656D02*
X024962Y011581D01*
X024962Y011430D01*
X025324Y010737D02*
X025324Y014280D01*
X026505Y014477D01*
X027292Y014280D01*
X027292Y010737D01*
X026505Y010540D01*
X025324Y010737D01*
X022646Y007489D02*
X022646Y001241D01*
X029221Y001241D01*
X029221Y007489D01*
X022646Y007489D01*
X029152Y010418D02*
X029152Y010568D01*
X029152Y010493D02*
X029527Y010493D01*
X029602Y010418D01*
X029602Y010343D01*
X029527Y010267D01*
X029452Y010728D02*
X029452Y010953D01*
X029377Y011028D01*
X029227Y011028D01*
X029152Y010953D01*
X029152Y010728D01*
X029602Y010728D01*
X029602Y011188D02*
X029527Y011188D01*
X029227Y011488D01*
X029152Y011488D01*
X029152Y011188D01*
X029454Y015670D02*
X027139Y015670D01*
X027139Y017985D01*
X029454Y017985D01*
X029454Y015670D01*
X029038Y015961D02*
X029040Y015983D01*
X029045Y016003D01*
X029055Y016023D01*
X029067Y016041D01*
X029082Y016056D01*
X029100Y016068D01*
X029120Y016078D01*
X029140Y016083D01*
X029162Y016085D01*
X029184Y016083D01*
X029204Y016078D01*
X029224Y016068D01*
X029242Y016056D01*
X029257Y016041D01*
X029269Y016023D01*
X029279Y016003D01*
X029284Y015983D01*
X029286Y015961D01*
X029284Y015939D01*
X029279Y015919D01*
X029269Y015899D01*
X029257Y015881D01*
X029242Y015866D01*
X029224Y015854D01*
X029204Y015844D01*
X029184Y015839D01*
X029162Y015837D01*
X029140Y015839D01*
X029120Y015844D01*
X029100Y015854D01*
X029082Y015866D01*
X029067Y015881D01*
X029055Y015899D01*
X029045Y015919D01*
X029040Y015939D01*
X029038Y015961D01*
X027627Y016828D02*
X027629Y016879D01*
X027635Y016930D01*
X027645Y016980D01*
X027658Y017030D01*
X027676Y017078D01*
X027696Y017125D01*
X027721Y017170D01*
X027749Y017213D01*
X027780Y017254D01*
X027814Y017292D01*
X027851Y017327D01*
X027890Y017360D01*
X027932Y017390D01*
X027976Y017416D01*
X028022Y017438D01*
X028070Y017458D01*
X028119Y017473D01*
X028169Y017485D01*
X028219Y017493D01*
X028270Y017497D01*
X028322Y017497D01*
X028373Y017493D01*
X028423Y017485D01*
X028473Y017473D01*
X028522Y017458D01*
X028570Y017438D01*
X028616Y017416D01*
X028660Y017390D01*
X028702Y017360D01*
X028741Y017327D01*
X028778Y017292D01*
X028812Y017254D01*
X028843Y017213D01*
X028871Y017170D01*
X028896Y017125D01*
X028916Y017078D01*
X028934Y017030D01*
X028947Y016980D01*
X028957Y016930D01*
X028963Y016879D01*
X028965Y016828D01*
X028963Y016777D01*
X028957Y016726D01*
X028947Y016676D01*
X028934Y016626D01*
X028916Y016578D01*
X028896Y016531D01*
X028871Y016486D01*
X028843Y016443D01*
X028812Y016402D01*
X028778Y016364D01*
X028741Y016329D01*
X028702Y016296D01*
X028660Y016266D01*
X028616Y016240D01*
X028570Y016218D01*
X028522Y016198D01*
X028473Y016183D01*
X028423Y016171D01*
X028373Y016163D01*
X028322Y016159D01*
X028270Y016159D01*
X028219Y016163D01*
X028169Y016171D01*
X028119Y016183D01*
X028070Y016198D01*
X028022Y016218D01*
X027976Y016240D01*
X027932Y016266D01*
X027890Y016296D01*
X027851Y016329D01*
X027814Y016364D01*
X027780Y016402D01*
X027749Y016443D01*
X027721Y016486D01*
X027696Y016531D01*
X027676Y016578D01*
X027658Y016626D01*
X027645Y016676D01*
X027635Y016726D01*
X027629Y016777D01*
X027627Y016828D01*
X027306Y017694D02*
X027308Y017716D01*
X027313Y017736D01*
X027323Y017756D01*
X027335Y017774D01*
X027350Y017789D01*
X027368Y017801D01*
X027388Y017811D01*
X027408Y017816D01*
X027430Y017818D01*
X027452Y017816D01*
X027472Y017811D01*
X027492Y017801D01*
X027510Y017789D01*
X027525Y017774D01*
X027537Y017756D01*
X027547Y017736D01*
X027552Y017716D01*
X027554Y017694D01*
X027552Y017672D01*
X027547Y017652D01*
X027537Y017632D01*
X027525Y017614D01*
X027510Y017599D01*
X027492Y017587D01*
X027472Y017577D01*
X027452Y017572D01*
X027430Y017570D01*
X027408Y017572D01*
X027388Y017577D01*
X027368Y017587D01*
X027350Y017599D01*
X027335Y017614D01*
X027323Y017632D01*
X027313Y017652D01*
X027308Y017672D01*
X027306Y017694D01*
X027306Y015961D02*
X027308Y015983D01*
X027313Y016003D01*
X027323Y016023D01*
X027335Y016041D01*
X027350Y016056D01*
X027368Y016068D01*
X027388Y016078D01*
X027408Y016083D01*
X027430Y016085D01*
X027452Y016083D01*
X027472Y016078D01*
X027492Y016068D01*
X027510Y016056D01*
X027525Y016041D01*
X027537Y016023D01*
X027547Y016003D01*
X027552Y015983D01*
X027554Y015961D01*
X027552Y015939D01*
X027547Y015919D01*
X027537Y015899D01*
X027525Y015881D01*
X027510Y015866D01*
X027492Y015854D01*
X027472Y015844D01*
X027452Y015839D01*
X027430Y015837D01*
X027408Y015839D01*
X027388Y015844D01*
X027368Y015854D01*
X027350Y015866D01*
X027335Y015881D01*
X027323Y015899D01*
X027313Y015919D01*
X027308Y015939D01*
X027306Y015961D01*
X029038Y017694D02*
X029040Y017716D01*
X029045Y017736D01*
X029055Y017756D01*
X029067Y017774D01*
X029082Y017789D01*
X029100Y017801D01*
X029120Y017811D01*
X029140Y017816D01*
X029162Y017818D01*
X029184Y017816D01*
X029204Y017811D01*
X029224Y017801D01*
X029242Y017789D01*
X029257Y017774D01*
X029269Y017756D01*
X029279Y017736D01*
X029284Y017716D01*
X029286Y017694D01*
X029284Y017672D01*
X029279Y017652D01*
X029269Y017632D01*
X029257Y017614D01*
X029242Y017599D01*
X029224Y017587D01*
X029204Y017577D01*
X029184Y017572D01*
X029162Y017570D01*
X029140Y017572D01*
X029120Y017577D01*
X029100Y017587D01*
X029082Y017599D01*
X029067Y017614D01*
X029055Y017632D01*
X029045Y017652D01*
X029040Y017672D01*
X029038Y017694D01*
X030284Y016040D02*
X031190Y015843D01*
X031859Y016040D01*
X031859Y027851D01*
X031190Y028048D01*
X030284Y027851D01*
X030284Y016040D01*
X027377Y019834D02*
X027452Y019910D01*
X027452Y019985D01*
X027377Y020060D01*
X027001Y020060D01*
X027001Y019985D02*
X027001Y020135D01*
X027001Y020295D02*
X027001Y020520D01*
X027076Y020595D01*
X027227Y020595D01*
X027302Y020520D01*
X027302Y020295D01*
X027452Y020295D02*
X027001Y020295D01*
X027076Y020755D02*
X027152Y020755D01*
X027227Y020830D01*
X027227Y020980D01*
X027302Y021055D01*
X027377Y021055D01*
X027452Y020980D01*
X027452Y020830D01*
X027377Y020755D01*
X027302Y020755D01*
X027227Y020830D01*
X027227Y020980D02*
X027152Y021055D01*
X027076Y021055D01*
X027001Y020980D01*
X027001Y020830D01*
X027076Y020755D01*
X028811Y020348D02*
X029152Y020348D01*
X029152Y020461D02*
X029152Y020234D01*
X028925Y020234D02*
X028811Y020348D01*
X028868Y021234D02*
X028811Y021291D01*
X028811Y021405D01*
X028868Y021461D01*
X028925Y021461D01*
X029152Y021234D01*
X029152Y021461D01*
X029095Y022234D02*
X029152Y022291D01*
X029152Y022405D01*
X029095Y022461D01*
X029038Y022461D01*
X028982Y022405D01*
X028982Y022348D01*
X028982Y022405D02*
X028925Y022461D01*
X028868Y022461D01*
X028811Y022405D01*
X028811Y022291D01*
X028868Y022234D01*
X027096Y024941D02*
X027171Y025016D01*
X027171Y025091D01*
X027096Y025166D01*
X026721Y025166D01*
X026721Y025091D02*
X026721Y025241D01*
X026721Y025401D02*
X026721Y025626D01*
X026796Y025701D01*
X026946Y025701D01*
X027021Y025626D01*
X027021Y025401D01*
X027171Y025401D02*
X026721Y025401D01*
X026721Y025861D02*
X026946Y025861D01*
X026871Y026012D01*
X026871Y026087D01*
X026946Y026162D01*
X027096Y026162D01*
X027171Y026087D01*
X027171Y025937D01*
X027096Y025861D01*
X026721Y025861D02*
X026721Y026162D01*
X020257Y026993D02*
X019257Y026993D01*
X019257Y032993D01*
X020257Y032993D01*
X020257Y026993D01*
X019132Y027118D02*
X019132Y027253D01*
X019087Y027298D01*
X018907Y027298D01*
X018861Y027253D01*
X018861Y027118D01*
X019132Y027118D01*
X019132Y027503D02*
X018861Y027503D01*
X018861Y027413D02*
X018861Y027593D01*
X018861Y027707D02*
X018861Y027842D01*
X018907Y027887D01*
X018997Y027887D01*
X019042Y027842D01*
X019042Y027707D01*
X019132Y027707D02*
X018861Y027707D01*
X019042Y027797D02*
X019132Y027887D01*
X019132Y028208D02*
X018861Y028208D01*
X018861Y028118D02*
X018861Y028298D01*
X018861Y028413D02*
X019132Y028593D01*
X019087Y028707D02*
X019132Y028752D01*
X019132Y028842D01*
X019087Y028887D01*
X018907Y028887D01*
X018861Y028842D01*
X018861Y028752D01*
X018907Y028707D01*
X019087Y028707D01*
X018861Y028593D02*
X019132Y028413D01*
X019132Y029118D02*
X018861Y029118D01*
X018861Y029253D01*
X018907Y029298D01*
X018997Y029298D01*
X019042Y029253D01*
X019042Y029118D01*
X019042Y029208D02*
X019132Y029298D01*
X019132Y029413D02*
X018861Y029593D01*
X018861Y029707D02*
X018861Y029797D01*
X018861Y029752D02*
X019132Y029752D01*
X019132Y029707D02*
X019132Y029797D01*
X019132Y029593D02*
X018861Y029413D01*
X018861Y030118D02*
X019042Y030118D01*
X019132Y030208D01*
X019042Y030298D01*
X018861Y030298D01*
X018907Y030413D02*
X018861Y030458D01*
X018861Y030548D01*
X018907Y030593D01*
X018907Y030707D02*
X019087Y030707D01*
X019132Y030752D01*
X019132Y030842D01*
X019087Y030887D01*
X018907Y030887D02*
X018861Y030842D01*
X018861Y030752D01*
X018907Y030707D01*
X019087Y030593D02*
X019132Y030548D01*
X019132Y030458D01*
X019087Y030413D01*
X018907Y030413D01*
X018907Y031118D02*
X018861Y031163D01*
X018861Y031253D01*
X018907Y031298D01*
X018861Y031413D02*
X018861Y031593D01*
X018861Y031503D02*
X019132Y031503D01*
X019087Y031707D02*
X019132Y031752D01*
X019132Y031842D01*
X019087Y031887D01*
X019042Y031887D01*
X018997Y031842D01*
X018997Y031752D01*
X018952Y031707D01*
X018907Y031707D01*
X018861Y031752D01*
X018861Y031842D01*
X018907Y031887D01*
X018907Y032118D02*
X019087Y032118D01*
X019132Y032163D01*
X019132Y032253D01*
X019087Y032298D01*
X018997Y032298D01*
X018997Y032208D01*
X018907Y032298D02*
X018861Y032253D01*
X018861Y032163D01*
X018907Y032118D01*
X018861Y032413D02*
X019132Y032593D01*
X018861Y032593D01*
X018861Y032707D02*
X018861Y032842D01*
X018907Y032887D01*
X019087Y032887D01*
X019132Y032842D01*
X019132Y032707D01*
X018861Y032707D01*
X018861Y032413D02*
X019132Y032413D01*
X019087Y031298D02*
X019132Y031253D01*
X019132Y031163D01*
X019087Y031118D01*
X018907Y031118D01*
X014143Y027851D02*
X013473Y028048D01*
X012568Y027851D01*
X012568Y016040D01*
X013473Y015843D01*
X014143Y016040D01*
X014143Y027851D01*
X009455Y026162D02*
X009455Y025861D01*
X009455Y026012D02*
X009004Y026012D01*
X009154Y025861D01*
X009079Y025701D02*
X009229Y025701D01*
X009304Y025626D01*
X009304Y025401D01*
X009455Y025401D02*
X009004Y025401D01*
X009004Y025626D01*
X009079Y025701D01*
X009004Y025241D02*
X009004Y025091D01*
X009004Y025166D02*
X009380Y025166D01*
X009455Y025091D01*
X009455Y025016D01*
X009380Y024941D01*
X011152Y022461D02*
X011208Y022461D01*
X011265Y022405D01*
X011322Y022461D01*
X011379Y022461D01*
X011435Y022405D01*
X011435Y022291D01*
X011379Y022234D01*
X011265Y022348D02*
X011265Y022405D01*
X011152Y022461D02*
X011095Y022405D01*
X011095Y022291D01*
X011152Y022234D01*
X011152Y021461D02*
X011095Y021405D01*
X011095Y021291D01*
X011152Y021234D01*
X011152Y021461D02*
X011208Y021461D01*
X011435Y021234D01*
X011435Y021461D01*
X011435Y020461D02*
X011435Y020234D01*
X011435Y020348D02*
X011095Y020348D01*
X011208Y020234D01*
X009735Y020295D02*
X009285Y020295D01*
X009285Y020520D01*
X009360Y020595D01*
X009510Y020595D01*
X009585Y020520D01*
X009585Y020295D01*
X009660Y020060D02*
X009285Y020060D01*
X009285Y019985D02*
X009285Y020135D01*
X009660Y020060D02*
X009735Y019985D01*
X009735Y019910D01*
X009660Y019834D01*
X009510Y020755D02*
X009510Y021055D01*
X009285Y020980D02*
X009510Y020755D01*
X009735Y020980D02*
X009285Y020980D01*
X009422Y017985D02*
X011737Y017985D01*
X011737Y015670D01*
X009422Y015670D01*
X009422Y017985D01*
X009589Y017694D02*
X009591Y017716D01*
X009596Y017736D01*
X009606Y017756D01*
X009618Y017774D01*
X009633Y017789D01*
X009651Y017801D01*
X009671Y017811D01*
X009691Y017816D01*
X009713Y017818D01*
X009735Y017816D01*
X009755Y017811D01*
X009775Y017801D01*
X009793Y017789D01*
X009808Y017774D01*
X009820Y017756D01*
X009830Y017736D01*
X009835Y017716D01*
X009837Y017694D01*
X009835Y017672D01*
X009830Y017652D01*
X009820Y017632D01*
X009808Y017614D01*
X009793Y017599D01*
X009775Y017587D01*
X009755Y017577D01*
X009735Y017572D01*
X009713Y017570D01*
X009691Y017572D01*
X009671Y017577D01*
X009651Y017587D01*
X009633Y017599D01*
X009618Y017614D01*
X009606Y017632D01*
X009596Y017652D01*
X009591Y017672D01*
X009589Y017694D01*
X009911Y016828D02*
X009913Y016879D01*
X009919Y016930D01*
X009929Y016980D01*
X009942Y017030D01*
X009960Y017078D01*
X009980Y017125D01*
X010005Y017170D01*
X010033Y017213D01*
X010064Y017254D01*
X010098Y017292D01*
X010135Y017327D01*
X010174Y017360D01*
X010216Y017390D01*
X010260Y017416D01*
X010306Y017438D01*
X010354Y017458D01*
X010403Y017473D01*
X010453Y017485D01*
X010503Y017493D01*
X010554Y017497D01*
X010606Y017497D01*
X010657Y017493D01*
X010707Y017485D01*
X010757Y017473D01*
X010806Y017458D01*
X010854Y017438D01*
X010900Y017416D01*
X010944Y017390D01*
X010986Y017360D01*
X011025Y017327D01*
X011062Y017292D01*
X011096Y017254D01*
X011127Y017213D01*
X011155Y017170D01*
X011180Y017125D01*
X011200Y017078D01*
X011218Y017030D01*
X011231Y016980D01*
X011241Y016930D01*
X011247Y016879D01*
X011249Y016828D01*
X011247Y016777D01*
X011241Y016726D01*
X011231Y016676D01*
X011218Y016626D01*
X011200Y016578D01*
X011180Y016531D01*
X011155Y016486D01*
X011127Y016443D01*
X011096Y016402D01*
X011062Y016364D01*
X011025Y016329D01*
X010986Y016296D01*
X010944Y016266D01*
X010900Y016240D01*
X010854Y016218D01*
X010806Y016198D01*
X010757Y016183D01*
X010707Y016171D01*
X010657Y016163D01*
X010606Y016159D01*
X010554Y016159D01*
X010503Y016163D01*
X010453Y016171D01*
X010403Y016183D01*
X010354Y016198D01*
X010306Y016218D01*
X010260Y016240D01*
X010216Y016266D01*
X010174Y016296D01*
X010135Y016329D01*
X010098Y016364D01*
X010064Y016402D01*
X010033Y016443D01*
X010005Y016486D01*
X009980Y016531D01*
X009960Y016578D01*
X009942Y016626D01*
X009929Y016676D01*
X009919Y016726D01*
X009913Y016777D01*
X009911Y016828D01*
X009589Y015961D02*
X009591Y015983D01*
X009596Y016003D01*
X009606Y016023D01*
X009618Y016041D01*
X009633Y016056D01*
X009651Y016068D01*
X009671Y016078D01*
X009691Y016083D01*
X009713Y016085D01*
X009735Y016083D01*
X009755Y016078D01*
X009775Y016068D01*
X009793Y016056D01*
X009808Y016041D01*
X009820Y016023D01*
X009830Y016003D01*
X009835Y015983D01*
X009837Y015961D01*
X009835Y015939D01*
X009830Y015919D01*
X009820Y015899D01*
X009808Y015881D01*
X009793Y015866D01*
X009775Y015854D01*
X009755Y015844D01*
X009735Y015839D01*
X009713Y015837D01*
X009691Y015839D01*
X009671Y015844D01*
X009651Y015854D01*
X009633Y015866D01*
X009618Y015881D01*
X009606Y015899D01*
X009596Y015919D01*
X009591Y015939D01*
X009589Y015961D01*
X011322Y015961D02*
X011324Y015983D01*
X011329Y016003D01*
X011339Y016023D01*
X011351Y016041D01*
X011366Y016056D01*
X011384Y016068D01*
X011404Y016078D01*
X011424Y016083D01*
X011446Y016085D01*
X011468Y016083D01*
X011488Y016078D01*
X011508Y016068D01*
X011526Y016056D01*
X011541Y016041D01*
X011553Y016023D01*
X011563Y016003D01*
X011568Y015983D01*
X011570Y015961D01*
X011568Y015939D01*
X011563Y015919D01*
X011553Y015899D01*
X011541Y015881D01*
X011526Y015866D01*
X011508Y015854D01*
X011488Y015844D01*
X011468Y015839D01*
X011446Y015837D01*
X011424Y015839D01*
X011404Y015844D01*
X011384Y015854D01*
X011366Y015866D01*
X011351Y015881D01*
X011339Y015899D01*
X011329Y015919D01*
X011324Y015939D01*
X011322Y015961D01*
X011322Y017694D02*
X011324Y017716D01*
X011329Y017736D01*
X011339Y017756D01*
X011351Y017774D01*
X011366Y017789D01*
X011384Y017801D01*
X011404Y017811D01*
X011424Y017816D01*
X011446Y017818D01*
X011468Y017816D01*
X011488Y017811D01*
X011508Y017801D01*
X011526Y017789D01*
X011541Y017774D01*
X011553Y017756D01*
X011563Y017736D01*
X011568Y017716D01*
X011570Y017694D01*
X011568Y017672D01*
X011563Y017652D01*
X011553Y017632D01*
X011541Y017614D01*
X011526Y017599D01*
X011508Y017587D01*
X011488Y017577D01*
X011468Y017572D01*
X011446Y017570D01*
X011424Y017572D01*
X011404Y017577D01*
X011384Y017587D01*
X011366Y017599D01*
X011351Y017614D01*
X011339Y017632D01*
X011329Y017652D01*
X011324Y017672D01*
X011322Y017694D01*
X018102Y022577D02*
X018102Y022728D01*
X018102Y022653D02*
X018477Y022653D01*
X018553Y022577D01*
X018553Y022502D01*
X018477Y022427D01*
X018553Y022888D02*
X018252Y023188D01*
X018177Y023188D01*
X018102Y023113D01*
X018102Y022963D01*
X018177Y022888D01*
X018553Y022888D02*
X018553Y023188D01*
X002540Y026993D02*
X001540Y026993D01*
X001540Y032993D01*
X002540Y032993D01*
X002540Y026993D01*
X001415Y027118D02*
X001415Y027253D01*
X001370Y027298D01*
X001190Y027298D01*
X001145Y027253D01*
X001145Y027118D01*
X001415Y027118D01*
X001415Y027503D02*
X001145Y027503D01*
X001145Y027413D02*
X001145Y027593D01*
X001145Y027707D02*
X001145Y027842D01*
X001190Y027887D01*
X001280Y027887D01*
X001325Y027842D01*
X001325Y027707D01*
X001415Y027707D02*
X001145Y027707D01*
X001325Y027797D02*
X001415Y027887D01*
X001415Y028208D02*
X001145Y028208D01*
X001145Y028118D02*
X001145Y028298D01*
X001145Y028413D02*
X001415Y028593D01*
X001370Y028707D02*
X001415Y028752D01*
X001415Y028842D01*
X001370Y028887D01*
X001190Y028887D01*
X001145Y028842D01*
X001145Y028752D01*
X001190Y028707D01*
X001370Y028707D01*
X001145Y028593D02*
X001415Y028413D01*
X001415Y029118D02*
X001145Y029118D01*
X001145Y029253D01*
X001190Y029298D01*
X001280Y029298D01*
X001325Y029253D01*
X001325Y029118D01*
X001325Y029208D02*
X001415Y029298D01*
X001415Y029413D02*
X001145Y029593D01*
X001145Y029707D02*
X001145Y029797D01*
X001145Y029752D02*
X001415Y029752D01*
X001415Y029707D02*
X001415Y029797D01*
X001415Y029593D02*
X001145Y029413D01*
X001145Y030118D02*
X001325Y030118D01*
X001415Y030208D01*
X001325Y030298D01*
X001145Y030298D01*
X001190Y030413D02*
X001370Y030413D01*
X001415Y030458D01*
X001415Y030548D01*
X001370Y030593D01*
X001370Y030707D02*
X001415Y030752D01*
X001415Y030842D01*
X001370Y030887D01*
X001370Y030707D02*
X001190Y030707D01*
X001145Y030752D01*
X001145Y030842D01*
X001190Y030887D01*
X001190Y031118D02*
X001370Y031118D01*
X001415Y031163D01*
X001415Y031253D01*
X001370Y031298D01*
X001190Y031298D02*
X001145Y031253D01*
X001145Y031163D01*
X001190Y031118D01*
X001145Y031413D02*
X001145Y031593D01*
X001145Y031503D02*
X001415Y031503D01*
X001370Y031707D02*
X001415Y031752D01*
X001415Y031842D01*
X001370Y031887D01*
X001325Y031887D01*
X001280Y031842D01*
X001280Y031752D01*
X001235Y031707D01*
X001190Y031707D01*
X001145Y031752D01*
X001145Y031842D01*
X001190Y031887D01*
X001190Y032118D02*
X001370Y032118D01*
X001415Y032163D01*
X001415Y032253D01*
X001370Y032298D01*
X001280Y032298D01*
X001280Y032208D01*
X001190Y032298D02*
X001145Y032253D01*
X001145Y032163D01*
X001190Y032118D01*
X001145Y032413D02*
X001415Y032593D01*
X001145Y032593D01*
X001145Y032707D02*
X001145Y032842D01*
X001190Y032887D01*
X001370Y032887D01*
X001415Y032842D01*
X001415Y032707D01*
X001145Y032707D01*
X001145Y032413D02*
X001415Y032413D01*
X001190Y030593D02*
X001145Y030548D01*
X001145Y030458D01*
X001190Y030413D01*
X000836Y023188D02*
X000836Y022888D01*
X000836Y023038D02*
X000386Y023038D01*
X000536Y022888D01*
X000386Y022728D02*
X000386Y022577D01*
X000386Y022653D02*
X000761Y022653D01*
X000836Y022577D01*
X000836Y022502D01*
X000761Y022427D01*
X035819Y022577D02*
X035819Y022728D01*
X035819Y022653D02*
X036194Y022653D01*
X036269Y022577D01*
X036269Y022502D01*
X036194Y022427D01*
X036194Y022888D02*
X036269Y022963D01*
X036269Y023113D01*
X036194Y023188D01*
X036119Y023188D01*
X036044Y023113D01*
X036044Y023038D01*
X036044Y023113D02*
X035969Y023188D01*
X035894Y023188D01*
X035819Y023113D01*
X035819Y022963D01*
X035894Y022888D01*
X036973Y026993D02*
X037973Y026993D01*
X037973Y032993D01*
X036973Y032993D01*
X036973Y026993D01*
X036848Y027118D02*
X036848Y027253D01*
X036803Y027298D01*
X036623Y027298D01*
X036578Y027253D01*
X036578Y027118D01*
X036848Y027118D01*
X036848Y027503D02*
X036578Y027503D01*
X036578Y027413D02*
X036578Y027593D01*
X036578Y027707D02*
X036578Y027842D01*
X036623Y027887D01*
X036713Y027887D01*
X036758Y027842D01*
X036758Y027707D01*
X036848Y027707D02*
X036578Y027707D01*
X036758Y027797D02*
X036848Y027887D01*
X036848Y028208D02*
X036578Y028208D01*
X036578Y028118D02*
X036578Y028298D01*
X036578Y028413D02*
X036848Y028593D01*
X036803Y028707D02*
X036623Y028707D01*
X036578Y028752D01*
X036578Y028842D01*
X036623Y028887D01*
X036803Y028887D01*
X036848Y028842D01*
X036848Y028752D01*
X036803Y028707D01*
X036578Y028593D02*
X036848Y028413D01*
X036848Y029118D02*
X036578Y029118D01*
X036578Y029253D01*
X036623Y029298D01*
X036713Y029298D01*
X036758Y029253D01*
X036758Y029118D01*
X036758Y029208D02*
X036848Y029298D01*
X036848Y029413D02*
X036578Y029593D01*
X036578Y029707D02*
X036578Y029797D01*
X036578Y029752D02*
X036848Y029752D01*
X036848Y029707D02*
X036848Y029797D01*
X036848Y029593D02*
X036578Y029413D01*
X036578Y030118D02*
X036758Y030118D01*
X036848Y030208D01*
X036758Y030298D01*
X036578Y030298D01*
X036623Y030413D02*
X036803Y030413D01*
X036848Y030458D01*
X036848Y030548D01*
X036803Y030593D01*
X036803Y030707D02*
X036848Y030752D01*
X036848Y030842D01*
X036803Y030887D01*
X036803Y030707D02*
X036623Y030707D01*
X036578Y030752D01*
X036578Y030842D01*
X036623Y030887D01*
X036623Y031118D02*
X036803Y031118D01*
X036848Y031163D01*
X036848Y031253D01*
X036803Y031298D01*
X036623Y031298D02*
X036578Y031253D01*
X036578Y031163D01*
X036623Y031118D01*
X036578Y031413D02*
X036578Y031593D01*
X036578Y031503D02*
X036848Y031503D01*
X036803Y031707D02*
X036848Y031752D01*
X036848Y031842D01*
X036803Y031887D01*
X036758Y031887D01*
X036713Y031842D01*
X036713Y031752D01*
X036668Y031707D01*
X036623Y031707D01*
X036578Y031752D01*
X036578Y031842D01*
X036623Y031887D01*
X036623Y032118D02*
X036803Y032118D01*
X036848Y032163D01*
X036848Y032253D01*
X036803Y032298D01*
X036713Y032298D01*
X036713Y032208D01*
X036623Y032298D02*
X036578Y032253D01*
X036578Y032163D01*
X036623Y032118D01*
X036578Y032413D02*
X036848Y032593D01*
X036578Y032593D01*
X036578Y032707D02*
X036578Y032842D01*
X036623Y032887D01*
X036803Y032887D01*
X036848Y032842D01*
X036848Y032707D01*
X036578Y032707D01*
X036578Y032413D02*
X036848Y032413D01*
X036623Y030593D02*
X036578Y030548D01*
X036578Y030458D01*
X036623Y030413D01*
X044437Y026087D02*
X044437Y025937D01*
X044512Y025861D01*
X044587Y025861D01*
X044662Y025937D01*
X044662Y026162D01*
X044512Y026162D02*
X044437Y026087D01*
X044512Y026162D02*
X044813Y026162D01*
X044888Y026087D01*
X044888Y025937D01*
X044813Y025861D01*
X044662Y025701D02*
X044738Y025626D01*
X044738Y025401D01*
X044888Y025401D02*
X044437Y025401D01*
X044437Y025626D01*
X044512Y025701D01*
X044662Y025701D01*
X044437Y025241D02*
X044437Y025091D01*
X044437Y025166D02*
X044813Y025166D01*
X044888Y025091D01*
X044888Y025016D01*
X044813Y024941D01*
X046585Y022461D02*
X046641Y022461D01*
X046698Y022405D01*
X046755Y022461D01*
X046812Y022461D01*
X046868Y022405D01*
X046868Y022291D01*
X046812Y022234D01*
X046698Y022348D02*
X046698Y022405D01*
X046585Y022461D02*
X046528Y022405D01*
X046528Y022291D01*
X046585Y022234D01*
X046585Y021461D02*
X046528Y021405D01*
X046528Y021291D01*
X046585Y021234D01*
X046585Y021461D02*
X046641Y021461D01*
X046868Y021234D01*
X046868Y021461D01*
X046868Y020461D02*
X046868Y020234D01*
X046868Y020348D02*
X046528Y020348D01*
X046641Y020234D01*
X045168Y020295D02*
X044718Y020295D01*
X044718Y020520D01*
X044793Y020595D01*
X044943Y020595D01*
X045018Y020520D01*
X045018Y020295D01*
X045093Y020060D02*
X044718Y020060D01*
X044718Y019985D02*
X044718Y020135D01*
X045093Y020060D02*
X045168Y019985D01*
X045168Y019910D01*
X045093Y019834D01*
X045168Y020755D02*
X045168Y021055D01*
X045168Y020905D02*
X044718Y020905D01*
X044868Y020755D01*
X044793Y021216D02*
X044718Y021291D01*
X044718Y021441D01*
X044793Y021516D01*
X044868Y021516D01*
X045168Y021216D01*
X045168Y021516D01*
X044855Y017985D02*
X047170Y017985D01*
X047170Y015670D01*
X044855Y015670D01*
X044855Y017985D01*
X045022Y017694D02*
X045024Y017716D01*
X045029Y017736D01*
X045039Y017756D01*
X045051Y017774D01*
X045066Y017789D01*
X045084Y017801D01*
X045104Y017811D01*
X045124Y017816D01*
X045146Y017818D01*
X045168Y017816D01*
X045188Y017811D01*
X045208Y017801D01*
X045226Y017789D01*
X045241Y017774D01*
X045253Y017756D01*
X045263Y017736D01*
X045268Y017716D01*
X045270Y017694D01*
X045268Y017672D01*
X045263Y017652D01*
X045253Y017632D01*
X045241Y017614D01*
X045226Y017599D01*
X045208Y017587D01*
X045188Y017577D01*
X045168Y017572D01*
X045146Y017570D01*
X045124Y017572D01*
X045104Y017577D01*
X045084Y017587D01*
X045066Y017599D01*
X045051Y017614D01*
X045039Y017632D01*
X045029Y017652D01*
X045024Y017672D01*
X045022Y017694D01*
X045344Y016828D02*
X045346Y016879D01*
X045352Y016930D01*
X045362Y016980D01*
X045375Y017030D01*
X045393Y017078D01*
X045413Y017125D01*
X045438Y017170D01*
X045466Y017213D01*
X045497Y017254D01*
X045531Y017292D01*
X045568Y017327D01*
X045607Y017360D01*
X045649Y017390D01*
X045693Y017416D01*
X045739Y017438D01*
X045787Y017458D01*
X045836Y017473D01*
X045886Y017485D01*
X045936Y017493D01*
X045987Y017497D01*
X046039Y017497D01*
X046090Y017493D01*
X046140Y017485D01*
X046190Y017473D01*
X046239Y017458D01*
X046287Y017438D01*
X046333Y017416D01*
X046377Y017390D01*
X046419Y017360D01*
X046458Y017327D01*
X046495Y017292D01*
X046529Y017254D01*
X046560Y017213D01*
X046588Y017170D01*
X046613Y017125D01*
X046633Y017078D01*
X046651Y017030D01*
X046664Y016980D01*
X046674Y016930D01*
X046680Y016879D01*
X046682Y016828D01*
X046680Y016777D01*
X046674Y016726D01*
X046664Y016676D01*
X046651Y016626D01*
X046633Y016578D01*
X046613Y016531D01*
X046588Y016486D01*
X046560Y016443D01*
X046529Y016402D01*
X046495Y016364D01*
X046458Y016329D01*
X046419Y016296D01*
X046377Y016266D01*
X046333Y016240D01*
X046287Y016218D01*
X046239Y016198D01*
X046190Y016183D01*
X046140Y016171D01*
X046090Y016163D01*
X046039Y016159D01*
X045987Y016159D01*
X045936Y016163D01*
X045886Y016171D01*
X045836Y016183D01*
X045787Y016198D01*
X045739Y016218D01*
X045693Y016240D01*
X045649Y016266D01*
X045607Y016296D01*
X045568Y016329D01*
X045531Y016364D01*
X045497Y016402D01*
X045466Y016443D01*
X045438Y016486D01*
X045413Y016531D01*
X045393Y016578D01*
X045375Y016626D01*
X045362Y016676D01*
X045352Y016726D01*
X045346Y016777D01*
X045344Y016828D01*
X045022Y015961D02*
X045024Y015983D01*
X045029Y016003D01*
X045039Y016023D01*
X045051Y016041D01*
X045066Y016056D01*
X045084Y016068D01*
X045104Y016078D01*
X045124Y016083D01*
X045146Y016085D01*
X045168Y016083D01*
X045188Y016078D01*
X045208Y016068D01*
X045226Y016056D01*
X045241Y016041D01*
X045253Y016023D01*
X045263Y016003D01*
X045268Y015983D01*
X045270Y015961D01*
X045268Y015939D01*
X045263Y015919D01*
X045253Y015899D01*
X045241Y015881D01*
X045226Y015866D01*
X045208Y015854D01*
X045188Y015844D01*
X045168Y015839D01*
X045146Y015837D01*
X045124Y015839D01*
X045104Y015844D01*
X045084Y015854D01*
X045066Y015866D01*
X045051Y015881D01*
X045039Y015899D01*
X045029Y015919D01*
X045024Y015939D01*
X045022Y015961D01*
X045009Y014280D02*
X044221Y014477D01*
X043040Y014280D01*
X043040Y010737D01*
X044221Y010540D01*
X045009Y010737D01*
X045009Y014280D01*
X046755Y015961D02*
X046757Y015983D01*
X046762Y016003D01*
X046772Y016023D01*
X046784Y016041D01*
X046799Y016056D01*
X046817Y016068D01*
X046837Y016078D01*
X046857Y016083D01*
X046879Y016085D01*
X046901Y016083D01*
X046921Y016078D01*
X046941Y016068D01*
X046959Y016056D01*
X046974Y016041D01*
X046986Y016023D01*
X046996Y016003D01*
X047001Y015983D01*
X047003Y015961D01*
X047001Y015939D01*
X046996Y015919D01*
X046986Y015899D01*
X046974Y015881D01*
X046959Y015866D01*
X046941Y015854D01*
X046921Y015844D01*
X046901Y015839D01*
X046879Y015837D01*
X046857Y015839D01*
X046837Y015844D01*
X046817Y015854D01*
X046799Y015866D01*
X046784Y015881D01*
X046772Y015899D01*
X046762Y015919D01*
X046757Y015939D01*
X046755Y015961D01*
X048001Y016040D02*
X048906Y015843D01*
X049576Y016040D01*
X049576Y027851D01*
X048906Y028048D01*
X048001Y027851D01*
X048001Y016040D01*
X046755Y017694D02*
X046757Y017716D01*
X046762Y017736D01*
X046772Y017756D01*
X046784Y017774D01*
X046799Y017789D01*
X046817Y017801D01*
X046837Y017811D01*
X046857Y017816D01*
X046879Y017818D01*
X046901Y017816D01*
X046921Y017811D01*
X046941Y017801D01*
X046959Y017789D01*
X046974Y017774D01*
X046986Y017756D01*
X046996Y017736D01*
X047001Y017716D01*
X047003Y017694D01*
X047001Y017672D01*
X046996Y017652D01*
X046986Y017632D01*
X046974Y017614D01*
X046959Y017599D01*
X046941Y017587D01*
X046921Y017577D01*
X046901Y017572D01*
X046879Y017570D01*
X046857Y017572D01*
X046837Y017577D01*
X046817Y017587D01*
X046799Y017599D01*
X046784Y017614D01*
X046772Y017632D01*
X046762Y017652D01*
X046757Y017672D01*
X046755Y017694D01*
X040324Y012517D02*
X038552Y012517D01*
X038552Y010186D01*
X040324Y010186D01*
X040324Y012517D01*
X038708Y012041D02*
X038708Y011891D01*
X038633Y011816D01*
X038708Y011656D02*
X038708Y011355D01*
X038708Y011506D02*
X038258Y011506D01*
X038408Y011355D01*
X038333Y011195D02*
X038258Y011120D01*
X038258Y010970D01*
X038333Y010895D01*
X038633Y010895D01*
X038708Y010970D01*
X038708Y011120D01*
X038633Y011195D01*
X038333Y011816D02*
X038258Y011891D01*
X038258Y012041D01*
X038333Y012116D01*
X038408Y012116D01*
X038483Y012041D01*
X038558Y012116D01*
X038633Y012116D01*
X038708Y012041D01*
X038483Y012041D02*
X038483Y011966D01*
X038650Y009300D02*
X038650Y002800D01*
X048650Y002800D01*
X048650Y009300D01*
X038650Y009300D01*
X040363Y007489D02*
X040363Y001241D01*
X046938Y001241D01*
X046938Y007489D01*
X040363Y007489D01*
X042754Y010895D02*
X043054Y010895D01*
X043129Y010970D01*
X043129Y011120D01*
X043054Y011195D01*
X043129Y011355D02*
X043129Y011656D01*
X043129Y011506D02*
X042679Y011506D01*
X042829Y011355D01*
X042754Y011195D02*
X042679Y011120D01*
X042679Y010970D01*
X042754Y010895D01*
X042754Y011816D02*
X042679Y011891D01*
X042679Y012041D01*
X042754Y012116D01*
X042829Y012116D01*
X043129Y011816D01*
X043129Y012116D01*
X046868Y011799D02*
X047319Y011799D01*
X047319Y011649D02*
X047319Y011949D01*
X047019Y011649D02*
X046868Y011799D01*
X046868Y011338D02*
X047319Y011338D01*
X047319Y011188D02*
X047319Y011488D01*
X047019Y011188D02*
X046868Y011338D01*
X046943Y011028D02*
X046868Y010953D01*
X046868Y010728D01*
X047319Y010728D01*
X047169Y010728D02*
X047169Y010953D01*
X047094Y011028D01*
X046943Y011028D01*
X046868Y010568D02*
X046868Y010418D01*
X046868Y010493D02*
X047244Y010493D01*
X047319Y010418D01*
X047319Y010343D01*
X047244Y010267D01*
D13*
X046824Y008280D02*
X046824Y007820D01*
X046977Y007820D02*
X046670Y007820D01*
X046670Y008127D02*
X046824Y008280D01*
X042733Y011805D02*
X042272Y011805D01*
X042272Y012035D01*
X042349Y012112D01*
X042503Y012112D01*
X042579Y012035D01*
X042579Y011805D01*
X042656Y012265D02*
X042733Y012342D01*
X042733Y012495D01*
X042656Y012572D01*
X042579Y012572D01*
X042503Y012495D01*
X042503Y012419D01*
X042503Y012495D02*
X042426Y012572D01*
X042349Y012572D01*
X042272Y012495D01*
X042272Y012342D01*
X042349Y012265D01*
X043410Y013643D02*
X043257Y013797D01*
X043717Y013797D01*
X043717Y013950D02*
X043717Y013643D01*
X047402Y016489D02*
X047863Y016489D01*
X047863Y016336D02*
X047863Y016643D01*
X047556Y016336D02*
X047402Y016489D01*
X039901Y008280D02*
X039747Y008280D01*
X039670Y008204D01*
X039670Y008127D01*
X039747Y008050D01*
X039901Y008050D01*
X039977Y007973D01*
X039977Y007897D01*
X039901Y007820D01*
X039747Y007820D01*
X039670Y007897D01*
X039670Y007973D01*
X039747Y008050D01*
X039901Y008050D02*
X039977Y008127D01*
X039977Y008204D01*
X039901Y008280D01*
X030146Y016336D02*
X030146Y016643D01*
X030146Y016489D02*
X029686Y016489D01*
X029839Y016336D01*
X026000Y013950D02*
X026000Y013643D01*
X026000Y013797D02*
X025540Y013797D01*
X025694Y013643D01*
X025016Y012572D02*
X025016Y012265D01*
X024709Y012572D01*
X024633Y012572D01*
X024556Y012495D01*
X024556Y012342D01*
X024633Y012265D01*
X024633Y012112D02*
X024786Y012112D01*
X024863Y012035D01*
X024863Y011805D01*
X025016Y011805D02*
X024556Y011805D01*
X024556Y012035D01*
X024633Y012112D01*
X022184Y008280D02*
X022031Y008280D01*
X021954Y008204D01*
X021954Y008127D01*
X022031Y008050D01*
X022184Y008050D01*
X022261Y007973D01*
X022261Y007897D01*
X022184Y007820D01*
X022031Y007820D01*
X021954Y007897D01*
X021954Y007973D01*
X022031Y008050D01*
X022184Y008050D02*
X022261Y008127D01*
X022261Y008204D01*
X022184Y008280D01*
X028954Y008127D02*
X029107Y008280D01*
X029107Y007820D01*
X028954Y007820D02*
X029261Y007820D01*
X012430Y016336D02*
X012430Y016643D01*
X012430Y016489D02*
X011969Y016489D01*
X012123Y016336D01*
X008284Y013950D02*
X008284Y013643D01*
X008284Y013797D02*
X007824Y013797D01*
X007977Y013643D01*
X007300Y012572D02*
X007300Y012265D01*
X007300Y012419D02*
X006839Y012419D01*
X006993Y012265D01*
X007069Y012112D02*
X006916Y012112D01*
X006839Y012035D01*
X006839Y011805D01*
X007300Y011805D01*
X007146Y011805D02*
X007146Y012035D01*
X007069Y012112D01*
X004468Y008280D02*
X004544Y008204D01*
X004544Y008127D01*
X004468Y008050D01*
X004314Y008050D01*
X004237Y008127D01*
X004237Y008204D01*
X004314Y008280D01*
X004468Y008280D01*
X004468Y008050D02*
X004544Y007973D01*
X004544Y007897D01*
X004468Y007820D01*
X004314Y007820D01*
X004237Y007897D01*
X004237Y007973D01*
X004314Y008050D01*
X011237Y008127D02*
X011391Y008280D01*
X011391Y007820D01*
X011544Y007820D02*
X011237Y007820D01*
X012123Y027084D02*
X011969Y027237D01*
X012430Y027237D01*
X012430Y027084D02*
X012430Y027391D01*
X012430Y027544D02*
X012123Y027851D01*
X012046Y027851D01*
X011969Y027774D01*
X011969Y027621D01*
X012046Y027544D01*
X012430Y027544D02*
X012430Y027851D01*
X029686Y027774D02*
X029686Y027621D01*
X029762Y027544D01*
X029686Y027774D02*
X029762Y027851D01*
X029839Y027851D01*
X030146Y027544D01*
X030146Y027851D01*
X030146Y027391D02*
X030146Y027084D01*
X030146Y027237D02*
X029686Y027237D01*
X029839Y027084D01*
X047402Y027237D02*
X047863Y027237D01*
X047863Y027084D02*
X047863Y027391D01*
X047863Y027544D02*
X047556Y027851D01*
X047479Y027851D01*
X047402Y027774D01*
X047402Y027621D01*
X047479Y027544D01*
X047402Y027237D02*
X047556Y027084D01*
X047863Y027544D02*
X047863Y027851D01*
D14*
X042022Y029746D02*
X039822Y029746D01*
X039822Y015146D01*
X040672Y015146D01*
X040674Y015176D01*
X040679Y015206D01*
X040688Y015235D01*
X040701Y015262D01*
X040716Y015288D01*
X040735Y015312D01*
X040756Y015333D01*
X040780Y015352D01*
X040806Y015367D01*
X040833Y015380D01*
X040862Y015389D01*
X040892Y015394D01*
X040922Y015396D01*
X040952Y015394D01*
X040982Y015389D01*
X041011Y015380D01*
X041038Y015367D01*
X041064Y015352D01*
X041088Y015333D01*
X041109Y015312D01*
X041128Y015288D01*
X041143Y015262D01*
X041156Y015235D01*
X041165Y015206D01*
X041170Y015176D01*
X041172Y015146D01*
X042022Y015146D01*
X042022Y029746D01*
X045443Y022709D02*
X046243Y022709D01*
X046343Y022609D01*
X046343Y021809D01*
X046243Y021709D01*
X046343Y021609D01*
X046343Y020809D01*
X046243Y020709D01*
X046343Y020609D01*
X046343Y019809D01*
X046243Y019709D01*
X045443Y019709D01*
X045343Y019809D01*
X045343Y020609D01*
X045443Y020709D01*
X045343Y020809D01*
X045343Y021609D01*
X045443Y021709D01*
X045343Y021809D01*
X045343Y022609D01*
X045443Y022709D01*
X042454Y012301D02*
X040854Y012301D01*
X040837Y012299D01*
X040820Y012295D01*
X040804Y012288D01*
X040790Y012278D01*
X040777Y012265D01*
X040767Y012251D01*
X040760Y012235D01*
X040756Y012218D01*
X040754Y012201D01*
X040754Y010501D01*
X040756Y010484D01*
X040760Y010467D01*
X040767Y010451D01*
X040777Y010437D01*
X040790Y010424D01*
X040804Y010414D01*
X040820Y010407D01*
X040837Y010403D01*
X040854Y010401D01*
X042454Y010401D01*
X042471Y010403D01*
X042488Y010407D01*
X042504Y010414D01*
X042518Y010424D01*
X042531Y010437D01*
X042541Y010451D01*
X042548Y010467D01*
X042552Y010484D01*
X042554Y010501D01*
X042554Y012201D01*
X042552Y012218D01*
X042548Y012235D01*
X042541Y012251D01*
X042531Y012265D01*
X042518Y012278D01*
X042504Y012288D01*
X042488Y012295D01*
X042471Y012299D01*
X042454Y012301D01*
X041654Y011501D02*
X041654Y011451D01*
X041654Y011251D02*
X041654Y011201D01*
X038133Y010501D02*
X038133Y012201D01*
X038131Y012218D01*
X038127Y012235D01*
X038120Y012251D01*
X038110Y012265D01*
X038097Y012278D01*
X038083Y012288D01*
X038067Y012295D01*
X038050Y012299D01*
X038033Y012301D01*
X036433Y012301D01*
X036416Y012299D01*
X036399Y012295D01*
X036383Y012288D01*
X036369Y012278D01*
X036356Y012265D01*
X036346Y012251D01*
X036339Y012235D01*
X036335Y012218D01*
X036333Y012201D01*
X036333Y010501D01*
X036335Y010484D01*
X036339Y010467D01*
X036346Y010451D01*
X036356Y010437D01*
X036369Y010424D01*
X036383Y010414D01*
X036399Y010407D01*
X036416Y010403D01*
X036433Y010401D01*
X038033Y010401D01*
X038050Y010403D01*
X038067Y010407D01*
X038083Y010414D01*
X038097Y010424D01*
X038110Y010437D01*
X038120Y010451D01*
X038127Y010467D01*
X038131Y010484D01*
X038133Y010501D01*
X037233Y011201D02*
X037233Y011251D01*
X037233Y011451D02*
X037233Y011501D01*
X028627Y019809D02*
X028527Y019709D01*
X027727Y019709D01*
X027627Y019809D01*
X027627Y020609D01*
X027727Y020709D01*
X027627Y020809D01*
X027627Y021609D01*
X027727Y021709D01*
X027627Y021809D01*
X027627Y022609D01*
X027727Y022709D01*
X028527Y022709D01*
X028627Y022609D01*
X028627Y021809D01*
X028527Y021709D01*
X028627Y021609D01*
X028627Y020809D01*
X028527Y020709D01*
X028627Y020609D01*
X028627Y019809D01*
X024306Y015146D02*
X023456Y015146D01*
X023454Y015176D01*
X023449Y015206D01*
X023440Y015235D01*
X023427Y015262D01*
X023412Y015288D01*
X023393Y015312D01*
X023372Y015333D01*
X023348Y015352D01*
X023322Y015367D01*
X023295Y015380D01*
X023266Y015389D01*
X023236Y015394D01*
X023206Y015396D01*
X023176Y015394D01*
X023146Y015389D01*
X023117Y015380D01*
X023090Y015367D01*
X023064Y015352D01*
X023040Y015333D01*
X023019Y015312D01*
X023000Y015288D01*
X022985Y015262D01*
X022972Y015235D01*
X022963Y015206D01*
X022958Y015176D01*
X022956Y015146D01*
X022106Y015146D01*
X022106Y029746D01*
X024306Y029746D01*
X024306Y015146D01*
X024738Y012301D02*
X023138Y012301D01*
X023121Y012299D01*
X023104Y012295D01*
X023088Y012288D01*
X023074Y012278D01*
X023061Y012265D01*
X023051Y012251D01*
X023044Y012235D01*
X023040Y012218D01*
X023038Y012201D01*
X023038Y010501D01*
X023040Y010484D01*
X023044Y010467D01*
X023051Y010451D01*
X023061Y010437D01*
X023074Y010424D01*
X023088Y010414D01*
X023104Y010407D01*
X023121Y010403D01*
X023138Y010401D01*
X024738Y010401D01*
X024755Y010403D01*
X024772Y010407D01*
X024788Y010414D01*
X024802Y010424D01*
X024815Y010437D01*
X024825Y010451D01*
X024832Y010467D01*
X024836Y010484D01*
X024838Y010501D01*
X024838Y012201D01*
X024836Y012218D01*
X024832Y012235D01*
X024825Y012251D01*
X024815Y012265D01*
X024802Y012278D01*
X024788Y012288D01*
X024772Y012295D01*
X024755Y012299D01*
X024738Y012301D01*
X023938Y011501D02*
X023938Y011451D01*
X023938Y011251D02*
X023938Y011201D01*
X020417Y010501D02*
X020417Y012201D01*
X020415Y012218D01*
X020411Y012235D01*
X020404Y012251D01*
X020394Y012265D01*
X020381Y012278D01*
X020367Y012288D01*
X020351Y012295D01*
X020334Y012299D01*
X020317Y012301D01*
X018717Y012301D01*
X018700Y012299D01*
X018683Y012295D01*
X018667Y012288D01*
X018653Y012278D01*
X018640Y012265D01*
X018630Y012251D01*
X018623Y012235D01*
X018619Y012218D01*
X018617Y012201D01*
X018617Y010501D01*
X018619Y010484D01*
X018623Y010467D01*
X018630Y010451D01*
X018640Y010437D01*
X018653Y010424D01*
X018667Y010414D01*
X018683Y010407D01*
X018700Y010403D01*
X018717Y010401D01*
X020317Y010401D01*
X020334Y010403D01*
X020351Y010407D01*
X020367Y010414D01*
X020381Y010424D01*
X020394Y010437D01*
X020404Y010451D01*
X020411Y010467D01*
X020415Y010484D01*
X020417Y010501D01*
X019517Y011201D02*
X019517Y011251D01*
X019517Y011451D02*
X019517Y011501D01*
X010910Y019809D02*
X010910Y020609D01*
X010810Y020709D01*
X010910Y020809D01*
X010910Y021609D01*
X010810Y021709D01*
X010910Y021809D01*
X010910Y022609D01*
X010810Y022709D01*
X010010Y022709D01*
X009910Y022609D01*
X009910Y021809D01*
X010010Y021709D01*
X009910Y021609D01*
X009910Y020809D01*
X010010Y020709D01*
X009910Y020609D01*
X009910Y019809D01*
X010010Y019709D01*
X010810Y019709D01*
X010910Y019809D01*
X006589Y015146D02*
X005739Y015146D01*
X005737Y015176D01*
X005732Y015206D01*
X005723Y015235D01*
X005710Y015262D01*
X005695Y015288D01*
X005676Y015312D01*
X005655Y015333D01*
X005631Y015352D01*
X005605Y015367D01*
X005578Y015380D01*
X005549Y015389D01*
X005519Y015394D01*
X005489Y015396D01*
X005459Y015394D01*
X005429Y015389D01*
X005400Y015380D01*
X005373Y015367D01*
X005347Y015352D01*
X005323Y015333D01*
X005302Y015312D01*
X005283Y015288D01*
X005268Y015262D01*
X005255Y015235D01*
X005246Y015206D01*
X005241Y015176D01*
X005239Y015146D01*
X004389Y015146D01*
X004389Y029746D01*
X006589Y029746D01*
X006589Y015146D01*
X007021Y012301D02*
X005421Y012301D01*
X005404Y012299D01*
X005387Y012295D01*
X005371Y012288D01*
X005357Y012278D01*
X005344Y012265D01*
X005334Y012251D01*
X005327Y012235D01*
X005323Y012218D01*
X005321Y012201D01*
X005321Y010501D01*
X005323Y010484D01*
X005327Y010467D01*
X005334Y010451D01*
X005344Y010437D01*
X005357Y010424D01*
X005371Y010414D01*
X005387Y010407D01*
X005404Y010403D01*
X005421Y010401D01*
X007021Y010401D01*
X007038Y010403D01*
X007055Y010407D01*
X007071Y010414D01*
X007085Y010424D01*
X007098Y010437D01*
X007108Y010451D01*
X007115Y010467D01*
X007119Y010484D01*
X007121Y010501D01*
X007121Y012201D01*
X007119Y012218D01*
X007115Y012235D01*
X007108Y012251D01*
X007098Y012265D01*
X007085Y012278D01*
X007071Y012288D01*
X007055Y012295D01*
X007038Y012299D01*
X007021Y012301D01*
X006221Y011501D02*
X006221Y011451D01*
X006221Y011251D02*
X006221Y011201D01*
X002700Y010501D02*
X002700Y012201D01*
X002698Y012218D01*
X002694Y012235D01*
X002687Y012251D01*
X002677Y012265D01*
X002664Y012278D01*
X002650Y012288D01*
X002634Y012295D01*
X002617Y012299D01*
X002600Y012301D01*
X001000Y012301D01*
X000983Y012299D01*
X000966Y012295D01*
X000950Y012288D01*
X000936Y012278D01*
X000923Y012265D01*
X000913Y012251D01*
X000906Y012235D01*
X000902Y012218D01*
X000900Y012201D01*
X000900Y010501D01*
X000902Y010484D01*
X000906Y010467D01*
X000913Y010451D01*
X000923Y010437D01*
X000936Y010424D01*
X000950Y010414D01*
X000966Y010407D01*
X000983Y010403D01*
X001000Y010401D01*
X002600Y010401D01*
X002617Y010403D01*
X002634Y010407D01*
X002650Y010414D01*
X002664Y010424D01*
X002677Y010437D01*
X002687Y010451D01*
X002694Y010467D01*
X002698Y010484D01*
X002700Y010501D01*
X001800Y011201D02*
X001800Y011251D01*
X001800Y011451D02*
X001800Y011501D01*
D15*
X001800Y011451D02*
X001500Y011451D01*
X001500Y011251D02*
X001800Y011251D01*
X002100Y011251D01*
X002100Y011451D02*
X001800Y011451D01*
X005921Y011451D02*
X006221Y011451D01*
X006521Y011451D01*
X006521Y011251D02*
X006221Y011251D01*
X005921Y011251D01*
X019217Y011251D02*
X019517Y011251D01*
X019817Y011251D01*
X019817Y011451D02*
X019517Y011451D01*
X019217Y011451D01*
X023638Y011451D02*
X023938Y011451D01*
X024238Y011451D01*
X024238Y011251D02*
X023938Y011251D01*
X023638Y011251D01*
X036933Y011251D02*
X037233Y011251D01*
X037533Y011251D01*
X037533Y011451D02*
X037233Y011451D01*
X036933Y011451D01*
X041354Y011451D02*
X041654Y011451D01*
X041954Y011451D01*
X041954Y011251D02*
X041654Y011251D01*
X041354Y011251D01*
D16*
X038438Y011276D02*
X038438Y011420D01*
X038367Y011492D01*
X038295Y011492D01*
X038223Y011420D01*
X038223Y011205D01*
X038367Y011205D01*
X038438Y011276D01*
X038223Y011205D02*
X038080Y011348D01*
X038008Y011492D01*
X038008Y011031D02*
X038438Y011031D01*
X038008Y010744D01*
X038438Y010744D01*
X038367Y010571D02*
X038438Y010499D01*
X038438Y010356D01*
X038367Y010284D01*
X038080Y010284D01*
X038008Y010356D01*
X038008Y010499D01*
X038080Y010571D01*
X040238Y014221D02*
X040448Y014221D01*
X040343Y014221D02*
X040343Y014851D01*
X040238Y014851D02*
X040448Y014851D01*
X040668Y014746D02*
X040773Y014851D01*
X040983Y014851D01*
X041088Y014746D01*
X041312Y014746D02*
X041418Y014851D01*
X041628Y014851D01*
X041733Y014746D01*
X041733Y014641D01*
X041628Y014536D01*
X041733Y014431D01*
X041733Y014326D01*
X041628Y014221D01*
X041418Y014221D01*
X041312Y014326D01*
X041088Y014326D02*
X040983Y014221D01*
X040773Y014221D01*
X040668Y014326D01*
X040668Y014746D01*
X041523Y014536D02*
X041628Y014536D01*
X024016Y014641D02*
X024016Y014746D01*
X023911Y014851D01*
X023701Y014851D01*
X023596Y014746D01*
X023372Y014746D02*
X023267Y014851D01*
X023056Y014851D01*
X022951Y014746D01*
X022951Y014326D01*
X023056Y014221D01*
X023267Y014221D01*
X023372Y014326D01*
X023596Y014221D02*
X024016Y014641D01*
X024016Y014221D02*
X023596Y014221D01*
X022732Y014221D02*
X022522Y014221D01*
X022627Y014221D02*
X022627Y014851D01*
X022522Y014851D02*
X022732Y014851D01*
X020722Y011420D02*
X020291Y011420D01*
X020507Y011205D01*
X020507Y011492D01*
X020722Y011031D02*
X020291Y011031D01*
X020291Y010744D02*
X020722Y011031D01*
X020722Y010744D02*
X020291Y010744D01*
X020363Y010571D02*
X020291Y010499D01*
X020291Y010356D01*
X020363Y010284D01*
X020650Y010284D01*
X020722Y010356D01*
X020722Y010499D01*
X020650Y010571D01*
X006300Y014221D02*
X005879Y014221D01*
X006090Y014221D02*
X006090Y014851D01*
X005879Y014641D01*
X005655Y014746D02*
X005550Y014851D01*
X005340Y014851D01*
X005235Y014746D01*
X005235Y014326D01*
X005340Y014221D01*
X005550Y014221D01*
X005655Y014326D01*
X005015Y014221D02*
X004805Y014221D01*
X004910Y014221D02*
X004910Y014851D01*
X004805Y014851D02*
X005015Y014851D01*
X003005Y011492D02*
X003005Y011205D01*
X002718Y011492D01*
X002647Y011492D01*
X002575Y011420D01*
X002575Y011276D01*
X002647Y011205D01*
X002575Y011031D02*
X003005Y011031D01*
X002575Y010744D01*
X003005Y010744D01*
X002933Y010571D02*
X003005Y010499D01*
X003005Y010356D01*
X002933Y010284D01*
X002647Y010284D01*
X002575Y010356D01*
X002575Y010499D01*
X002647Y010571D01*
D17*
X009595Y015489D03*
X011564Y015489D03*
X011564Y018166D03*
X009595Y018166D03*
X027312Y018166D03*
X029280Y018166D03*
X029280Y015489D03*
X027312Y015489D03*
X045028Y015489D03*
X046997Y015489D03*
X046997Y018166D03*
X045028Y018166D03*
M02*
